{
	"asset":{
		"generator":"Khronos glTF Blender I/O v3.6.27",
		"version":"2.0"
	},
	"scene":0,
	"scenes":[
		{
			"name":"Scene",
			"nodes":[
				0,
				1,
				2,
				3
			]
		}
	],
	"nodes":[
		{
			"mesh":0,
			"name":"Bean Bag",
			"translation":[
				-0.07334363460540771,
				-0.03257237374782562,
				0
			]
		},
		{
			"mesh":1,
			"name":"Ray",
			"scale":[
				0.3562440872192383,
				0.3562440872192383,
				0.3562440872192383
			],
			"translation":[
				-2.4347445964813232,
				1.947390079498291,
				-0.060137223452329636
			]
		},
		{
			"mesh":2,
			"name":"Character 1",
			"translation":[
				-0.6470947265625,
				0.6877222061157227,
				0
			]
		},
		{
			"mesh":3,
			"name":"Character 2",
			"scale":[
				0.653999924659729,
				0.653999924659729,
				0.653999924659729
			],
			"translation":[
				-4.087447643280029,
				0.40510404109954834,
				0
			]
		}
	],
	"materials":[
		{
			"doubleSided":true,
			"name":"Material.001",
			"pbrMetallicRoughness":{
				"baseColorFactor":[
					0.38437265157699585,
					0.2201450616121292,
					0.15490666031837463,
					1
				],
				"metallicFactor":0
			}
		},
		{
			"alphaMode":"BLEND",
			"doubleSided":true,
			"name":"Hologram",
			"pbrMetallicRoughness":{
				"baseColorFactor":[
					0,
					0.571747899055481,
					1,
					0.14173227548599243
				],
				"metallicFactor":0,
				"roughnessFactor":0.5
			}
		},
		{
			"doubleSided":true,
			"name":"Skin.001",
			"pbrMetallicRoughness":{
				"baseColorFactor":[
					0.03735997900366783,
					0.012655874714255333,
					0.0033210432156920433,
					1
				],
				"metallicFactor":0
			}
		},
		{
			"doubleSided":true,
			"name":"T-Shirt.001",
			"pbrMetallicRoughness":{
				"baseColorFactor":[
					0.22902725636959076,
					0.5453249216079712,
					0.8000000715255737,
					1
				],
				"metallicFactor":0
			}
		},
		{
			"doubleSided":true,
			"name":"Trousers.001",
			"pbrMetallicRoughness":{
				"baseColorFactor":[
					0.6038127541542053,
					0.5682843327522278,
					0.5682843327522278,
					1
				],
				"metallicFactor":0
			}
		},
		{
			"doubleSided":true,
			"name":"Shoes.001",
			"pbrMetallicRoughness":{
				"baseColorFactor":[
					0.06486643850803375,
					0.16790907084941864,
					0.8000000715255737,
					1
				],
				"metallicFactor":0,
				"roughnessFactor":0.5
			}
		},
		{
			"doubleSided":true,
			"name":"Skin.002",
			"pbrMetallicRoughness":{
				"baseColorFactor":[
					0.03735997900366783,
					0.012655874714255333,
					0.0033210432156920433,
					1
				],
				"metallicFactor":0
			}
		},
		{
			"doubleSided":true,
			"name":"T-Shirt.002",
			"pbrMetallicRoughness":{
				"baseColorFactor":[
					0.8000000715255737,
					0.3301025331020355,
					0.21834881603717804,
					1
				],
				"metallicFactor":0
			}
		},
		{
			"doubleSided":true,
			"name":"Trousers.002",
			"pbrMetallicRoughness":{
				"baseColorFactor":[
					0.008075723424553871,
					0.008075723424553871,
					0.008075723424553871,
					1
				],
				"metallicFactor":0
			}
		},
		{
			"doubleSided":true,
			"name":"Shoes.002",
			"pbrMetallicRoughness":{
				"baseColorFactor":[
					0.2597741484642029,
					0.236386239528656,
					0.1737995445728302,
					1
				],
				"metallicFactor":0,
				"roughnessFactor":0.5
			}
		}
	],
	"meshes":[
		{
			"name":"Cube.003",
			"primitives":[
				{
					"attributes":{
						"POSITION":0,
						"NORMAL":1,
						"TEXCOORD_0":2
					},
					"indices":3,
					"material":0
				}
			]
		},
		{
			"name":"Cube.007",
			"primitives":[
				{
					"attributes":{
						"POSITION":4,
						"NORMAL":5,
						"TEXCOORD_0":6
					},
					"indices":7,
					"material":1
				}
			]
		},
		{
			"name":"Cube.005",
			"primitives":[
				{
					"attributes":{
						"POSITION":8,
						"NORMAL":9,
						"TEXCOORD_0":10
					},
					"indices":11,
					"material":2
				},
				{
					"attributes":{
						"POSITION":12,
						"NORMAL":13,
						"TEXCOORD_0":14
					},
					"indices":15,
					"material":3
				},
				{
					"attributes":{
						"POSITION":16,
						"NORMAL":17,
						"TEXCOORD_0":18
					},
					"indices":19,
					"material":4
				},
				{
					"attributes":{
						"POSITION":20,
						"NORMAL":21,
						"TEXCOORD_0":22
					},
					"indices":23,
					"material":5
				}
			]
		},
		{
			"name":"Cube.002",
			"primitives":[
				{
					"attributes":{
						"POSITION":24,
						"NORMAL":25,
						"TEXCOORD_0":26
					},
					"indices":27,
					"material":6
				},
				{
					"attributes":{
						"POSITION":28,
						"NORMAL":29,
						"TEXCOORD_0":30
					},
					"indices":31,
					"material":7
				},
				{
					"attributes":{
						"POSITION":32,
						"NORMAL":33,
						"TEXCOORD_0":34
					},
					"indices":35,
					"material":8
				},
				{
					"attributes":{
						"POSITION":36,
						"NORMAL":37,
						"TEXCOORD_0":38
					},
					"indices":39,
					"material":9
				}
			]
		}
	],
	"accessors":[
		{
			"bufferView":0,
			"componentType":5126,
			"count":88,
			"max":[
				0.7531283497810364,
				0.5787947177886963,
				0.6609159111976624
			],
			"min":[
				-0.5944594144821167,
				-0.010882437229156494,
				-0.673210084438324
			],
			"type":"VEC3"
		},
		{
			"bufferView":1,
			"componentType":5126,
			"count":88,
			"type":"VEC3"
		},
		{
			"bufferView":2,
			"componentType":5126,
			"count":88,
			"type":"VEC2"
		},
		{
			"bufferView":3,
			"componentType":5123,
			"count":204,
			"type":"SCALAR"
		},
		{
			"bufferView":4,
			"componentType":5126,
			"count":322,
			"max":[
				4.5668511390686035,
				1,
				1
			],
			"min":[
				-1,
				-3.6176466941833496,
				-1.1834759712219238
			],
			"type":"VEC3"
		},
		{
			"bufferView":5,
			"componentType":5126,
			"count":322,
			"type":"VEC3"
		},
		{
			"bufferView":6,
			"componentType":5126,
			"count":322,
			"type":"VEC2"
		},
		{
			"bufferView":7,
			"componentType":5123,
			"count":624,
			"type":"SCALAR"
		},
		{
			"bufferView":8,
			"componentType":5126,
			"count":222,
			"max":[
				0.9050797820091248,
				1.2368052005767822,
				0.7942264080047607
			],
			"min":[
				-0.2135227918624878,
				-0.21330909430980682,
				-0.6266799569129944
			],
			"type":"VEC3"
		},
		{
			"bufferView":9,
			"componentType":5126,
			"count":222,
			"type":"VEC3"
		},
		{
			"bufferView":10,
			"componentType":5126,
			"count":222,
			"type":"VEC2"
		},
		{
			"bufferView":11,
			"componentType":5123,
			"count":336,
			"type":"SCALAR"
		},
		{
			"bufferView":12,
			"componentType":5126,
			"count":88,
			"max":[
				0.41946515440940857,
				0.28756582736968994,
				0.47199946641921997
			],
			"min":[
				0.015260345302522182,
				-0.3755021393299103,
				-0.5162795782089233
			],
			"type":"VEC3"
		},
		{
			"bufferView":13,
			"componentType":5126,
			"count":88,
			"type":"VEC3"
		},
		{
			"bufferView":14,
			"componentType":5126,
			"count":88,
			"type":"VEC2"
		},
		{
			"bufferView":15,
			"componentType":5123,
			"count":132,
			"type":"SCALAR"
		},
		{
			"bufferView":16,
			"componentType":5126,
			"count":88,
			"max":[
				0.35385000705718994,
				-0.12210780382156372,
				0.3338373899459839
			],
			"min":[
				-0.15686951577663422,
				-0.49491211771965027,
				-0.33774229884147644
			],
			"type":"VEC3"
		},
		{
			"bufferView":17,
			"componentType":5126,
			"count":88,
			"type":"VEC3"
		},
		{
			"bufferView":18,
			"componentType":5126,
			"count":88,
			"type":"VEC2"
		},
		{
			"bufferView":19,
			"componentType":5123,
			"count":132,
			"type":"SCALAR"
		},
		{
			"bufferView":20,
			"componentType":5126,
			"count":40,
			"max":[
				0.09935332834720612,
				-0.2889370024204254,
				0.3176722228527069
			],
			"min":[
				-0.21230438351631165,
				-0.5569000840187073,
				-0.3176719844341278
			],
			"type":"VEC3"
		},
		{
			"bufferView":21,
			"componentType":5126,
			"count":40,
			"type":"VEC3"
		},
		{
			"bufferView":22,
			"componentType":5126,
			"count":40,
			"type":"VEC2"
		},
		{
			"bufferView":23,
			"componentType":5123,
			"count":60,
			"type":"SCALAR"
		},
		{
			"bufferView":24,
			"componentType":5126,
			"count":222,
			"max":[
				0.3256779909133911,
				1.1825573444366455,
				0.6050449013710022
			],
			"min":[
				-0.8968799114227295,
				-0.39323630928993225,
				-0.5601030588150024
			],
			"type":"VEC3"
		},
		{
			"bufferView":25,
			"componentType":5126,
			"count":222,
			"type":"VEC3"
		},
		{
			"bufferView":26,
			"componentType":5126,
			"count":222,
			"type":"VEC2"
		},
		{
			"bufferView":27,
			"componentType":5123,
			"count":336,
			"type":"SCALAR"
		},
		{
			"bufferView":28,
			"componentType":5126,
			"count":88,
			"max":[
				0.183109849691391,
				0.2999591529369354,
				0.5042136311531067
			],
			"min":[
				-0.1717061847448349,
				-0.1932649463415146,
				-0.49032577872276306
			],
			"type":"VEC3"
		},
		{
			"bufferView":29,
			"componentType":5126,
			"count":88,
			"type":"VEC3"
		},
		{
			"bufferView":30,
			"componentType":5126,
			"count":88,
			"type":"VEC2"
		},
		{
			"bufferView":31,
			"componentType":5123,
			"count":132,
			"type":"SCALAR"
		},
		{
			"bufferView":32,
			"componentType":5126,
			"count":86,
			"max":[
				0.19253067672252655,
				-0.16971705853939056,
				0.35764631628990173
			],
			"min":[
				-0.1925838738679886,
				-0.5340287685394287,
				-0.35233524441719055
			],
			"type":"VEC3"
		},
		{
			"bufferView":33,
			"componentType":5126,
			"count":86,
			"type":"VEC3"
		},
		{
			"bufferView":34,
			"componentType":5126,
			"count":86,
			"type":"VEC2"
		},
		{
			"bufferView":35,
			"componentType":5123,
			"count":132,
			"type":"SCALAR"
		},
		{
			"bufferView":36,
			"componentType":5126,
			"count":40,
			"max":[
				0.19794481992721558,
				-0.5340287685394287,
				0.34889939427375793
			],
			"min":[
				-0.1971881091594696,
				-0.6210787296295166,
				-0.34840127825737
			],
			"type":"VEC3"
		},
		{
			"bufferView":37,
			"componentType":5126,
			"count":40,
			"type":"VEC3"
		},
		{
			"bufferView":38,
			"componentType":5126,
			"count":40,
			"type":"VEC2"
		},
		{
			"bufferView":39,
			"componentType":5123,
			"count":60,
			"type":"SCALAR"
		}
	],
	"bufferViews":[
		{
			"buffer":0,
			"byteLength":1056,
			"byteOffset":0,
			"target":34962
		},
		{
			"buffer":0,
			"byteLength":1056,
			"byteOffset":1056,
			"target":34962
		},
		{
			"buffer":0,
			"byteLength":704,
			"byteOffset":2112,
			"target":34962
		},
		{
			"buffer":0,
			"byteLength":408,
			"byteOffset":2816,
			"target":34963
		},
		{
			"buffer":0,
			"byteLength":3864,
			"byteOffset":3224,
			"target":34962
		},
		{
			"buffer":0,
			"byteLength":3864,
			"byteOffset":7088,
			"target":34962
		},
		{
			"buffer":0,
			"byteLength":2576,
			"byteOffset":10952,
			"target":34962
		},
		{
			"buffer":0,
			"byteLength":1248,
			"byteOffset":13528,
			"target":34963
		},
		{
			"buffer":0,
			"byteLength":2664,
			"byteOffset":14776,
			"target":34962
		},
		{
			"buffer":0,
			"byteLength":2664,
			"byteOffset":17440,
			"target":34962
		},
		{
			"buffer":0,
			"byteLength":1776,
			"byteOffset":20104,
			"target":34962
		},
		{
			"buffer":0,
			"byteLength":672,
			"byteOffset":21880,
			"target":34963
		},
		{
			"buffer":0,
			"byteLength":1056,
			"byteOffset":22552,
			"target":34962
		},
		{
			"buffer":0,
			"byteLength":1056,
			"byteOffset":23608,
			"target":34962
		},
		{
			"buffer":0,
			"byteLength":704,
			"byteOffset":24664,
			"target":34962
		},
		{
			"buffer":0,
			"byteLength":264,
			"byteOffset":25368,
			"target":34963
		},
		{
			"buffer":0,
			"byteLength":1056,
			"byteOffset":25632,
			"target":34962
		},
		{
			"buffer":0,
			"byteLength":1056,
			"byteOffset":26688,
			"target":34962
		},
		{
			"buffer":0,
			"byteLength":704,
			"byteOffset":27744,
			"target":34962
		},
		{
			"buffer":0,
			"byteLength":264,
			"byteOffset":28448,
			"target":34963
		},
		{
			"buffer":0,
			"byteLength":480,
			"byteOffset":28712,
			"target":34962
		},
		{
			"buffer":0,
			"byteLength":480,
			"byteOffset":29192,
			"target":34962
		},
		{
			"buffer":0,
			"byteLength":320,
			"byteOffset":29672,
			"target":34962
		},
		{
			"buffer":0,
			"byteLength":120,
			"byteOffset":29992,
			"target":34963
		},
		{
			"buffer":0,
			"byteLength":2664,
			"byteOffset":30112,
			"target":34962
		},
		{
			"buffer":0,
			"byteLength":2664,
			"byteOffset":32776,
			"target":34962
		},
		{
			"buffer":0,
			"byteLength":1776,
			"byteOffset":35440,
			"target":34962
		},
		{
			"buffer":0,
			"byteLength":672,
			"byteOffset":37216,
			"target":34963
		},
		{
			"buffer":0,
			"byteLength":1056,
			"byteOffset":37888,
			"target":34962
		},
		{
			"buffer":0,
			"byteLength":1056,
			"byteOffset":38944,
			"target":34962
		},
		{
			"buffer":0,
			"byteLength":704,
			"byteOffset":40000,
			"target":34962
		},
		{
			"buffer":0,
			"byteLength":264,
			"byteOffset":40704,
			"target":34963
		},
		{
			"buffer":0,
			"byteLength":1032,
			"byteOffset":40968,
			"target":34962
		},
		{
			"buffer":0,
			"byteLength":1032,
			"byteOffset":42000,
			"target":34962
		},
		{
			"buffer":0,
			"byteLength":688,
			"byteOffset":43032,
			"target":34962
		},
		{
			"buffer":0,
			"byteLength":264,
			"byteOffset":43720,
			"target":34963
		},
		{
			"buffer":0,
			"byteLength":480,
			"byteOffset":43984,
			"target":34962
		},
		{
			"buffer":0,
			"byteLength":480,
			"byteOffset":44464,
			"target":34962
		},
		{
			"buffer":0,
			"byteLength":320,
			"byteOffset":44944,
			"target":34962
		},
		{
			"buffer":0,
			"byteLength":120,
			"byteOffset":45264,
			"target":34963
		}
	],
	"buffers":[
		{
			"byteLength":45384,
			"uri":"data:application/octet-stream;base64,"
		}
	]
}
