{
	"asset":{
		"generator":"Khronos glTF Blender I/O v3.6.27",
		"version":"2.0"
	},
	"scene":0,
	"scenes":[
		{
			"name":"Scene",
			"nodes":[
				0,
				1,
				2,
				20
			]
		}
	],
	"nodes":[
		{
			"mesh":0,
			"name":"Phone",
			"rotation":[
				0.0016388677759096026,
				0.02308768592774868,
				0.07078735530376434,
				0.9972229599952698
			],
			"translation":[
				0.5082688331604004,
				0.5820868015289307,
				-0.4170492887496948
			]
		},
		{
			"mesh":1,
			"name":"Clipboard",
			"rotation":[
				-0.456720769405365,
				-0.5398204922676086,
				-0.456720769405365,
				0.5398205518722534
			],
			"scale":[
				0.0035982888657599688,
				0.2193663865327835,
				0.15510757267475128
			],
			"translation":[
				0.014243483543395996,
				0.38353031873703003,
				0.37442532181739807
			]
		},
		{
			"mesh":2,
			"name":"Glasses",
			"scale":[
				0.019001727923750877,
				0.13508892059326172,
				0.13508892059326172
			],
			"translation":[
				0.3945683240890503,
				1.3096996545791626,
				0
			]
		},
		{
			"mesh":3,
			"name":"Character",
			"scale":[
				5.722033977508545,
				5.722033977508545,
				5.722033977508545
			],
			"translation":[
				0.15198643505573273,
				1.948531985282898,
				0.03927217796444893
			]
		},
		{
			"name":"Bone.003",
			"translation":[
				0,
				1.3401660919189453,
				0
			]
		},
		{
			"children":[
				4
			],
			"name":"Bone.002",
			"translation":[
				0,
				1.3401660919189453,
				0
			]
		},
		{
			"name":"Bone.006",
			"rotation":[
				3.552717913965237e-15,
				8.742284762774943e-08,
				-1.2705494208814505e-21,
				1
			],
			"scale":[
				1,
				0.9999999403953552,
				0.9999999403953552
			],
			"translation":[
				-2.2737367544323206e-13,
				1.3763861656188965,
				2.384185791015625e-07
			]
		},
		{
			"children":[
				6
			],
			"name":"Bone.005",
			"rotation":[
				3.552719608031132e-15,
				-1.192093463942001e-07,
				-8.470329472543003e-22,
				1
			],
			"scale":[
				1,
				0.9999999403953552,
				0.9999999403953552
			],
			"translation":[
				0,
				1.9196966886520386,
				2.384185791015625e-07
			]
		},
		{
			"children":[
				7
			],
			"name":"Bone.004",
			"rotation":[
				0.7071067094802856,
				-1.1520229747929989e-07,
				-1.1520229037387253e-07,
				0.7071068286895752
			],
			"scale":[
				1,
				0.9999999403953552,
				0.9999999403953552
			],
			"translation":[
				0,
				1.3401660919189453,
				0
			]
		},
		{
			"name":"Bone.009",
			"translation":[
				0,
				1.3763864040374756,
				2.384185791015625e-07
			]
		},
		{
			"children":[
				9
			],
			"name":"Bone.008",
			"translation":[
				0,
				1.9196966886520386,
				2.384185791015625e-07
			]
		},
		{
			"children":[
				10
			],
			"name":"Bone.007",
			"rotation":[
				-0.7071067690849304,
				0,
				0,
				0.7071067690849304
			],
			"translation":[
				0,
				1.3401660919189453,
				0
			]
		},
		{
			"children":[
				5,
				8,
				11
			],
			"name":"Bone.001",
			"translation":[
				0,
				1.0000003576278687,
				0
			]
		},
		{
			"children":[
				12
			],
			"name":"Bone",
			"translation":[
				0,
				1.1920928955078125e-07,
				0
			]
		},
		{
			"name":"Bone.014",
			"rotation":[
				-2.1396762330500715e-19,
				8.470306046529562e-21,
				1.421086826772916e-14,
				1
			],
			"scale":[
				1,
				1,
				0.9999999403953552
			],
			"translation":[
				7.105196964639349e-15,
				0.611361563205719,
				0
			]
		},
		{
			"children":[
				14
			],
			"name":"Bone.012",
			"rotation":[
				-0.6552016735076904,
				3.762202680467064e-13,
				2.551453519572533e-07,
				0.7554540038108826
			],
			"scale":[
				1,
				1,
				0.9999999403953552
			],
			"translation":[
				7.105427357601002e-15,
				1.152535080909729,
				-7.450580596923828e-08
			]
		},
		{
			"children":[
				15
			],
			"name":"Bone.010",
			"rotation":[
				1.4709226547893195e-07,
				0.6552019119262695,
				0.755453884601593,
				1.2757250544837007e-07
			],
			"scale":[
				1,
				1.0000001192092896,
				1.0000029802322388
			],
			"translation":[
				0,
				1.1920928955078125e-07,
				0
			]
		},
		{
			"name":"Bone.015",
			"translation":[
				0,
				0.6113647818565369,
				1.1920928955078125e-07
			]
		},
		{
			"children":[
				17
			],
			"name":"Bone.013",
			"rotation":[
				-0.6586543321609497,
				0,
				0,
				0.7524456977844238
			],
			"scale":[
				0.9999999403953552,
				0.9999999403953552,
				0.9999999403953552
			],
			"translation":[
				0,
				1.1548346281051636,
				0
			]
		},
		{
			"children":[
				18
			],
			"name":"Bone.011",
			"rotation":[
				-0.7524456977844238,
				0,
				0,
				0.6586543321609497
			],
			"translation":[
				0,
				1.1920928955078125e-07,
				0
			]
		},
		{
			"children":[
				3,
				13,
				16,
				19
			],
			"name":"Armature",
			"scale":[
				0.174763023853302,
				0.174763023853302,
				0.174763023853302
			],
			"translation":[
				0,
				0.24693803489208221,
				0
			]
		}
	],
	"materials":[
		{
			"doubleSided":true,
			"name":"Phone Case",
			"pbrMetallicRoughness":{
				"baseColorFactor":[
					0.0025794128887355328,
					0.0025794128887355328,
					0.0025794128887355328,
					1
				],
				"metallicFactor":0,
				"roughnessFactor":0.5
			}
		},
		{
			"doubleSided":true,
			"name":"Screen",
			"pbrMetallicRoughness":{
				"baseColorFactor":[
					0.4472479820251465,
					0.8000000715255737,
					0.7545751333236694,
					1
				],
				"metallicFactor":0,
				"roughnessFactor":0.5
			}
		},
		{
			"doubleSided":true,
			"name":"Paper",
			"pbrMetallicRoughness":{
				"metallicFactor":0,
				"roughnessFactor":0.5
			}
		},
		{
			"doubleSided":true,
			"name":"Clipboard",
			"pbrMetallicRoughness":{
				"baseColorFactor":[
					0.04352255165576935,
					0.11614026129245758,
					0.8000000715255737,
					1
				],
				"metallicFactor":0,
				"roughnessFactor":0.5
			}
		},
		{
			"doubleSided":true,
			"name":"Clip",
			"pbrMetallicRoughness":{
				"baseColorFactor":[
					0.06071930378675461,
					0.06071930378675461,
					0.06071930378675461,
					1
				],
				"metallicFactor":0,
				"roughnessFactor":0.5
			}
		},
		{
			"doubleSided":true,
			"name":"Material.001",
			"pbrMetallicRoughness":{
				"baseColorFactor":[
					0.003642068477347493,
					0.003642068477347493,
					0.003642068477347493,
					1
				],
				"metallicFactor":0
			}
		},
		{
			"doubleSided":true,
			"name":"Glass",
			"pbrMetallicRoughness":{
				"baseColorFactor":[
					0.5596112012863159,
					1,
					1,
					1
				],
				"metallicFactor":0,
				"roughnessFactor":0.5
			}
		},
		{
			"doubleSided":true,
			"name":"Skin",
			"pbrMetallicRoughness":{
				"baseColorFactor":[
					0.03735997900366783,
					0.012655874714255333,
					0.0033210432156920433,
					1
				],
				"metallicFactor":0
			}
		},
		{
			"doubleSided":true,
			"name":"T-Shirt",
			"pbrMetallicRoughness":{
				"baseColorFactor":[
					0.800000011920929,
					0.800000011920929,
					0.800000011920929,
					1
				],
				"metallicFactor":0
			}
		},
		{
			"doubleSided":true,
			"name":"Trousers",
			"pbrMetallicRoughness":{
				"baseColorFactor":[
					0.008075723424553871,
					0.008075723424553871,
					0.008075723424553871,
					1
				],
				"metallicFactor":0
			}
		},
		{
			"doubleSided":true,
			"name":"Shoes",
			"pbrMetallicRoughness":{
				"baseColorFactor":[
					0.02037876844406128,
					0.02037876844406128,
					0.02037876844406128,
					1
				],
				"metallicFactor":0,
				"roughnessFactor":0.5
			}
		}
	],
	"meshes":[
		{
			"name":"Cube.002",
			"primitives":[
				{
					"attributes":{
						"POSITION":0,
						"NORMAL":1,
						"TEXCOORD_0":2
					},
					"indices":3,
					"material":0
				},
				{
					"attributes":{
						"POSITION":4,
						"NORMAL":5,
						"TEXCOORD_0":6
					},
					"indices":7,
					"material":1
				}
			]
		},
		{
			"name":"Cube.004",
			"primitives":[
				{
					"attributes":{
						"POSITION":8,
						"NORMAL":9,
						"TEXCOORD_0":10
					},
					"indices":11,
					"material":2
				},
				{
					"attributes":{
						"POSITION":12,
						"NORMAL":13,
						"TEXCOORD_0":14
					},
					"indices":15,
					"material":3
				},
				{
					"attributes":{
						"POSITION":16,
						"NORMAL":17,
						"TEXCOORD_0":18
					},
					"indices":19,
					"material":4
				}
			]
		},
		{
			"name":"Cube.005",
			"primitives":[
				{
					"attributes":{
						"POSITION":20,
						"NORMAL":21,
						"TEXCOORD_0":22
					},
					"indices":23,
					"material":5
				},
				{
					"attributes":{
						"POSITION":24,
						"NORMAL":25,
						"TEXCOORD_0":26
					},
					"indices":27,
					"material":6
				}
			]
		},
		{
			"name":"Cube.001",
			"primitives":[
				{
					"attributes":{
						"POSITION":28,
						"NORMAL":29,
						"TEXCOORD_0":30
					},
					"indices":31,
					"material":7
				},
				{
					"attributes":{
						"POSITION":32,
						"NORMAL":33,
						"TEXCOORD_0":34
					},
					"indices":35,
					"material":8
				},
				{
					"attributes":{
						"POSITION":36,
						"NORMAL":37,
						"TEXCOORD_0":38
					},
					"indices":39,
					"material":9
				},
				{
					"attributes":{
						"POSITION":40,
						"NORMAL":41,
						"TEXCOORD_0":42
					},
					"indices":43,
					"material":10
				}
			]
		}
	],
	"skins":[
		{
			"inverseBindMatrices":44,
			"joints":[
				13,
				12,
				5,
				4,
				8,
				7,
				6,
				11,
				10,
				9,
				16,
				15,
				14,
				19,
				18,
				17
			],
			"name":"Armature"
		}
	],
	"accessors":[
		{
			"bufferView":0,
			"componentType":5126,
			"count":44,
			"max":[
				0.006908237934112549,
				0.12098294496536255,
				0.07450832426548004
			],
			"min":[
				-0.01375192403793335,
				-0.12098294496536255,
				-0.07450832426548004
			],
			"type":"VEC3"
		},
		{
			"bufferView":1,
			"componentType":5126,
			"count":44,
			"type":"VEC3"
		},
		{
			"bufferView":2,
			"componentType":5126,
			"count":44,
			"type":"VEC2"
		},
		{
			"bufferView":3,
			"componentType":5123,
			"count":78,
			"type":"SCALAR"
		},
		{
			"bufferView":4,
			"componentType":5126,
			"count":4,
			"max":[
				-6.455183029174805e-05,
				0.11662161350250244,
				0.06818486005067825
			],
			"min":[
				-6.455183029174805e-05,
				-0.11662161350250244,
				-0.06818486005067825
			],
			"type":"VEC3"
		},
		{
			"bufferView":5,
			"componentType":5126,
			"count":4,
			"type":"VEC3"
		},
		{
			"bufferView":6,
			"componentType":5126,
			"count":4,
			"type":"VEC2"
		},
		{
			"bufferView":7,
			"componentType":5123,
			"count":6,
			"type":"SCALAR"
		},
		{
			"bufferView":8,
			"componentType":5126,
			"count":24,
			"max":[
				1.4439260959625244,
				0.7447727918624878,
				1
			],
			"min":[
				-0.5560739040374756,
				-1.2552272081375122,
				-1
			],
			"type":"VEC3"
		},
		{
			"bufferView":9,
			"componentType":5126,
			"count":24,
			"type":"VEC3"
		},
		{
			"bufferView":10,
			"componentType":5126,
			"count":24,
			"type":"VEC2"
		},
		{
			"bufferView":11,
			"componentType":5123,
			"count":36,
			"type":"SCALAR"
		},
		{
			"bufferView":12,
			"componentType":5126,
			"count":52,
			"max":[
				0.5292494297027588,
				0.8576688766479492,
				1.216884732246399
			],
			"min":[
				-1.90451979637146,
				-1.5761005878448486,
				-1.216884732246399
			],
			"type":"VEC3"
		},
		{
			"bufferView":13,
			"componentType":5126,
			"count":52,
			"type":"VEC3"
		},
		{
			"bufferView":14,
			"componentType":5126,
			"count":52,
			"type":"VEC2"
		},
		{
			"bufferView":15,
			"componentType":5123,
			"count":126,
			"type":"SCALAR"
		},
		{
			"bufferView":16,
			"componentType":5126,
			"count":20,
			"max":[
				3.2379584312438965,
				0.8576688766479492,
				0.4056282341480255
			],
			"min":[
				0.5292494297027588,
				0.6073932647705078,
				-0.4056282341480255
			],
			"type":"VEC3"
		},
		{
			"bufferView":17,
			"componentType":5126,
			"count":20,
			"type":"VEC3"
		},
		{
			"bufferView":18,
			"componentType":5126,
			"count":20,
			"type":"VEC2"
		},
		{
			"bufferView":19,
			"componentType":5123,
			"count":30,
			"type":"SCALAR"
		},
		{
			"bufferView":20,
			"componentType":5126,
			"count":762,
			"max":[
				3.371753215789795,
				1.0222705602645874,
				3.3545210361480713
			],
			"min":[
				-22.896602630615234,
				-0.9777294993400574,
				-3.354520559310913
			],
			"type":"VEC3"
		},
		{
			"bufferView":21,
			"componentType":5126,
			"count":762,
			"type":"VEC3"
		},
		{
			"bufferView":22,
			"componentType":5126,
			"count":762,
			"type":"VEC2"
		},
		{
			"bufferView":23,
			"componentType":5123,
			"count":1974,
			"type":"SCALAR"
		},
		{
			"bufferView":24,
			"componentType":5126,
			"count":34,
			"max":[
				3.371753215789795,
				0.8078923225402832,
				2.4424431324005127
			],
			"min":[
				1.3520814180374146,
				-0.7633523941040039,
				-2.4424426555633545
			],
			"type":"VEC3"
		},
		{
			"bufferView":25,
			"componentType":5126,
			"count":34,
			"type":"VEC3"
		},
		{
			"bufferView":26,
			"componentType":5126,
			"count":34,
			"type":"VEC2"
		},
		{
			"bufferView":27,
			"componentType":5123,
			"count":78,
			"type":"SCALAR"
		},
		{
			"bufferView":28,
			"componentType":5126,
			"count":206,
			"max":[
				0.49542903900146484,
				1.1577928066253662,
				0.5667392015457153
			],
			"min":[
				-0.4523846209049225,
				-0.3575466573238373,
				-0.5402652025222778
			],
			"type":"VEC3"
		},
		{
			"bufferView":29,
			"componentType":5126,
			"count":206,
			"type":"VEC3"
		},
		{
			"bufferView":30,
			"componentType":5126,
			"count":206,
			"type":"VEC2"
		},
		{
			"bufferView":31,
			"componentType":5123,
			"count":336,
			"type":"SCALAR"
		},
		{
			"bufferView":32,
			"componentType":5126,
			"count":88,
			"max":[
				0.20294973254203796,
				0.2977321147918701,
				0.49858954548835754
			],
			"min":[
				-0.2749415636062622,
				-0.15921154618263245,
				-0.5190845727920532
			],
			"type":"VEC3"
		},
		{
			"bufferView":33,
			"componentType":5126,
			"count":88,
			"type":"VEC3"
		},
		{
			"bufferView":34,
			"componentType":5126,
			"count":88,
			"type":"VEC2"
		},
		{
			"bufferView":35,
			"componentType":5123,
			"count":132,
			"type":"SCALAR"
		},
		{
			"bufferView":36,
			"componentType":5126,
			"count":88,
			"max":[
				0.22332987189292908,
				-0.14637893438339233,
				0.35288551449775696
			],
			"min":[
				-0.2729352116584778,
				-0.5232886075973511,
				-0.3825952410697937
			],
			"type":"VEC3"
		},
		{
			"bufferView":37,
			"componentType":5126,
			"count":88,
			"type":"VEC3"
		},
		{
			"bufferView":38,
			"componentType":5126,
			"count":88,
			"type":"VEC2"
		},
		{
			"bufferView":39,
			"componentType":5123,
			"count":132,
			"type":"SCALAR"
		},
		{
			"bufferView":40,
			"componentType":5126,
			"count":40,
			"max":[
				0.21440120041370392,
				-0.47599053382873535,
				0.31112056970596313
			],
			"min":[
				-0.26353657245635986,
				-0.6124379634857178,
				-0.32258790731430054
			],
			"type":"VEC3"
		},
		{
			"bufferView":41,
			"componentType":5126,
			"count":40,
			"type":"VEC3"
		},
		{
			"bufferView":42,
			"componentType":5126,
			"count":40,
			"type":"VEC2"
		},
		{
			"bufferView":43,
			"componentType":5123,
			"count":60,
			"type":"SCALAR"
		},
		{
			"bufferView":44,
			"componentType":5126,
			"count":16,
			"type":"MAT4"
		}
	],
	"bufferViews":[
		{
			"buffer":0,
			"byteLength":528,
			"byteOffset":0,
			"target":34962
		},
		{
			"buffer":0,
			"byteLength":528,
			"byteOffset":528,
			"target":34962
		},
		{
			"buffer":0,
			"byteLength":352,
			"byteOffset":1056,
			"target":34962
		},
		{
			"buffer":0,
			"byteLength":156,
			"byteOffset":1408,
			"target":34963
		},
		{
			"buffer":0,
			"byteLength":48,
			"byteOffset":1564,
			"target":34962
		},
		{
			"buffer":0,
			"byteLength":48,
			"byteOffset":1612,
			"target":34962
		},
		{
			"buffer":0,
			"byteLength":32,
			"byteOffset":1660,
			"target":34962
		},
		{
			"buffer":0,
			"byteLength":12,
			"byteOffset":1692,
			"target":34963
		},
		{
			"buffer":0,
			"byteLength":288,
			"byteOffset":1704,
			"target":34962
		},
		{
			"buffer":0,
			"byteLength":288,
			"byteOffset":1992,
			"target":34962
		},
		{
			"buffer":0,
			"byteLength":192,
			"byteOffset":2280,
			"target":34962
		},
		{
			"buffer":0,
			"byteLength":72,
			"byteOffset":2472,
			"target":34963
		},
		{
			"buffer":0,
			"byteLength":624,
			"byteOffset":2544,
			"target":34962
		},
		{
			"buffer":0,
			"byteLength":624,
			"byteOffset":3168,
			"target":34962
		},
		{
			"buffer":0,
			"byteLength":416,
			"byteOffset":3792,
			"target":34962
		},
		{
			"buffer":0,
			"byteLength":252,
			"byteOffset":4208,
			"target":34963
		},
		{
			"buffer":0,
			"byteLength":240,
			"byteOffset":4460,
			"target":34962
		},
		{
			"buffer":0,
			"byteLength":240,
			"byteOffset":4700,
			"target":34962
		},
		{
			"buffer":0,
			"byteLength":160,
			"byteOffset":4940,
			"target":34962
		},
		{
			"buffer":0,
			"byteLength":60,
			"byteOffset":5100,
			"target":34963
		},
		{
			"buffer":0,
			"byteLength":9144,
			"byteOffset":5160,
			"target":34962
		},
		{
			"buffer":0,
			"byteLength":9144,
			"byteOffset":14304,
			"target":34962
		},
		{
			"buffer":0,
			"byteLength":6096,
			"byteOffset":23448,
			"target":34962
		},
		{
			"buffer":0,
			"byteLength":3948,
			"byteOffset":29544,
			"target":34963
		},
		{
			"buffer":0,
			"byteLength":408,
			"byteOffset":33492,
			"target":34962
		},
		{
			"buffer":0,
			"byteLength":408,
			"byteOffset":33900,
			"target":34962
		},
		{
			"buffer":0,
			"byteLength":272,
			"byteOffset":34308,
			"target":34962
		},
		{
			"buffer":0,
			"byteLength":156,
			"byteOffset":34580,
			"target":34963
		},
		{
			"buffer":0,
			"byteLength":2472,
			"byteOffset":34736,
			"target":34962
		},
		{
			"buffer":0,
			"byteLength":2472,
			"byteOffset":37208,
			"target":34962
		},
		{
			"buffer":0,
			"byteLength":1648,
			"byteOffset":39680,
			"target":34962
		},
		{
			"buffer":0,
			"byteLength":672,
			"byteOffset":41328,
			"target":34963
		},
		{
			"buffer":0,
			"byteLength":1056,
			"byteOffset":42000,
			"target":34962
		},
		{
			"buffer":0,
			"byteLength":1056,
			"byteOffset":43056,
			"target":34962
		},
		{
			"buffer":0,
			"byteLength":704,
			"byteOffset":44112,
			"target":34962
		},
		{
			"buffer":0,
			"byteLength":264,
			"byteOffset":44816,
			"target":34963
		},
		{
			"buffer":0,
			"byteLength":1056,
			"byteOffset":45080,
			"target":34962
		},
		{
			"buffer":0,
			"byteLength":1056,
			"byteOffset":46136,
			"target":34962
		},
		{
			"buffer":0,
			"byteLength":704,
			"byteOffset":47192,
			"target":34962
		},
		{
			"buffer":0,
			"byteLength":264,
			"byteOffset":47896,
			"target":34963
		},
		{
			"buffer":0,
			"byteLength":480,
			"byteOffset":48160,
			"target":34962
		},
		{
			"buffer":0,
			"byteLength":480,
			"byteOffset":48640,
			"target":34962
		},
		{
			"buffer":0,
			"byteLength":320,
			"byteOffset":49120,
			"target":34962
		},
		{
			"buffer":0,
			"byteLength":120,
			"byteOffset":49440,
			"target":34963
		},
		{
			"buffer":0,
			"byteLength":1024,
			"byteOffset":49560
		}
	],
	"buffers":[
		{
			"byteLength":50584,
			"uri":"data:application/octet-stream;base64,"
		}
	]
}
