{
	"asset":{
		"generator":"Khronos glTF Blender I/O v3.6.27",
		"version":"2.0"
	},
	"scene":0,
	"scenes":[
		{
			"name":"Scene",
			"nodes":[
				0,
				1,
				2,
				3,
				4,
				5,
				6,
				7,
				8,
				9,
				10,
				11
			]
		}
	],
	"nodes":[
		{
			"mesh":0,
			"name":"Violet Cube",
			"scale":[
				0.09125059098005295,
				0.09125059098005295,
				0.09125059098005295
			],
			"translation":[
				-0.0016603171825408936,
				2.346153497695923,
				-0.33669793605804443
			]
		},
		{
			"mesh":1,
			"name":"Yellow Cube",
			"rotation":[
				0,
				-0.10812605172395706,
				0,
				0.994137167930603
			],
			"scale":[
				0.09125059098005295,
				0.09125059098005295,
				0.09125059098005295
			],
			"translation":[
				-0.001660376787185669,
				2.346153497695923,
				-0.33669793605804443
			]
		},
		{
			"mesh":2,
			"name":"Pink Cube",
			"rotation":[
				0,
				0.1283438354730606,
				0,
				0.9917297959327698
			],
			"scale":[
				0.09125059843063354,
				0.09125059098005295,
				0.09125059843063354
			],
			"translation":[
				-0.0016603469848632812,
				2.346153497695923,
				-0.33669793605804443
			]
		},
		{
			"mesh":3,
			"name":"Blue Cube",
			"rotation":[
				0,
				-0.09655370563268661,
				0,
				0.9953277707099915
			],
			"scale":[
				0.09125059843063354,
				0.09125059098005295,
				0.09125059843063354
			],
			"translation":[
				-0.0016603171825408936,
				2.346153497695923,
				-0.33669793605804443
			]
		},
		{
			"mesh":4,
			"name":"Teal Cube",
			"rotation":[
				0,
				-0.0026439600624144077,
				0,
				0.9999966025352478
			],
			"scale":[
				0.09125058352947235,
				0.09125059098005295,
				0.09125058352947235
			],
			"translation":[
				-0.0016603171825408936,
				2.346153497695923,
				-0.3366979658603668
			]
		},
		{
			"mesh":5,
			"name":"Purple Cube.001",
			"rotation":[
				0,
				-0.10924948751926422,
				0,
				0.9940144419670105
			],
			"scale":[
				0.09125059843063354,
				0.09125059098005295,
				0.09125059843063354
			],
			"translation":[
				-0.0016603171825408936,
				2.346153497695923,
				-0.33669793605804443
			]
		},
		{
			"mesh":6,
			"name":"Taxi Orange Cube",
			"rotation":[
				0,
				0.14501242339611053,
				0,
				0.9894299507141113
			],
			"scale":[
				0.09125058352947235,
				0.09125059098005295,
				0.09125058352947235
			],
			"translation":[
				-0.0016603469848632812,
				2.346153497695923,
				-0.33669790625572205
			]
		},
		{
			"mesh":7,
			"name":"Java Paper",
			"rotation":[
				0.7071068286895752,
				0,
				0,
				0.7071068286895752
			],
			"translation":[
				-0.0016603469848632812,
				2.346153497695923,
				-0.33669793605804443
			]
		},
		{
			"mesh":8,
			"name":"Cube.003",
			"scale":[
				0.023291150107979774,
				0.057297345250844955,
				0.000681358331348747
			],
			"translation":[
				-0.0016603171825408936,
				2.346153974533081,
				-0.33669793605804443
			]
		},
		{
			"mesh":9,
			"name":"Cube",
			"scale":[
				1.4987200498580933,
				1,
				1
			],
			"translation":[
				-0.0016603469848632812,
				2.346153497695923,
				-0.33669793605804443
			]
		},
		{
			"mesh":10,
			"name":"Java Paper.001",
			"rotation":[
				0.7071068286895752,
				0,
				0,
				0.7071068286895752
			],
			"translation":[
				-0.0016603469848632812,
				2.346153497695923,
				-0.33669793605804443
			]
		},
		{
			"mesh":11,
			"name":"Cube.001",
			"scale":[
				0.023291150107979774,
				0.057297345250844955,
				0.000681358331348747
			],
			"translation":[
				-0.0016603469848632812,
				2.346153974533081,
				-0.33669793605804443
			]
		}
	],
	"materials":[
		{
			"doubleSided":true,
			"name":"Material.011",
			"pbrMetallicRoughness":{
				"baseColorFactor":[
					0.46463924646377563,
					0.18784946203231812,
					0.8000000715255737,
					1
				],
				"metallicFactor":0
			}
		},
		{
			"doubleSided":true,
			"name":"Material.012",
			"pbrMetallicRoughness":{
				"baseColorFactor":[
					0.8000000715255737,
					0.5114465951919556,
					0,
					1
				],
				"metallicFactor":0
			}
		},
		{
			"doubleSided":true,
			"name":"Material.013",
			"pbrMetallicRoughness":{
				"baseColorFactor":[
					0.7753003239631653,
					0.08769223839044571,
					0.8000000715255737,
					1
				],
				"metallicFactor":0,
				"roughnessFactor":0.5
			}
		},
		{
			"doubleSided":true,
			"name":"Material.014",
			"pbrMetallicRoughness":{
				"baseColorFactor":[
					0,
					0.16933481395244598,
					0.8000000715255737,
					1
				],
				"metallicFactor":0,
				"roughnessFactor":0.5
			}
		},
		{
			"doubleSided":true,
			"name":"Material.017",
			"pbrMetallicRoughness":{
				"baseColorFactor":[
					0.14671912789344788,
					0.8000000715255737,
					0.2623741626739502,
					1
				],
				"metallicFactor":0
			}
		},
		{
			"doubleSided":true,
			"name":"Material.016",
			"pbrMetallicRoughness":{
				"baseColorFactor":[
					0.08797048777341843,
					0.04029867798089981,
					0.8000000715255737,
					1
				],
				"metallicFactor":0
			}
		},
		{
			"doubleSided":true,
			"name":"Material.015",
			"pbrMetallicRoughness":{
				"baseColorFactor":[
					0.8000000715255737,
					0.23549523949623108,
					0,
					1
				],
				"metallicFactor":0
			}
		},
		{
			"doubleSided":true,
			"name":"Material.003",
			"pbrMetallicRoughness":{
				"baseColorTexture":{
					"index":0
				},
				"metallicFactor":0
			}
		},
		{
			"doubleSided":true,
			"name":"Material.042",
			"pbrMetallicRoughness":{
				"baseColorFactor":[
					0.800000011920929,
					0.6948959231376648,
					0.30600640177726746,
					1
				],
				"metallicFactor":0,
				"roughnessFactor":0.5
			}
		},
		{
			"doubleSided":true,
			"name":"Material.045",
			"pbrMetallicRoughness":{
				"baseColorFactor":[
					0.23301224410533905,
					0.1677069365978241,
					0.11746318638324738,
					1
				],
				"metallicFactor":0
			}
		},
		{
			"doubleSided":true,
			"name":"Material.046",
			"pbrMetallicRoughness":{
				"baseColorTexture":{
					"index":1
				},
				"metallicFactor":0
			}
		},
		{
			"doubleSided":true,
			"name":"Material.047",
			"pbrMetallicRoughness":{
				"baseColorFactor":[
					0.800000011920929,
					0.6948959231376648,
					0.30600640177726746,
					1
				],
				"metallicFactor":0,
				"roughnessFactor":0.5
			}
		}
	],
	"meshes":[
		{
			"name":"Cube.009",
			"primitives":[
				{
					"attributes":{
						"POSITION":0,
						"NORMAL":1,
						"TEXCOORD_0":2
					},
					"indices":3,
					"material":0
				}
			]
		},
		{
			"name":"Cube.010",
			"primitives":[
				{
					"attributes":{
						"POSITION":4,
						"NORMAL":5,
						"TEXCOORD_0":6
					},
					"indices":3,
					"material":1
				}
			]
		},
		{
			"name":"Cube.011",
			"primitives":[
				{
					"attributes":{
						"POSITION":7,
						"NORMAL":8,
						"TEXCOORD_0":9
					},
					"indices":3,
					"material":2
				}
			]
		},
		{
			"name":"Cube.012",
			"primitives":[
				{
					"attributes":{
						"POSITION":10,
						"NORMAL":11,
						"TEXCOORD_0":12
					},
					"indices":3,
					"material":3
				}
			]
		},
		{
			"name":"Cube.014",
			"primitives":[
				{
					"attributes":{
						"POSITION":13,
						"NORMAL":14,
						"TEXCOORD_0":15
					},
					"indices":3,
					"material":4
				}
			]
		},
		{
			"name":"Cube.015",
			"primitives":[
				{
					"attributes":{
						"POSITION":16,
						"NORMAL":17,
						"TEXCOORD_0":18
					},
					"indices":3,
					"material":5
				}
			]
		},
		{
			"name":"Cube.016",
			"primitives":[
				{
					"attributes":{
						"POSITION":19,
						"NORMAL":20,
						"TEXCOORD_0":21
					},
					"indices":3,
					"material":6
				}
			]
		},
		{
			"name":"Cube.023",
			"primitives":[
				{
					"attributes":{
						"POSITION":22,
						"NORMAL":23,
						"TEXCOORD_0":24
					},
					"indices":3,
					"material":7
				}
			]
		},
		{
			"name":"Cube.032",
			"primitives":[
				{
					"attributes":{
						"POSITION":25,
						"NORMAL":26,
						"TEXCOORD_0":27
					},
					"indices":3,
					"material":8
				}
			]
		},
		{
			"name":"Cube.003",
			"primitives":[
				{
					"attributes":{
						"POSITION":28,
						"NORMAL":29,
						"TEXCOORD_0":30
					},
					"indices":31,
					"material":9
				}
			]
		},
		{
			"name":"Cube.004",
			"primitives":[
				{
					"attributes":{
						"POSITION":32,
						"NORMAL":33,
						"TEXCOORD_0":34
					},
					"indices":3,
					"material":10
				}
			]
		},
		{
			"name":"Cube.005",
			"primitives":[
				{
					"attributes":{
						"POSITION":35,
						"NORMAL":36,
						"TEXCOORD_0":37
					},
					"indices":3,
					"material":11
				}
			]
		}
	],
	"textures":[
		{
			"sampler":0,
			"source":0
		},
		{
			"sampler":0,
			"source":1
		}
	],
	"images":[
		{
			"bufferView":25,
			"mimeType":"image/jpeg",
			"name":"FL Studio"
		},
		{
			"bufferView":36,
			"mimeType":"image/jpeg",
			"name":"Audacity"
		}
	],
	"accessors":[
		{
			"bufferView":0,
			"componentType":5126,
			"count":24,
			"max":[
				-2.294215679168701,
				3.208925247192383,
				5.85841703414917
			],
			"min":[
				-4.294215679168701,
				1.2089252471923828,
				3.85841703414917
			],
			"type":"VEC3"
		},
		{
			"bufferView":1,
			"componentType":5126,
			"count":24,
			"type":"VEC3"
		},
		{
			"bufferView":2,
			"componentType":5126,
			"count":24,
			"type":"VEC2"
		},
		{
			"bufferView":3,
			"componentType":5123,
			"count":36,
			"type":"SCALAR"
		},
		{
			"bufferView":4,
			"componentType":5126,
			"count":24,
			"max":[
				-1.2184970378875732,
				5.192667007446289,
				6.517709732055664
			],
			"min":[
				-3.2184972763061523,
				3.192667007446289,
				4.517709732055664
			],
			"type":"VEC3"
		},
		{
			"bufferView":5,
			"componentType":5126,
			"count":24,
			"type":"VEC3"
		},
		{
			"bufferView":6,
			"componentType":5126,
			"count":24,
			"type":"VEC2"
		},
		{
			"bufferView":7,
			"componentType":5126,
			"count":24,
			"max":[
				-3.331477165222168,
				7.181280136108398,
				4.768256187438965
			],
			"min":[
				-5.331477165222168,
				5.181280136108398,
				2.768256187438965
			],
			"type":"VEC3"
		},
		{
			"bufferView":8,
			"componentType":5126,
			"count":24,
			"type":"VEC3"
		},
		{
			"bufferView":9,
			"componentType":5126,
			"count":24,
			"type":"VEC2"
		},
		{
			"bufferView":10,
			"componentType":5126,
			"count":24,
			"max":[
				-1.408355474472046,
				9.16364860534668,
				6.1591925621032715
			],
			"min":[
				-3.408355474472046,
				7.16364860534668,
				4.1591925621032715
			],
			"type":"VEC3"
		},
		{
			"bufferView":11,
			"componentType":5126,
			"count":24,
			"type":"VEC3"
		},
		{
			"bufferView":12,
			"componentType":5126,
			"count":24,
			"type":"VEC2"
		},
		{
			"bufferView":13,
			"componentType":5126,
			"count":24,
			"max":[
				4.44077205657959,
				7.13774299621582,
				5.7286272048950195
			],
			"min":[
				2.44077205657959,
				5.13774299621582,
				3.7286274433135986
			],
			"type":"VEC3"
		},
		{
			"bufferView":14,
			"componentType":5126,
			"count":24,
			"type":"VEC3"
		},
		{
			"bufferView":15,
			"componentType":5126,
			"count":24,
			"type":"VEC2"
		},
		{
			"bufferView":16,
			"componentType":5126,
			"count":24,
			"max":[
				5.222428321838379,
				5.149127960205078,
				5.092364311218262
			],
			"min":[
				3.2224276065826416,
				3.149127960205078,
				3.0923638343811035
			],
			"type":"VEC3"
		},
		{
			"bufferView":17,
			"componentType":5126,
			"count":24,
			"type":"VEC3"
		},
		{
			"bufferView":18,
			"componentType":5126,
			"count":24,
			"type":"VEC2"
		},
		{
			"bufferView":19,
			"componentType":5126,
			"count":24,
			"max":[
				2.739006757736206,
				3.165384292602539,
				6.592652320861816
			],
			"min":[
				0.7390072345733643,
				1.1653861999511719,
				4.592652320861816
			],
			"type":"VEC3"
		},
		{
			"bufferView":20,
			"componentType":5126,
			"count":24,
			"type":"VEC3"
		},
		{
			"bufferView":21,
			"componentType":5126,
			"count":24,
			"type":"VEC2"
		},
		{
			"bufferView":22,
			"componentType":5126,
			"count":24,
			"max":[
				0.42911702394485474,
				0.6740933656692505,
				0.3443276286125183
			],
			"min":[
				0.1651802659034729,
				0.6731630563735962,
				-0.06480526924133301
			],
			"type":"VEC3"
		},
		{
			"bufferView":23,
			"componentType":5126,
			"count":24,
			"type":"VEC3"
		},
		{
			"bufferView":24,
			"componentType":5126,
			"count":24,
			"type":"VEC2"
		},
		{
			"bufferView":26,
			"componentType":5126,
			"count":24,
			"max":[
				13.636177062988281,
				1.8027210235595703,
				989.973876953125
			],
			"min":[
				11.636177062988281,
				-0.1972789764404297,
				987.973876953125
			],
			"type":"VEC3"
		},
		{
			"bufferView":27,
			"componentType":5126,
			"count":24,
			"type":"VEC3"
		},
		{
			"bufferView":28,
			"componentType":5126,
			"count":24,
			"type":"VEC2"
		},
		{
			"bufferView":29,
			"componentType":5126,
			"count":44,
			"max":[
				0.9436509013175964,
				0.11168134212493896,
				0.673365592956543
			],
			"min":[
				-1.0563491582870483,
				-0.12314848601818085,
				3.0279159545898438e-05
			],
			"type":"VEC3"
		},
		{
			"bufferView":30,
			"componentType":5126,
			"count":44,
			"type":"VEC3"
		},
		{
			"bufferView":31,
			"componentType":5126,
			"count":44,
			"type":"VEC2"
		},
		{
			"bufferView":32,
			"componentType":5123,
			"count":84,
			"type":"SCALAR"
		},
		{
			"bufferView":33,
			"componentType":5126,
			"count":24,
			"max":[
				-0.17132161557674408,
				0.6740933656692505,
				0.3443276286125183
			],
			"min":[
				-0.4352583885192871,
				0.6731630563735962,
				-0.06480526924133301
			],
			"type":"VEC3"
		},
		{
			"bufferView":34,
			"componentType":5126,
			"count":24,
			"type":"VEC3"
		},
		{
			"bufferView":35,
			"componentType":5126,
			"count":24,
			"type":"VEC2"
		},
		{
			"bufferView":37,
			"componentType":5126,
			"count":24,
			"max":[
				-12.143512725830078,
				1.8027210235595703,
				989.973876953125
			],
			"min":[
				-14.143512725830078,
				-0.1972789764404297,
				987.973876953125
			],
			"type":"VEC3"
		},
		{
			"bufferView":38,
			"componentType":5126,
			"count":24,
			"type":"VEC3"
		},
		{
			"bufferView":39,
			"componentType":5126,
			"count":24,
			"type":"VEC2"
		}
	],
	"bufferViews":[
		{
			"buffer":0,
			"byteLength":288,
			"byteOffset":0,
			"target":34962
		},
		{
			"buffer":0,
			"byteLength":288,
			"byteOffset":288,
			"target":34962
		},
		{
			"buffer":0,
			"byteLength":192,
			"byteOffset":576,
			"target":34962
		},
		{
			"buffer":0,
			"byteLength":72,
			"byteOffset":768,
			"target":34963
		},
		{
			"buffer":0,
			"byteLength":288,
			"byteOffset":840,
			"target":34962
		},
		{
			"buffer":0,
			"byteLength":288,
			"byteOffset":1128,
			"target":34962
		},
		{
			"buffer":0,
			"byteLength":192,
			"byteOffset":1416,
			"target":34962
		},
		{
			"buffer":0,
			"byteLength":288,
			"byteOffset":1608,
			"target":34962
		},
		{
			"buffer":0,
			"byteLength":288,
			"byteOffset":1896,
			"target":34962
		},
		{
			"buffer":0,
			"byteLength":192,
			"byteOffset":2184,
			"target":34962
		},
		{
			"buffer":0,
			"byteLength":288,
			"byteOffset":2376,
			"target":34962
		},
		{
			"buffer":0,
			"byteLength":288,
			"byteOffset":2664,
			"target":34962
		},
		{
			"buffer":0,
			"byteLength":192,
			"byteOffset":2952,
			"target":34962
		},
		{
			"buffer":0,
			"byteLength":288,
			"byteOffset":3144,
			"target":34962
		},
		{
			"buffer":0,
			"byteLength":288,
			"byteOffset":3432,
			"target":34962
		},
		{
			"buffer":0,
			"byteLength":192,
			"byteOffset":3720,
			"target":34962
		},
		{
			"buffer":0,
			"byteLength":288,
			"byteOffset":3912,
			"target":34962
		},
		{
			"buffer":0,
			"byteLength":288,
			"byteOffset":4200,
			"target":34962
		},
		{
			"buffer":0,
			"byteLength":192,
			"byteOffset":4488,
			"target":34962
		},
		{
			"buffer":0,
			"byteLength":288,
			"byteOffset":4680,
			"target":34962
		},
		{
			"buffer":0,
			"byteLength":288,
			"byteOffset":4968,
			"target":34962
		},
		{
			"buffer":0,
			"byteLength":192,
			"byteOffset":5256,
			"target":34962
		},
		{
			"buffer":0,
			"byteLength":288,
			"byteOffset":5448,
			"target":34962
		},
		{
			"buffer":0,
			"byteLength":288,
			"byteOffset":5736,
			"target":34962
		},
		{
			"buffer":0,
			"byteLength":192,
			"byteOffset":6024,
			"target":34962
		},
		{
			"buffer":0,
			"byteLength":5414,
			"byteOffset":6216
		},
		{
			"buffer":0,
			"byteLength":288,
			"byteOffset":11632,
			"target":34962
		},
		{
			"buffer":0,
			"byteLength":288,
			"byteOffset":11920,
			"target":34962
		},
		{
			"buffer":0,
			"byteLength":192,
			"byteOffset":12208,
			"target":34962
		},
		{
			"buffer":0,
			"byteLength":528,
			"byteOffset":12400,
			"target":34962
		},
		{
			"buffer":0,
			"byteLength":528,
			"byteOffset":12928,
			"target":34962
		},
		{
			"buffer":0,
			"byteLength":352,
			"byteOffset":13456,
			"target":34962
		},
		{
			"buffer":0,
			"byteLength":168,
			"byteOffset":13808,
			"target":34963
		},
		{
			"buffer":0,
			"byteLength":288,
			"byteOffset":13976,
			"target":34962
		},
		{
			"buffer":0,
			"byteLength":288,
			"byteOffset":14264,
			"target":34962
		},
		{
			"buffer":0,
			"byteLength":192,
			"byteOffset":14552,
			"target":34962
		},
		{
			"buffer":0,
			"byteLength":5548,
			"byteOffset":14744
		},
		{
			"buffer":0,
			"byteLength":288,
			"byteOffset":20292,
			"target":34962
		},
		{
			"buffer":0,
			"byteLength":288,
			"byteOffset":20580,
			"target":34962
		},
		{
			"buffer":0,
			"byteLength":192,
			"byteOffset":20868,
			"target":34962
		}
	],
	"samplers":[
		{
			"magFilter":9729,
			"minFilter":9987
		}
	],
	"buffers":[
		{
			"byteLength":21060,
			"uri":"data:application/octet-stream;base64,"
		}
	]
}
