{
	"asset":{
		"generator":"Khronos glTF Blender I/O v3.6.27",
		"version":"2.0"
	},
	"scene":0,
	"scenes":[
		{
			"name":"Scene",
			"nodes":[
				0
			]
		}
	],
	"nodes":[
		{
			"mesh":0,
			"name":"Cube"
		}
	],
	"materials":[
		{
			"doubleSided":true,
			"name":"Rail bars",
			"pbrMetallicRoughness":{
				"baseColorFactor":[
					0.04445452243089676,
					0.04445452243089676,
					0.04445452243089676,
					1
				],
				"metallicFactor":0
			}
		},
		{
			"doubleSided":true,
			"name":"Board",
			"pbrMetallicRoughness":{
				"baseColorFactor":[
					0.03310253843665123,
					0.01770850643515587,
					0.007510257884860039,
					1
				],
				"metallicFactor":0,
				"roughnessFactor":0.5
			}
		}
	],
	"meshes":[
		{
			"name":"Cube",
			"primitives":[
				{
					"attributes":{
						"POSITION":0,
						"NORMAL":1,
						"TEXCOORD_0":2
					},
					"indices":3,
					"material":0
				},
				{
					"attributes":{
						"POSITION":4,
						"NORMAL":5,
						"TEXCOORD_0":6
					},
					"indices":7,
					"material":1
				}
			]
		}
	],
	"accessors":[
		{
			"bufferView":0,
			"componentType":5126,
			"count":266,
			"max":[
				1.3813165426254272,
				1.6834280490875244,
				0.1997509002685547
			],
			"min":[
				-1.3813165426254272,
				-0.0011557042598724365,
				-0.1997509002685547
			],
			"type":"VEC3"
		},
		{
			"bufferView":1,
			"componentType":5126,
			"count":266,
			"type":"VEC3"
		},
		{
			"bufferView":2,
			"componentType":5126,
			"count":266,
			"type":"VEC2"
		},
		{
			"bufferView":3,
			"componentType":5123,
			"count":528,
			"type":"SCALAR"
		},
		{
			"bufferView":4,
			"componentType":5126,
			"count":16,
			"max":[
				1.3066238164901733,
				1.6123136281967163,
				0.02844085916876793
			],
			"min":[
				-1.3066238164901733,
				0.2553326487541199,
				-0.02844085916876793
			],
			"type":"VEC3"
		},
		{
			"bufferView":5,
			"componentType":5126,
			"count":16,
			"type":"VEC3"
		},
		{
			"bufferView":6,
			"componentType":5126,
			"count":16,
			"type":"VEC2"
		},
		{
			"bufferView":7,
			"componentType":5123,
			"count":24,
			"type":"SCALAR"
		}
	],
	"bufferViews":[
		{
			"buffer":0,
			"byteLength":3192,
			"byteOffset":0,
			"target":34962
		},
		{
			"buffer":0,
			"byteLength":3192,
			"byteOffset":3192,
			"target":34962
		},
		{
			"buffer":0,
			"byteLength":2128,
			"byteOffset":6384,
			"target":34962
		},
		{
			"buffer":0,
			"byteLength":1056,
			"byteOffset":8512,
			"target":34963
		},
		{
			"buffer":0,
			"byteLength":192,
			"byteOffset":9568,
			"target":34962
		},
		{
			"buffer":0,
			"byteLength":192,
			"byteOffset":9760,
			"target":34962
		},
		{
			"buffer":0,
			"byteLength":128,
			"byteOffset":9952,
			"target":34962
		},
		{
			"buffer":0,
			"byteLength":48,
			"byteOffset":10080,
			"target":34963
		}
	],
	"buffers":[
		{
			"byteLength":10128,
			"uri":"data:application/octet-stream;base64,"
		}
	]
}
