{
	"asset":{
		"generator":"Khronos glTF Blender I/O v3.6.27",
		"version":"2.0"
	},
	"scene":0,
	"scenes":[
		{
			"name":"Scene",
			"nodes":[
				0,
				1,
				19
			]
		}
	],
	"nodes":[
		{
			"mesh":0,
			"name":"Basketball Hoop",
			"scale":[
				0.9679492115974426,
				0.9679492115974426,
				0.9679492115974426
			],
			"translation":[
				0.013036161661148071,
				-0.33685868978500366,
				0.021252989768981934
			]
		},
		{
			"mesh":1,
			"name":"Ball",
			"rotation":[
				0.581676185131073,
				-0.2699596583843231,
				0.4262162446975708,
				0.6380552053451538
			],
			"scale":[
				0.27740728855133057,
				0.27740728855133057,
				0.27740728855133057
			],
			"translation":[
				0.4113004803657532,
				3.630918264389038,
				3.466263771057129
			]
		},
		{
			"mesh":2,
			"name":"Cube",
			"rotation":[
				0,
				-0.15525992214679718,
				0,
				0.9878737330436707
			],
			"scale":[
				5.722033977508545,
				5.722033977508545,
				5.722033977508545
			],
			"translation":[
				-2.144430160522461,
				2.1433887481689453,
				0.13608047366142273
			]
		},
		{
			"name":"Bone.003",
			"rotation":[
				0,
				1.7763568394002505e-15,
				0,
				1
			],
			"translation":[
				-1.9073486328125e-06,
				1.3401679992675781,
				-5.684341886080802e-14
			]
		},
		{
			"children":[
				3
			],
			"name":"Bone.002",
			"rotation":[
				0,
				1.7763568394002505e-15,
				0,
				1
			],
			"translation":[
				-1.9073486328125e-06,
				1.3401660919189453,
				-5.684341886080802e-14
			]
		},
		{
			"name":"Bone.006",
			"rotation":[
				7.027498844145949e-16,
				8.742284762774943e-08,
				-9.473132837588554e-16,
				1
			],
			"scale":[
				1,
				0.9999999403953552,
				0.9999999403953552
			],
			"translation":[
				-1.0242916914648958e-06,
				1.376386046409607,
				-2.5245017809538695e-07
			]
		},
		{
			"children":[
				5
			],
			"name":"Bone.005",
			"rotation":[
				-9.39274941089412e-16,
				-1.192093463942001e-07,
				9.47307989802935e-16,
				1
			],
			"scale":[
				1,
				0.9999999403953552,
				0.9999999403953552
			],
			"translation":[
				-3.773119487959775e-07,
				1.9196966886520386,
				-3.606764664709772e-07
			]
		},
		{
			"children":[
				6
			],
			"name":"Bone.004",
			"rotation":[
				0.7071067094802856,
				-1.1520229747929989e-07,
				-1.1520229037387253e-07,
				0.7071068286895752
			],
			"scale":[
				1,
				0.9999999403953552,
				0.9999999403953552
			],
			"translation":[
				-1.9073486328125e-06,
				1.3401660919189453,
				-5.684341886080802e-14
			]
		},
		{
			"name":"Bone.009",
			"rotation":[
				0,
				0,
				1.7763568394002505e-15,
				1
			],
			"translation":[
				-1.7632722801863565e-06,
				1.3763864040374756,
				1.9073486328125e-06
			]
		},
		{
			"children":[
				8
			],
			"name":"Bone.008",
			"rotation":[
				0,
				0,
				1.7763568394002505e-15,
				1
			],
			"translation":[
				-1.823436036829662e-06,
				1.9196966886520386,
				1.9073486328125e-06
			]
		},
		{
			"children":[
				9
			],
			"name":"Bone.007",
			"rotation":[
				-0.7071067690849304,
				1.2560739454502297e-15,
				1.2560739454502297e-15,
				0.7071067690849304
			],
			"translation":[
				-1.9073486328125e-06,
				1.3401660919189453,
				-5.684341886080802e-14
			]
		},
		{
			"children":[
				4,
				7,
				10
			],
			"name":"Bone.001",
			"rotation":[
				0,
				1.7763568394002505e-15,
				0,
				1
			],
			"translation":[
				-1.9073486328125e-06,
				1.0000019073486328,
				-5.684341886080802e-14
			]
		},
		{
			"children":[
				11
			],
			"name":"Bone",
			"rotation":[
				0,
				1.7763568394002505e-15,
				0,
				1
			],
			"translation":[
				-1.9073486328125e-06,
				1.9073486328125e-06,
				-5.684341886080802e-14
			]
		},
		{
			"name":"Bone.014",
			"rotation":[
				-2.439314267388251e-19,
				-1.4210847938938426e-14,
				1.4210827610147692e-14,
				1
			],
			"scale":[
				1,
				1,
				0.9999999403953552
			],
			"translation":[
				4.941760494148184e-07,
				0.6113619208335876,
				2.5944700610125437e-08
			]
		},
		{
			"children":[
				13
			],
			"name":"Bone.012",
			"rotation":[
				-0.6552016735076904,
				3.66814759990286e-13,
				2.551453519572533e-07,
				0.7554540038108826
			],
			"scale":[
				1,
				1,
				0.9999999403953552
			],
			"translation":[
				-1.3648260619447683e-06,
				1.152535080909729,
				-9.80758159130346e-07
			]
		},
		{
			"children":[
				14
			],
			"name":"Bone.010",
			"rotation":[
				1.4709226547893195e-07,
				0.6552019119262695,
				0.755453884601593,
				1.2757250544837007e-07
			],
			"scale":[
				1,
				1.0000001192092896,
				1.0000029802322388
			],
			"translation":[
				-1.9073486328125e-06,
				1.9073486328125e-06,
				-5.684341886080802e-14
			]
		},
		{
			"name":"Bone.015",
			"rotation":[
				-2.150669592637872e-23,
				-1.7763568394002505e-15,
				0,
				1
			],
			"translation":[
				-1.8573132365418132e-06,
				0.6113644242286682,
				1.2317752862145426e-07
			]
		},
		{
			"children":[
				16
			],
			"name":"Bone.013",
			"rotation":[
				-0.6586543321609497,
				-1.0328402121463718e-15,
				-1.0294205283800694e-15,
				0.7524456977844238
			],
			"scale":[
				0.9999999403953552,
				0.9999999403953552,
				0.9999999403953552
			],
			"translation":[
				5.003537495440469e-08,
				1.1548348665237427,
				-1.4323003938443435e-07
			]
		},
		{
			"children":[
				17
			],
			"name":"Bone.011",
			"rotation":[
				-0.7524456977844238,
				-1.180388692876861e-15,
				1.3279372794864686e-15,
				0.6586543321609497
			],
			"translation":[
				-1.9073486328125e-06,
				1.9073486328125e-06,
				-5.684341886080802e-14
			]
		},
		{
			"children":[
				2,
				12,
				15,
				18
			],
			"name":"Armature",
			"rotation":[
				0,
				0.7071068286895752,
				0,
				0.7071067690849304
			],
			"scale":[
				0.174763023853302,
				0.174763023853302,
				0.174763023853302
			],
			"translation":[
				0,
				2.817373275756836,
				2.875537872314453
			]
		}
	],
	"materials":[
		{
			"doubleSided":true,
			"name":"BackBoard",
			"pbrMetallicRoughness":{
				"metallicFactor":0
			}
		},
		{
			"doubleSided":true,
			"name":"Basketball Base",
			"pbrMetallicRoughness":{
				"baseColorFactor":[
					0.018849000334739685,
					0.018849000334739685,
					0.018849000334739685,
					1
				],
				"metallicFactor":0
			}
		},
		{
			"doubleSided":true,
			"name":"Rim",
			"pbrMetallicRoughness":{
				"baseColorFactor":[
					0.018849000334739685,
					0.018849000334739685,
					0.018849000334739685,
					1
				],
				"metallicFactor":0
			}
		},
		{
			"doubleSided":true,
			"name":"Main",
			"pbrMetallicRoughness":{
				"baseColorFactor":[
					0.004895545542240143,
					0.004895545542240143,
					0.004895545542240143,
					1
				],
				"metallicFactor":0,
				"roughnessFactor":0.5
			}
		},
		{
			"doubleSided":true,
			"name":"Lines",
			"pbrMetallicRoughness":{
				"baseColorFactor":[
					0.800000011920929,
					0.800000011920929,
					0.800000011920929,
					1
				],
				"metallicFactor":0,
				"roughnessFactor":0.5
			}
		},
		{
			"doubleSided":true,
			"name":"Skin",
			"pbrMetallicRoughness":{
				"baseColorFactor":[
					0.03735997900366783,
					0.012655874714255333,
					0.0033210432156920433,
					1
				],
				"metallicFactor":0
			}
		},
		{
			"doubleSided":true,
			"name":"T-Shirt",
			"pbrMetallicRoughness":{
				"baseColorFactor":[
					0.800000011920929,
					0.800000011920929,
					0.800000011920929,
					1
				],
				"metallicFactor":0
			}
		},
		{
			"doubleSided":true,
			"name":"Trousers",
			"pbrMetallicRoughness":{
				"baseColorFactor":[
					0.008075723424553871,
					0.008075723424553871,
					0.008075723424553871,
					1
				],
				"metallicFactor":0
			}
		},
		{
			"doubleSided":true,
			"name":"Shoes",
			"pbrMetallicRoughness":{
				"baseColorFactor":[
					0.8000000715255737,
					0.16822537779808044,
					0.025775495916604996,
					1
				],
				"metallicFactor":0,
				"roughnessFactor":0.5
			}
		}
	],
	"meshes":[
		{
			"name":"Cube",
			"primitives":[
				{
					"attributes":{
						"POSITION":0,
						"NORMAL":1,
						"TEXCOORD_0":2
					},
					"indices":3,
					"material":0
				},
				{
					"attributes":{
						"POSITION":4,
						"NORMAL":5,
						"TEXCOORD_0":6
					},
					"indices":7,
					"material":1
				},
				{
					"attributes":{
						"POSITION":8,
						"NORMAL":9,
						"TEXCOORD_0":10
					},
					"indices":11,
					"material":2
				}
			]
		},
		{
			"name":"Cube.001",
			"primitives":[
				{
					"attributes":{
						"POSITION":12,
						"NORMAL":13,
						"TEXCOORD_0":14
					},
					"indices":15,
					"material":3
				},
				{
					"attributes":{
						"POSITION":16,
						"NORMAL":17,
						"TEXCOORD_0":18
					},
					"indices":19,
					"material":4
				}
			]
		},
		{
			"name":"Cube.002",
			"primitives":[
				{
					"attributes":{
						"POSITION":20,
						"NORMAL":21,
						"TEXCOORD_0":22
					},
					"indices":23,
					"material":5
				},
				{
					"attributes":{
						"POSITION":24,
						"NORMAL":25,
						"TEXCOORD_0":26
					},
					"indices":27,
					"material":6
				},
				{
					"attributes":{
						"POSITION":28,
						"NORMAL":29,
						"TEXCOORD_0":30
					},
					"indices":31,
					"material":7
				},
				{
					"attributes":{
						"POSITION":32,
						"NORMAL":33,
						"TEXCOORD_0":34
					},
					"indices":35,
					"material":8
				}
			]
		}
	],
	"skins":[
		{
			"inverseBindMatrices":36,
			"joints":[
				12,
				11,
				4,
				3,
				7,
				6,
				5,
				10,
				9,
				8,
				15,
				14,
				13,
				18,
				17,
				16
			],
			"name":"Armature"
		}
	],
	"accessors":[
		{
			"bufferView":0,
			"componentType":5126,
			"count":64,
			"max":[
				1.5129811763763428,
				4.853496074676514,
				1.9603590965270996
			],
			"min":[
				-1.5126078128814697,
				2.8873870372772217,
				0.5524677634239197
			],
			"type":"VEC3"
		},
		{
			"bufferView":1,
			"componentType":5126,
			"count":64,
			"type":"VEC3"
		},
		{
			"bufferView":2,
			"componentType":5126,
			"count":64,
			"type":"VEC2"
		},
		{
			"bufferView":3,
			"componentType":5123,
			"count":108,
			"type":"SCALAR"
		},
		{
			"bufferView":4,
			"componentType":5126,
			"count":244,
			"max":[
				1.5129814147949219,
				5.655409336090088,
				0.9999206066131592
			],
			"min":[
				-1.5126078128814697,
				1.5020370483398438e-05,
				-1.0000793933868408
			],
			"type":"VEC3"
		},
		{
			"bufferView":5,
			"componentType":5126,
			"count":244,
			"type":"VEC3"
		},
		{
			"bufferView":6,
			"componentType":5126,
			"count":244,
			"type":"VEC2"
		},
		{
			"bufferView":7,
			"componentType":5123,
			"count":846,
			"type":"SCALAR"
		},
		{
			"bufferView":8,
			"componentType":5126,
			"count":80,
			"max":[
				0.5723729133605957,
				3.9952645301818848,
				2.032059669494629
			],
			"min":[
				-0.570438802242279,
				3.8301470279693604,
				0.756955623626709
			],
			"type":"VEC3"
		},
		{
			"bufferView":9,
			"componentType":5126,
			"count":80,
			"type":"VEC3"
		},
		{
			"bufferView":10,
			"componentType":5126,
			"count":80,
			"type":"VEC2"
		},
		{
			"bufferView":11,
			"componentType":5123,
			"count":120,
			"type":"SCALAR"
		},
		{
			"bufferView":12,
			"componentType":5126,
			"count":88,
			"max":[
				1,
				1,
				1
			],
			"min":[
				-1,
				-1,
				-1
			],
			"type":"VEC3"
		},
		{
			"bufferView":13,
			"componentType":5126,
			"count":88,
			"type":"VEC3"
		},
		{
			"bufferView":14,
			"componentType":5126,
			"count":88,
			"type":"VEC2"
		},
		{
			"bufferView":15,
			"componentType":5123,
			"count":132,
			"type":"SCALAR"
		},
		{
			"bufferView":16,
			"componentType":5126,
			"count":64,
			"max":[
				1,
				1,
				1
			],
			"min":[
				-1,
				-1,
				-1
			],
			"type":"VEC3"
		},
		{
			"bufferView":17,
			"componentType":5126,
			"count":64,
			"type":"VEC3"
		},
		{
			"bufferView":18,
			"componentType":5126,
			"count":64,
			"type":"VEC2"
		},
		{
			"bufferView":19,
			"componentType":5123,
			"count":144,
			"type":"SCALAR"
		},
		{
			"bufferView":20,
			"componentType":5126,
			"count":222,
			"max":[
				0.7114141583442688,
				1.2009848356246948,
				0.5359878540039062
			],
			"min":[
				-0.5116171836853027,
				-0.498773992061615,
				-0.6975081562995911
			],
			"type":"VEC3"
		},
		{
			"bufferView":21,
			"componentType":5126,
			"count":222,
			"type":"VEC3"
		},
		{
			"bufferView":22,
			"componentType":5126,
			"count":222,
			"type":"VEC2"
		},
		{
			"bufferView":23,
			"componentType":5123,
			"count":336,
			"type":"SCALAR"
		},
		{
			"bufferView":24,
			"componentType":5126,
			"count":88,
			"max":[
				0.5054707527160645,
				0.3486061096191406,
				0.34805983304977417
			],
			"min":[
				-0.3845508098602295,
				-0.27046439051628113,
				-0.45916375517845154
			],
			"type":"VEC3"
		},
		{
			"bufferView":25,
			"componentType":5126,
			"count":88,
			"type":"VEC3"
		},
		{
			"bufferView":26,
			"componentType":5126,
			"count":88,
			"type":"VEC2"
		},
		{
			"bufferView":27,
			"componentType":5123,
			"count":132,
			"type":"SCALAR"
		},
		{
			"bufferView":28,
			"componentType":5126,
			"count":88,
			"max":[
				0.33892297744750977,
				-0.09192541241645813,
				0.3705527186393738
			],
			"min":[
				-0.3228037357330322,
				-0.6304186582565308,
				-0.3595268726348877
			],
			"type":"VEC3"
		},
		{
			"bufferView":29,
			"componentType":5126,
			"count":88,
			"type":"VEC3"
		},
		{
			"bufferView":30,
			"componentType":5126,
			"count":88,
			"type":"VEC2"
		},
		{
			"bufferView":31,
			"componentType":5123,
			"count":132,
			"type":"SCALAR"
		},
		{
			"bufferView":32,
			"componentType":5126,
			"count":40,
			"max":[
				0.30406472086906433,
				-0.33660995960235596,
				0.35254967212677
			],
			"min":[
				-0.3844175636768341,
				-0.6993686556816101,
				-0.3569079637527466
			],
			"type":"VEC3"
		},
		{
			"bufferView":33,
			"componentType":5126,
			"count":40,
			"type":"VEC3"
		},
		{
			"bufferView":34,
			"componentType":5126,
			"count":40,
			"type":"VEC2"
		},
		{
			"bufferView":35,
			"componentType":5123,
			"count":60,
			"type":"SCALAR"
		},
		{
			"bufferView":36,
			"componentType":5126,
			"count":16,
			"type":"MAT4"
		}
	],
	"bufferViews":[
		{
			"buffer":0,
			"byteLength":768,
			"byteOffset":0,
			"target":34962
		},
		{
			"buffer":0,
			"byteLength":768,
			"byteOffset":768,
			"target":34962
		},
		{
			"buffer":0,
			"byteLength":512,
			"byteOffset":1536,
			"target":34962
		},
		{
			"buffer":0,
			"byteLength":216,
			"byteOffset":2048,
			"target":34963
		},
		{
			"buffer":0,
			"byteLength":2928,
			"byteOffset":2264,
			"target":34962
		},
		{
			"buffer":0,
			"byteLength":2928,
			"byteOffset":5192,
			"target":34962
		},
		{
			"buffer":0,
			"byteLength":1952,
			"byteOffset":8120,
			"target":34962
		},
		{
			"buffer":0,
			"byteLength":1692,
			"byteOffset":10072,
			"target":34963
		},
		{
			"buffer":0,
			"byteLength":960,
			"byteOffset":11764,
			"target":34962
		},
		{
			"buffer":0,
			"byteLength":960,
			"byteOffset":12724,
			"target":34962
		},
		{
			"buffer":0,
			"byteLength":640,
			"byteOffset":13684,
			"target":34962
		},
		{
			"buffer":0,
			"byteLength":240,
			"byteOffset":14324,
			"target":34963
		},
		{
			"buffer":0,
			"byteLength":1056,
			"byteOffset":14564,
			"target":34962
		},
		{
			"buffer":0,
			"byteLength":1056,
			"byteOffset":15620,
			"target":34962
		},
		{
			"buffer":0,
			"byteLength":704,
			"byteOffset":16676,
			"target":34962
		},
		{
			"buffer":0,
			"byteLength":264,
			"byteOffset":17380,
			"target":34963
		},
		{
			"buffer":0,
			"byteLength":768,
			"byteOffset":17644,
			"target":34962
		},
		{
			"buffer":0,
			"byteLength":768,
			"byteOffset":18412,
			"target":34962
		},
		{
			"buffer":0,
			"byteLength":512,
			"byteOffset":19180,
			"target":34962
		},
		{
			"buffer":0,
			"byteLength":288,
			"byteOffset":19692,
			"target":34963
		},
		{
			"buffer":0,
			"byteLength":2664,
			"byteOffset":19980,
			"target":34962
		},
		{
			"buffer":0,
			"byteLength":2664,
			"byteOffset":22644,
			"target":34962
		},
		{
			"buffer":0,
			"byteLength":1776,
			"byteOffset":25308,
			"target":34962
		},
		{
			"buffer":0,
			"byteLength":672,
			"byteOffset":27084,
			"target":34963
		},
		{
			"buffer":0,
			"byteLength":1056,
			"byteOffset":27756,
			"target":34962
		},
		{
			"buffer":0,
			"byteLength":1056,
			"byteOffset":28812,
			"target":34962
		},
		{
			"buffer":0,
			"byteLength":704,
			"byteOffset":29868,
			"target":34962
		},
		{
			"buffer":0,
			"byteLength":264,
			"byteOffset":30572,
			"target":34963
		},
		{
			"buffer":0,
			"byteLength":1056,
			"byteOffset":30836,
			"target":34962
		},
		{
			"buffer":0,
			"byteLength":1056,
			"byteOffset":31892,
			"target":34962
		},
		{
			"buffer":0,
			"byteLength":704,
			"byteOffset":32948,
			"target":34962
		},
		{
			"buffer":0,
			"byteLength":264,
			"byteOffset":33652,
			"target":34963
		},
		{
			"buffer":0,
			"byteLength":480,
			"byteOffset":33916,
			"target":34962
		},
		{
			"buffer":0,
			"byteLength":480,
			"byteOffset":34396,
			"target":34962
		},
		{
			"buffer":0,
			"byteLength":320,
			"byteOffset":34876,
			"target":34962
		},
		{
			"buffer":0,
			"byteLength":120,
			"byteOffset":35196,
			"target":34963
		},
		{
			"buffer":0,
			"byteLength":1024,
			"byteOffset":35316
		}
	],
	"buffers":[
		{
			"byteLength":36340,
			"uri":"data:application/octet-stream;base64,"
		}
	]
}
