{
	"asset":{
		"generator":"Khronos glTF Blender I/O v3.6.27",
		"version":"2.0"
	},
	"scene":0,
	"scenes":[
		{
			"name":"Scene",
			"nodes":[
				0,
				1,
				2,
				3
			]
		}
	],
	"nodes":[
		{
			"mesh":0,
			"name":"Blackboard"
		},
		{
			"mesh":1,
			"name":"Chalk",
			"scale":[
				0.045153532177209854,
				0.01045723631978035,
				0.01045723631978035
			],
			"translation":[
				0,
				-0.7562618851661682,
				-0.08826123178005219
			]
		},
		{
			"mesh":2,
			"name":"Chalk 2",
			"rotation":[
				0,
				-0.1250523179769516,
				0,
				0.9921502470970154
			],
			"scale":[
				0.062256358563899994,
				0.01045723631978035,
				0.01045723631978035
			],
			"translation":[
				0.46665000915527344,
				-0.7562618851661682,
				-0.08826123178005219
			]
		},
		{
			"mesh":3,
			"name":"Rubber",
			"scale":[
				0.07170046865940094,
				0.015086188912391663,
				0.030306456610560417
			],
			"translation":[
				-0.2586730718612671,
				-0.7497049570083618,
				-0.07501436769962311
			]
		}
	],
	"materials":[
		{
			"doubleSided":true,
			"name":"Frame",
			"pbrMetallicRoughness":{
				"baseColorFactor":[
					0.06071936711668968,
					0.025858566164970398,
					0.010540393181145191,
					1
				],
				"metallicFactor":0
			}
		},
		{
			"doubleSided":true,
			"name":"Blackboard",
			"pbrMetallicRoughness":{
				"baseColorTexture":{
					"index":0
				},
				"metallicFactor":0
			}
		},
		{
			"doubleSided":true,
			"name":"Material.001",
			"pbrMetallicRoughness":{
				"baseColorFactor":[
					0.5814631581306458,
					0.5814631581306458,
					0.5814631581306458,
					1
				],
				"metallicFactor":0,
				"roughnessFactor":0.5
			}
		},
		{
			"doubleSided":true,
			"name":"Material.002",
			"pbrMetallicRoughness":{
				"baseColorFactor":[
					0.5070684552192688,
					0.5070684552192688,
					0.5070684552192688,
					1
				],
				"metallicFactor":0,
				"roughnessFactor":0.5
			}
		},
		{
			"doubleSided":true,
			"name":"Base.001",
			"pbrMetallicRoughness":{
				"baseColorFactor":[
					0.01884850673377514,
					0.008463263511657715,
					0.006718873977661133,
					1
				],
				"metallicFactor":0
			}
		},
		{
			"doubleSided":true,
			"name":"Material.003",
			"pbrMetallicRoughness":{
				"baseColorFactor":[
					0.11068861931562424,
					0.11068861931562424,
					0.11068861931562424,
					1
				],
				"metallicFactor":0,
				"roughnessFactor":0.5
			}
		}
	],
	"meshes":[
		{
			"name":"Cube.001",
			"primitives":[
				{
					"attributes":{
						"POSITION":0,
						"NORMAL":1,
						"TEXCOORD_0":2
					},
					"indices":3,
					"material":0
				},
				{
					"attributes":{
						"POSITION":4,
						"NORMAL":5,
						"TEXCOORD_0":6
					},
					"indices":7,
					"material":1
				}
			]
		},
		{
			"name":"Cube.002",
			"primitives":[
				{
					"attributes":{
						"POSITION":8,
						"NORMAL":9,
						"TEXCOORD_0":10
					},
					"indices":11,
					"material":2
				}
			]
		},
		{
			"name":"Cube.003",
			"primitives":[
				{
					"attributes":{
						"POSITION":12,
						"NORMAL":13,
						"TEXCOORD_0":14
					},
					"indices":11,
					"material":3
				}
			]
		},
		{
			"name":"Cube.004",
			"primitives":[
				{
					"attributes":{
						"POSITION":15,
						"NORMAL":16,
						"TEXCOORD_0":17
					},
					"indices":18,
					"material":4
				},
				{
					"attributes":{
						"POSITION":19,
						"NORMAL":20,
						"TEXCOORD_0":21
					},
					"indices":22,
					"material":5
				}
			]
		}
	],
	"textures":[
		{
			"sampler":0,
			"source":0
		}
	],
	"images":[
		{
			"bufferView":8,
			"mimeType":"image/jpeg",
			"name":"Chalkboard"
		}
	],
	"accessors":[
		{
			"bufferView":0,
			"componentType":5126,
			"count":104,
			"max":[
				1.2611594200134277,
				0.8091809749603271,
				0.029320580884814262
			],
			"min":[
				-1.2611594200134277,
				-0.8091809749603271,
				-0.1747073382139206
			],
			"type":"VEC3"
		},
		{
			"bufferView":1,
			"componentType":5126,
			"count":104,
			"type":"VEC3"
		},
		{
			"bufferView":2,
			"componentType":5126,
			"count":104,
			"type":"VEC2"
		},
		{
			"bufferView":3,
			"componentType":5123,
			"count":210,
			"type":"SCALAR"
		},
		{
			"bufferView":4,
			"componentType":5126,
			"count":4,
			"max":[
				1.1903594732284546,
				0.7650160193443298,
				-0.008551027625799179
			],
			"min":[
				-1.1903594732284546,
				-0.7200762629508972,
				-0.008551027625799179
			],
			"type":"VEC3"
		},
		{
			"bufferView":5,
			"componentType":5126,
			"count":4,
			"type":"VEC3"
		},
		{
			"bufferView":6,
			"componentType":5126,
			"count":4,
			"type":"VEC2"
		},
		{
			"bufferView":7,
			"componentType":5123,
			"count":6,
			"type":"SCALAR"
		},
		{
			"bufferView":9,
			"componentType":5126,
			"count":24,
			"max":[
				1,
				1,
				1
			],
			"min":[
				-1,
				-1,
				-1
			],
			"type":"VEC3"
		},
		{
			"bufferView":10,
			"componentType":5126,
			"count":24,
			"type":"VEC3"
		},
		{
			"bufferView":11,
			"componentType":5126,
			"count":24,
			"type":"VEC2"
		},
		{
			"bufferView":12,
			"componentType":5123,
			"count":36,
			"type":"SCALAR"
		},
		{
			"bufferView":13,
			"componentType":5126,
			"count":24,
			"max":[
				1,
				1,
				1
			],
			"min":[
				-1,
				-1,
				-1
			],
			"type":"VEC3"
		},
		{
			"bufferView":14,
			"componentType":5126,
			"count":24,
			"type":"VEC3"
		},
		{
			"bufferView":15,
			"componentType":5126,
			"count":24,
			"type":"VEC2"
		},
		{
			"bufferView":16,
			"componentType":5126,
			"count":30,
			"max":[
				1,
				1,
				1
			],
			"min":[
				-1,
				-1,
				-1
			],
			"type":"VEC3"
		},
		{
			"bufferView":17,
			"componentType":5126,
			"count":30,
			"type":"VEC3"
		},
		{
			"bufferView":18,
			"componentType":5126,
			"count":30,
			"type":"VEC2"
		},
		{
			"bufferView":19,
			"componentType":5123,
			"count":54,
			"type":"SCALAR"
		},
		{
			"bufferView":20,
			"componentType":5126,
			"count":20,
			"max":[
				0.9354591369628906,
				1.7272170782089233,
				0.9354590177536011
			],
			"min":[
				-0.9354591369628906,
				1,
				-0.9354590177536011
			],
			"type":"VEC3"
		},
		{
			"bufferView":21,
			"componentType":5126,
			"count":20,
			"type":"VEC3"
		},
		{
			"bufferView":22,
			"componentType":5126,
			"count":20,
			"type":"VEC2"
		},
		{
			"bufferView":23,
			"componentType":5123,
			"count":30,
			"type":"SCALAR"
		}
	],
	"bufferViews":[
		{
			"buffer":0,
			"byteLength":1248,
			"byteOffset":0,
			"target":34962
		},
		{
			"buffer":0,
			"byteLength":1248,
			"byteOffset":1248,
			"target":34962
		},
		{
			"buffer":0,
			"byteLength":832,
			"byteOffset":2496,
			"target":34962
		},
		{
			"buffer":0,
			"byteLength":420,
			"byteOffset":3328,
			"target":34963
		},
		{
			"buffer":0,
			"byteLength":48,
			"byteOffset":3748,
			"target":34962
		},
		{
			"buffer":0,
			"byteLength":48,
			"byteOffset":3796,
			"target":34962
		},
		{
			"buffer":0,
			"byteLength":32,
			"byteOffset":3844,
			"target":34962
		},
		{
			"buffer":0,
			"byteLength":12,
			"byteOffset":3876,
			"target":34963
		},
		{
			"buffer":0,
			"byteLength":4487,
			"byteOffset":3888
		},
		{
			"buffer":0,
			"byteLength":288,
			"byteOffset":8376,
			"target":34962
		},
		{
			"buffer":0,
			"byteLength":288,
			"byteOffset":8664,
			"target":34962
		},
		{
			"buffer":0,
			"byteLength":192,
			"byteOffset":8952,
			"target":34962
		},
		{
			"buffer":0,
			"byteLength":72,
			"byteOffset":9144,
			"target":34963
		},
		{
			"buffer":0,
			"byteLength":288,
			"byteOffset":9216,
			"target":34962
		},
		{
			"buffer":0,
			"byteLength":288,
			"byteOffset":9504,
			"target":34962
		},
		{
			"buffer":0,
			"byteLength":192,
			"byteOffset":9792,
			"target":34962
		},
		{
			"buffer":0,
			"byteLength":360,
			"byteOffset":9984,
			"target":34962
		},
		{
			"buffer":0,
			"byteLength":360,
			"byteOffset":10344,
			"target":34962
		},
		{
			"buffer":0,
			"byteLength":240,
			"byteOffset":10704,
			"target":34962
		},
		{
			"buffer":0,
			"byteLength":108,
			"byteOffset":10944,
			"target":34963
		},
		{
			"buffer":0,
			"byteLength":240,
			"byteOffset":11052,
			"target":34962
		},
		{
			"buffer":0,
			"byteLength":240,
			"byteOffset":11292,
			"target":34962
		},
		{
			"buffer":0,
			"byteLength":160,
			"byteOffset":11532,
			"target":34962
		},
		{
			"buffer":0,
			"byteLength":60,
			"byteOffset":11692,
			"target":34963
		}
	],
	"samplers":[
		{
			"magFilter":9729,
			"minFilter":9987
		}
	],
	"buffers":[
		{
			"byteLength":11752,
			"uri":"data:application/octet-stream;base64,"
		}
	]
}
