{
	"asset":{
		"generator":"Khronos glTF Blender I/O v3.6.27",
		"version":"2.0"
	},
	"scene":0,
	"scenes":[
		{
			"name":"Scene",
			"nodes":[
				0
			]
		}
	],
	"nodes":[
		{
			"mesh":0,
			"name":"Bone",
			"scale":[
				0.07305659353733063,
				0.011163813062012196,
				0.01956069841980934
			],
			"translation":[
				-4.068477153778076,
				0.015474062412977219,
				-0.3366840183734894
			]
		}
	],
	"materials":[
		{
			"doubleSided":true,
			"name":"Material",
			"pbrMetallicRoughness":{
				"metallicFactor":0,
				"roughnessFactor":0.5
			}
		}
	],
	"meshes":[
		{
			"name":"Cube.001",
			"primitives":[
				{
					"attributes":{
						"POSITION":0,
						"NORMAL":1,
						"TEXCOORD_0":2
					},
					"indices":3,
					"material":0
				}
			]
		}
	],
	"accessors":[
		{
			"bufferView":0,
			"componentType":5126,
			"count":354,
			"max":[
				1.6978768110275269,
				2.211597442626953,
				2.444580554962158
			],
			"min":[
				-1.6978768110275269,
				-1.3157055377960205,
				-2.444580554962158
			],
			"type":"VEC3"
		},
		{
			"bufferView":1,
			"componentType":5126,
			"count":354,
			"type":"VEC3"
		},
		{
			"bufferView":2,
			"componentType":5126,
			"count":354,
			"type":"VEC2"
		},
		{
			"bufferView":3,
			"componentType":5123,
			"count":780,
			"type":"SCALAR"
		}
	],
	"bufferViews":[
		{
			"buffer":0,
			"byteLength":4248,
			"byteOffset":0,
			"target":34962
		},
		{
			"buffer":0,
			"byteLength":4248,
			"byteOffset":4248,
			"target":34962
		},
		{
			"buffer":0,
			"byteLength":2832,
			"byteOffset":8496,
			"target":34962
		},
		{
			"buffer":0,
			"byteLength":1560,
			"byteOffset":11328,
			"target":34963
		}
	],
	"buffers":[
		{
			"byteLength":12888,
			"uri":"data:application/octet-stream;base64,"
		}
	]
}
