{
	"asset":{
		"generator":"Khronos glTF Blender I/O v3.6.27",
		"version":"2.0"
	},
	"scene":0,
	"scenes":[
		{
			"name":"Scene",
			"nodes":[
				0,
				1,
				2,
				3,
				4,
				5,
				6,
				7,
				8
			]
		}
	],
	"nodes":[
		{
			"mesh":0,
			"name":"Cube",
			"scale":[
				0.059194326400756836,
				0.059194326400756836,
				0.059194326400756836
			],
			"translation":[
				4.538761615753174,
				0.0008440874516963959,
				-0.18372491002082825
			]
		},
		{
			"mesh":1,
			"name":"Cube.001",
			"scale":[
				0.025382183492183685,
				0.025382183492183685,
				0.025382183492183685
			],
			"translation":[
				4.538762092590332,
				0.0008440911769866943,
				-0.18372491002082825
			]
		},
		{
			"mesh":2,
			"name":"Cube.002",
			"rotation":[
				0,
				0,
				-0.10874943435192108,
				0.9940692782402039
			],
			"scale":[
				0.005126157775521278,
				0.005126157775521278,
				0.005126157775521278
			],
			"translation":[
				4.538761615753174,
				0.0008441582322120667,
				-0.18372488021850586
			]
		},
		{
			"mesh":3,
			"name":"Cube.003",
			"scale":[
				0.005303760524839163,
				0.005303760524839163,
				0.005303760524839163
			],
			"translation":[
				4.538761615753174,
				0.0008440832607448101,
				-0.18372491002082825
			]
		},
		{
			"mesh":4,
			"name":"Cube.004",
			"rotation":[
				-0.23481476306915283,
				0,
				0,
				0.9720401167869568
			],
			"scale":[
				0.005303760524839163,
				0.005303760524839163,
				0.005303760524839163
			],
			"translation":[
				4.538761138916016,
				0.0008440781384706497,
				-0.18372491002082825
			]
		},
		{
			"mesh":5,
			"name":"Chair",
			"scale":[
				0.05313250422477722,
				0.04382666200399399,
				0.04382666200399399
			],
			"translation":[
				4.538761615753174,
				0.0008440837264060974,
				-0.18372491002082825
			]
		},
		{
			"mesh":6,
			"name":"Table",
			"rotation":[
				0,
				-0.7071068286895752,
				0,
				0.7071068286895752
			],
			"scale":[
				0.04539083316922188,
				0.04539083316922188,
				0.04539083316922188
			],
			"translation":[
				4.538761615753174,
				0.0008440818637609482,
				-0.18372491002082825
			]
		},
		{
			"mesh":7,
			"name":"Chair.001",
			"rotation":[
				0,
				0,
				-1,
				4.371138828673793e-08
			],
			"scale":[
				0.05313250422477722,
				0.04382666200399399,
				0.04382666200399399
			],
			"translation":[
				4.538761615753174,
				0.000844080001115799,
				-0.18372491002082825
			]
		},
		{
			"mesh":8,
			"name":"Speaker Left",
			"rotation":[
				0.1761564463376999,
				0.1761564314365387,
				0.6848130822181702,
				0.6848130822181702
			],
			"scale":[
				0.005855720490217209,
				0.0058554476127028465,
				0.0058554476127028465
			],
			"translation":[
				4.538762092590332,
				0.0008440837264060974,
				-0.18372496962547302
			]
		}
	],
	"materials":[
		{
			"doubleSided":true,
			"name":"Material.002",
			"pbrMetallicRoughness":{
				"baseColorFactor":[
					0.19015270471572876,
					0.10346607118844986,
					0.047578562051057816,
					1
				],
				"metallicFactor":0
			}
		},
		{
			"doubleSided":true,
			"name":"Material.005",
			"pbrMetallicRoughness":{
				"baseColorFactor":[
					0.1149354875087738,
					0.06102341040968895,
					0.03156447410583496,
					1
				],
				"metallicFactor":0
			}
		},
		{
			"doubleSided":true,
			"name":"Material.003",
			"pbrMetallicRoughness":{
				"baseColorFactor":[
					0.395291805267334,
					0.8000000715255737,
					0.6450463533401489,
					1
				],
				"metallicFactor":0
			}
		},
		{
			"doubleSided":true,
			"name":"Material",
			"pbrMetallicRoughness":{
				"baseColorFactor":[
					0.060202423483133316,
					0.8000000715255737,
					0.06479966640472412,
					1
				],
				"metallicFactor":0,
				"roughnessFactor":0.5
			}
		},
		{
			"doubleSided":true,
			"name":"Material.001",
			"pbrMetallicRoughness":{
				"baseColorFactor":[
					0,
					0.3480435311794281,
					0.8000000715255737,
					1
				],
				"metallicFactor":0,
				"roughnessFactor":0.5
			}
		},
		{
			"doubleSided":true,
			"name":"Material.004",
			"pbrMetallicRoughness":{
				"baseColorFactor":[
					0.057802487164735794,
					0.026371724903583527,
					0.012295558117330074,
					1
				],
				"metallicFactor":0,
				"roughnessFactor":0.5
			}
		},
		{
			"doubleSided":true,
			"name":"Material.006",
			"pbrMetallicRoughness":{
				"baseColorFactor":[
					0.1149354875087738,
					0.06102341040968895,
					0.03156447410583496,
					1
				],
				"metallicFactor":0
			}
		},
		{
			"doubleSided":true,
			"name":"Material.007",
			"pbrMetallicRoughness":{
				"baseColorFactor":[
					0.010021689347922802,
					0.010021689347922802,
					0.010021689347922802,
					1
				],
				"metallicFactor":0,
				"roughnessFactor":0.5
			}
		},
		{
			"doubleSided":true,
			"name":"Material.008",
			"pbrMetallicRoughness":{
				"baseColorFactor":[
					0.7037489414215088,
					0.5340378284454346,
					0.02785404957830906,
					1
				],
				"metallicFactor":0,
				"roughnessFactor":0.5
			}
		}
	],
	"meshes":[
		{
			"name":"Cube.001",
			"primitives":[
				{
					"attributes":{
						"POSITION":0,
						"NORMAL":1,
						"TEXCOORD_0":2
					},
					"indices":3,
					"material":0
				}
			]
		},
		{
			"name":"Cube.002",
			"primitives":[
				{
					"attributes":{
						"POSITION":4,
						"NORMAL":5,
						"TEXCOORD_0":6
					},
					"indices":3,
					"material":1
				}
			]
		},
		{
			"name":"Cube.003",
			"primitives":[
				{
					"attributes":{
						"POSITION":7,
						"NORMAL":8,
						"TEXCOORD_0":9
					},
					"indices":3,
					"material":2
				}
			]
		},
		{
			"name":"Cube.004",
			"primitives":[
				{
					"attributes":{
						"POSITION":10,
						"NORMAL":11,
						"TEXCOORD_0":12
					},
					"indices":3,
					"material":3
				}
			]
		},
		{
			"name":"Cube.006",
			"primitives":[
				{
					"attributes":{
						"POSITION":13,
						"NORMAL":14,
						"TEXCOORD_0":15
					},
					"indices":3,
					"material":4
				}
			]
		},
		{
			"name":"Cube.010",
			"primitives":[
				{
					"attributes":{
						"POSITION":16,
						"NORMAL":17,
						"TEXCOORD_0":18
					},
					"indices":19,
					"material":1
				}
			]
		},
		{
			"name":"Cube.007",
			"primitives":[
				{
					"attributes":{
						"POSITION":20,
						"NORMAL":21,
						"TEXCOORD_0":22
					},
					"indices":23,
					"material":5
				}
			]
		},
		{
			"name":"Cube.008",
			"primitives":[
				{
					"attributes":{
						"POSITION":24,
						"NORMAL":25,
						"TEXCOORD_0":26
					},
					"indices":19,
					"material":6
				}
			]
		},
		{
			"name":"Cube.009",
			"primitives":[
				{
					"attributes":{
						"POSITION":27,
						"NORMAL":28,
						"TEXCOORD_0":29
					},
					"indices":30,
					"material":7
				},
				{
					"attributes":{
						"POSITION":31,
						"NORMAL":32,
						"TEXCOORD_0":33
					},
					"indices":34,
					"material":8
				}
			]
		}
	],
	"accessors":[
		{
			"bufferView":0,
			"componentType":5126,
			"count":24,
			"max":[
				1.002288818359375,
				2.000499725341797,
				1.0095362663269043
			],
			"min":[
				-0.997711181640625,
				0.000499725341796875,
				-0.9904637336730957
			],
			"type":"VEC3"
		},
		{
			"bufferView":1,
			"componentType":5126,
			"count":24,
			"type":"VEC3"
		},
		{
			"bufferView":2,
			"componentType":5126,
			"count":24,
			"type":"VEC2"
		},
		{
			"bufferView":3,
			"componentType":5123,
			"count":36,
			"type":"SCALAR"
		},
		{
			"bufferView":4,
			"componentType":5126,
			"count":24,
			"max":[
				0.038970947265625,
				6.771395683288574,
				-0.19004535675048828
			],
			"min":[
				-1.961029052734375,
				4.771395683288574,
				-2.1900453567504883
			],
			"type":"VEC3"
		},
		{
			"bufferView":5,
			"componentType":5126,
			"count":24,
			"type":"VEC3"
		},
		{
			"bufferView":6,
			"componentType":5126,
			"count":24,
			"type":"VEC2"
		},
		{
			"bufferView":7,
			"componentType":5126,
			"count":24,
			"max":[
				2.5719757080078125,
				41.9730224609375,
				-12.389283180236816
			],
			"min":[
				1.8545379638671875,
				2.925262451171875,
				-13.106719017028809
			],
			"type":"VEC3"
		},
		{
			"bufferView":8,
			"componentType":5126,
			"count":24,
			"type":"VEC3"
		},
		{
			"bufferView":9,
			"componentType":5126,
			"count":24,
			"type":"VEC2"
		},
		{
			"bufferView":10,
			"componentType":5126,
			"count":24,
			"max":[
				-12.365966796875,
				1.653244972229004,
				16.42100715637207
			],
			"min":[
				-14.365966796875,
				-0.34675508737564087,
				14.42100715637207
			],
			"type":"VEC3"
		},
		{
			"bufferView":11,
			"componentType":5126,
			"count":24,
			"type":"VEC3"
		},
		{
			"bufferView":12,
			"componentType":5126,
			"count":24,
			"type":"VEC2"
		},
		{
			"bufferView":13,
			"componentType":5126,
			"count":24,
			"max":[
				-2.8209228515625,
				-4.17266845703125,
				12.512613296508789
			],
			"min":[
				-4.8209228515625,
				-6.17266845703125,
				10.512613296508789
			],
			"type":"VEC3"
		},
		{
			"bufferView":14,
			"componentType":5126,
			"count":24,
			"type":"VEC3"
		},
		{
			"bufferView":15,
			"componentType":5126,
			"count":24,
			"type":"VEC2"
		},
		{
			"bufferView":16,
			"componentType":5126,
			"count":268,
			"max":[
				-1.1788572072982788,
				1.5861645936965942,
				0.26644954085350037
			],
			"min":[
				-1.9469881057739258,
				-0.005353808403015137,
				-0.5833868980407715
			],
			"type":"VEC3"
		},
		{
			"bufferView":17,
			"componentType":5126,
			"count":268,
			"type":"VEC3"
		},
		{
			"bufferView":18,
			"componentType":5126,
			"count":268,
			"type":"VEC2"
		},
		{
			"bufferView":19,
			"componentType":5123,
			"count":756,
			"type":"SCALAR"
		},
		{
			"bufferView":20,
			"componentType":5126,
			"count":176,
			"max":[
				0.6639968156814575,
				0.9268531799316406,
				5.8476409912109375
			],
			"min":[
				-1.3974343538284302,
				-0.02865368127822876,
				1.786316156387329
			],
			"type":"VEC3"
		},
		{
			"bufferView":21,
			"componentType":5126,
			"count":176,
			"type":"VEC3"
		},
		{
			"bufferView":22,
			"componentType":5126,
			"count":176,
			"type":"VEC2"
		},
		{
			"bufferView":23,
			"componentType":5123,
			"count":342,
			"type":"SCALAR"
		},
		{
			"bufferView":24,
			"componentType":5126,
			"count":268,
			"max":[
				5.121542453765869,
				-0.05641829967498779,
				0.26644954085350037
			],
			"min":[
				4.353411674499512,
				-1.6479367017745972,
				-0.5833868980407715
			],
			"type":"VEC3"
		},
		{
			"bufferView":25,
			"componentType":5126,
			"count":268,
			"type":"VEC3"
		},
		{
			"bufferView":26,
			"componentType":5126,
			"count":268,
			"type":"VEC2"
		},
		{
			"bufferView":27,
			"componentType":5126,
			"count":180,
			"max":[
				9.273221969604492,
				33.4901123046875,
				-16.940673828125
			],
			"min":[
				7.273221969604492,
				30.23311996459961,
				-18.975135803222656
			],
			"type":"VEC3"
		},
		{
			"bufferView":28,
			"componentType":5126,
			"count":180,
			"type":"VEC3"
		},
		{
			"bufferView":29,
			"componentType":5126,
			"count":180,
			"type":"VEC2"
		},
		{
			"bufferView":30,
			"componentType":5123,
			"count":444,
			"type":"SCALAR"
		},
		{
			"bufferView":31,
			"componentType":5126,
			"count":24,
			"max":[
				8.598454475402832,
				31.671031951904297,
				-16.968461990356445
			],
			"min":[
				7.947988986968994,
				31.035463333129883,
				-17.003469467163086
			],
			"type":"VEC3"
		},
		{
			"bufferView":32,
			"componentType":5126,
			"count":24,
			"type":"VEC3"
		},
		{
			"bufferView":33,
			"componentType":5126,
			"count":24,
			"type":"VEC2"
		},
		{
			"bufferView":34,
			"componentType":5123,
			"count":48,
			"type":"SCALAR"
		}
	],
	"bufferViews":[
		{
			"buffer":0,
			"byteLength":288,
			"byteOffset":0,
			"target":34962
		},
		{
			"buffer":0,
			"byteLength":288,
			"byteOffset":288,
			"target":34962
		},
		{
			"buffer":0,
			"byteLength":192,
			"byteOffset":576,
			"target":34962
		},
		{
			"buffer":0,
			"byteLength":72,
			"byteOffset":768,
			"target":34963
		},
		{
			"buffer":0,
			"byteLength":288,
			"byteOffset":840,
			"target":34962
		},
		{
			"buffer":0,
			"byteLength":288,
			"byteOffset":1128,
			"target":34962
		},
		{
			"buffer":0,
			"byteLength":192,
			"byteOffset":1416,
			"target":34962
		},
		{
			"buffer":0,
			"byteLength":288,
			"byteOffset":1608,
			"target":34962
		},
		{
			"buffer":0,
			"byteLength":288,
			"byteOffset":1896,
			"target":34962
		},
		{
			"buffer":0,
			"byteLength":192,
			"byteOffset":2184,
			"target":34962
		},
		{
			"buffer":0,
			"byteLength":288,
			"byteOffset":2376,
			"target":34962
		},
		{
			"buffer":0,
			"byteLength":288,
			"byteOffset":2664,
			"target":34962
		},
		{
			"buffer":0,
			"byteLength":192,
			"byteOffset":2952,
			"target":34962
		},
		{
			"buffer":0,
			"byteLength":288,
			"byteOffset":3144,
			"target":34962
		},
		{
			"buffer":0,
			"byteLength":288,
			"byteOffset":3432,
			"target":34962
		},
		{
			"buffer":0,
			"byteLength":192,
			"byteOffset":3720,
			"target":34962
		},
		{
			"buffer":0,
			"byteLength":3216,
			"byteOffset":3912,
			"target":34962
		},
		{
			"buffer":0,
			"byteLength":3216,
			"byteOffset":7128,
			"target":34962
		},
		{
			"buffer":0,
			"byteLength":2144,
			"byteOffset":10344,
			"target":34962
		},
		{
			"buffer":0,
			"byteLength":1512,
			"byteOffset":12488,
			"target":34963
		},
		{
			"buffer":0,
			"byteLength":2112,
			"byteOffset":14000,
			"target":34962
		},
		{
			"buffer":0,
			"byteLength":2112,
			"byteOffset":16112,
			"target":34962
		},
		{
			"buffer":0,
			"byteLength":1408,
			"byteOffset":18224,
			"target":34962
		},
		{
			"buffer":0,
			"byteLength":684,
			"byteOffset":19632,
			"target":34963
		},
		{
			"buffer":0,
			"byteLength":3216,
			"byteOffset":20316,
			"target":34962
		},
		{
			"buffer":0,
			"byteLength":3216,
			"byteOffset":23532,
			"target":34962
		},
		{
			"buffer":0,
			"byteLength":2144,
			"byteOffset":26748,
			"target":34962
		},
		{
			"buffer":0,
			"byteLength":2160,
			"byteOffset":28892,
			"target":34962
		},
		{
			"buffer":0,
			"byteLength":2160,
			"byteOffset":31052,
			"target":34962
		},
		{
			"buffer":0,
			"byteLength":1440,
			"byteOffset":33212,
			"target":34962
		},
		{
			"buffer":0,
			"byteLength":888,
			"byteOffset":34652,
			"target":34963
		},
		{
			"buffer":0,
			"byteLength":288,
			"byteOffset":35540,
			"target":34962
		},
		{
			"buffer":0,
			"byteLength":288,
			"byteOffset":35828,
			"target":34962
		},
		{
			"buffer":0,
			"byteLength":192,
			"byteOffset":36116,
			"target":34962
		},
		{
			"buffer":0,
			"byteLength":96,
			"byteOffset":36308,
			"target":34963
		}
	],
	"buffers":[
		{
			"byteLength":36404,
			"uri":"data:application/octet-stream;base64,"
		}
	]
}
