{
	"asset":{
		"generator":"Khronos glTF Blender I/O v3.6.27",
		"version":"2.0"
	},
	"scene":0,
	"scenes":[
		{
			"name":"Scene",
			"nodes":[
				0
			]
		}
	],
	"nodes":[
		{
			"mesh":0,
			"name":"Certificate",
			"scale":[
				0.0731012225151062,
				1.4850000143051147,
				1.0499999523162842
			]
		}
	],
	"materials":[
		{
			"doubleSided":true,
			"name":"Frame",
			"pbrMetallicRoughness":{
				"baseColorFactor":[
					0.003642102237790823,
					0.003642102237790823,
					0.003642102237790823,
					1
				],
				"metallicFactor":0
			}
		},
		{
			"doubleSided":true,
			"name":"Material",
			"pbrMetallicRoughness":{
				"metallicFactor":0
			}
		}
	],
	"meshes":[
		{
			"name":"Cube",
			"primitives":[
				{
					"attributes":{
						"POSITION":0,
						"NORMAL":1,
						"TEXCOORD_0":2
					},
					"indices":3,
					"material":0
				},
				{
					"attributes":{
						"POSITION":4,
						"NORMAL":5,
						"TEXCOORD_0":6
					},
					"indices":7,
					"material":1
				}
			]
		}
	],
	"accessors":[
		{
			"bufferView":0,
			"componentType":5126,
			"count":964,
			"max":[
				1,
				1,
				1
			],
			"min":[
				-1,
				-1,
				-1
			],
			"type":"VEC3"
		},
		{
			"bufferView":1,
			"componentType":5126,
			"count":964,
			"type":"VEC3"
		},
		{
			"bufferView":2,
			"componentType":5126,
			"count":964,
			"type":"VEC2"
		},
		{
			"bufferView":3,
			"componentType":5123,
			"count":2754,
			"type":"SCALAR"
		},
		{
			"bufferView":4,
			"componentType":5126,
			"count":1089,
			"max":[
				0.4470914602279663,
				0.9292570948600769,
				0.8979521989822388
			],
			"min":[
				0.4470914602279663,
				-0.9292570948600769,
				-0.8979521989822388
			],
			"type":"VEC3"
		},
		{
			"bufferView":5,
			"componentType":5126,
			"count":1089,
			"type":"VEC3"
		},
		{
			"bufferView":6,
			"componentType":5126,
			"count":1089,
			"type":"VEC2"
		},
		{
			"bufferView":7,
			"componentType":5123,
			"count":3840,
			"type":"SCALAR"
		}
	],
	"bufferViews":[
		{
			"buffer":0,
			"byteLength":11568,
			"byteOffset":0,
			"target":34962
		},
		{
			"buffer":0,
			"byteLength":11568,
			"byteOffset":11568,
			"target":34962
		},
		{
			"buffer":0,
			"byteLength":7712,
			"byteOffset":23136,
			"target":34962
		},
		{
			"buffer":0,
			"byteLength":5508,
			"byteOffset":30848,
			"target":34963
		},
		{
			"buffer":0,
			"byteLength":13068,
			"byteOffset":36356,
			"target":34962
		},
		{
			"buffer":0,
			"byteLength":13068,
			"byteOffset":49424,
			"target":34962
		},
		{
			"buffer":0,
			"byteLength":8712,
			"byteOffset":62492,
			"target":34962
		},
		{
			"buffer":0,
			"byteLength":7680,
			"byteOffset":71204,
			"target":34963
		}
	],
	"buffers":[
		{
			"byteLength":78884,
			"uri":"data:application/octet-stream;base64,"
		}
	]
}
