{
	"asset":{
		"generator":"Khronos glTF Blender I/O v3.6.27",
		"version":"2.0"
	},
	"scene":0,
	"scenes":[
		{
			"name":"Scene",
			"nodes":[
				0,
				1,
				2,
				3
			]
		}
	],
	"nodes":[
		{
			"name":"Empty"
		},
		{
			"mesh":0,
			"name":"Cube",
			"rotation":[
				-0.18089810013771057,
				0.6573513150215149,
				-0.16695639491081238,
				0.7122434377670288
			],
			"scale":[
				0.05721377208828926,
				0.05721377208828926,
				0.05721377208828926
			],
			"translation":[
				0,
				0.9408135414123535,
				-0.6768361926078796
			]
		},
		{
			"mesh":1,
			"name":"Turtle",
			"rotation":[
				0.017719736322760582,
				0.9395237565040588,
				0.3375021517276764,
				0.055438332259655
			],
			"scale":[
				0.000987491337582469,
				0.00046307744923979044,
				0.0016358935972675681
			],
			"translation":[
				-0.3758879005908966,
				0.5326317548751831,
				0.424517422914505
			]
		},
		{
			"mesh":2,
			"name":"Cube.002",
			"translation":[
				0,
				0.6179616451263428,
				0
			]
		}
	],
	"materials":[
		{
			"doubleSided":true,
			"name":"Spaceship",
			"pbrMetallicRoughness":{
				"metallicFactor":0,
				"roughnessFactor":0.5
			}
		},
		{
			"doubleSided":true,
			"name":"Window",
			"pbrMetallicRoughness":{
				"baseColorFactor":[
					0.18097209930419922,
					0.5878733396530151,
					1,
					1
				],
				"metallicFactor":0,
				"roughnessFactor":0.5
			}
		},
		{
			"doubleSided":true,
			"name":"Material.001",
			"pbrMetallicRoughness":{
				"baseColorTexture":{
					"index":0
				},
				"metallicFactor":0,
				"roughnessFactor":0.4000000059604645
			}
		},
		{
			"doubleSided":true,
			"name":"Skin",
			"pbrMetallicRoughness":{
				"baseColorFactor":[
					0.03735997900366783,
					0.012655874714255333,
					0.0033210432156920433,
					1
				],
				"metallicFactor":0
			}
		},
		{
			"doubleSided":true,
			"name":"T-Shirt",
			"pbrMetallicRoughness":{
				"baseColorFactor":[
					0.800000011920929,
					0.800000011920929,
					0.800000011920929,
					1
				],
				"metallicFactor":0
			}
		},
		{
			"doubleSided":true,
			"name":"Trousers",
			"pbrMetallicRoughness":{
				"baseColorFactor":[
					0.008075723424553871,
					0.008075723424553871,
					0.008075723424553871,
					1
				],
				"metallicFactor":0
			}
		},
		{
			"doubleSided":true,
			"name":"Shoes",
			"pbrMetallicRoughness":{
				"baseColorFactor":[
					0.8000000715255737,
					0.16822537779808044,
					0.025775495916604996,
					1
				],
				"metallicFactor":0,
				"roughnessFactor":0.5
			}
		}
	],
	"meshes":[
		{
			"name":"Cube.002",
			"primitives":[
				{
					"attributes":{
						"POSITION":0,
						"NORMAL":1,
						"TEXCOORD_0":2
					},
					"indices":3,
					"material":0
				},
				{
					"attributes":{
						"POSITION":4,
						"NORMAL":5,
						"TEXCOORD_0":6
					},
					"indices":7,
					"material":1
				}
			]
		},
		{
			"name":"Cube.003",
			"primitives":[
				{
					"attributes":{
						"POSITION":8,
						"NORMAL":9,
						"TEXCOORD_0":10
					},
					"indices":11,
					"material":2
				}
			]
		},
		{
			"name":"Cube.004",
			"primitives":[
				{
					"attributes":{
						"POSITION":12,
						"NORMAL":13,
						"TEXCOORD_0":14
					},
					"indices":15,
					"material":3
				},
				{
					"attributes":{
						"POSITION":16,
						"NORMAL":17,
						"TEXCOORD_0":18
					},
					"indices":19,
					"material":4
				},
				{
					"attributes":{
						"POSITION":20,
						"NORMAL":21,
						"TEXCOORD_0":22
					},
					"indices":23,
					"material":5
				},
				{
					"attributes":{
						"POSITION":24,
						"NORMAL":25,
						"TEXCOORD_0":26
					},
					"indices":27,
					"material":6
				}
			]
		}
	],
	"textures":[
		{
			"sampler":0,
			"source":0
		}
	],
	"images":[
		{
			"bufferView":12,
			"mimeType":"image/jpeg",
			"name":"Colour Pallete"
		}
	],
	"accessors":[
		{
			"bufferView":0,
			"componentType":5126,
			"count":886,
			"max":[
				5.325354099273682,
				1.2934210300445557,
				4.025437831878662
			],
			"min":[
				-5.325353145599365,
				-0.9676698446273804,
				-6.9396162033081055
			],
			"type":"VEC3"
		},
		{
			"bufferView":1,
			"componentType":5126,
			"count":886,
			"type":"VEC3"
		},
		{
			"bufferView":2,
			"componentType":5126,
			"count":886,
			"type":"VEC2"
		},
		{
			"bufferView":3,
			"componentType":5123,
			"count":2376,
			"type":"SCALAR"
		},
		{
			"bufferView":4,
			"componentType":5126,
			"count":28,
			"max":[
				0.7906880378723145,
				1.2934210300445557,
				-3.1119704246520996
			],
			"min":[
				-0.790687084197998,
				0.8104835152626038,
				-5.5047101974487305
			],
			"type":"VEC3"
		},
		{
			"bufferView":5,
			"componentType":5126,
			"count":28,
			"type":"VEC3"
		},
		{
			"bufferView":6,
			"componentType":5126,
			"count":28,
			"type":"VEC2"
		},
		{
			"bufferView":7,
			"componentType":5123,
			"count":60,
			"type":"SCALAR"
		},
		{
			"bufferView":8,
			"componentType":5126,
			"count":378,
			"max":[
				251.1099853515625,
				152.22262573242188,
				149.35850524902344
			],
			"min":[
				-251.1099853515625,
				-100.0000228881836,
				-161.8408660888672
			],
			"type":"VEC3"
		},
		{
			"bufferView":9,
			"componentType":5126,
			"count":378,
			"type":"VEC3"
		},
		{
			"bufferView":10,
			"componentType":5126,
			"count":378,
			"type":"VEC2"
		},
		{
			"bufferView":11,
			"componentType":5123,
			"count":942,
			"type":"SCALAR"
		},
		{
			"bufferView":13,
			"componentType":5126,
			"count":190,
			"max":[
				0.7490572333335876,
				1.2486298084259033,
				0.6330909729003906
			],
			"min":[
				-0.4941793978214264,
				-0.2682557702064514,
				-0.7874221205711365
			],
			"type":"VEC3"
		},
		{
			"bufferView":14,
			"componentType":5126,
			"count":190,
			"type":"VEC3"
		},
		{
			"bufferView":15,
			"componentType":5126,
			"count":190,
			"type":"VEC2"
		},
		{
			"bufferView":16,
			"componentType":5123,
			"count":288,
			"type":"SCALAR"
		},
		{
			"bufferView":17,
			"componentType":5126,
			"count":120,
			"max":[
				0.2640761137008667,
				0.2851932644844055,
				0.5306636095046997
			],
			"min":[
				-0.22873638570308685,
				-0.20887883007526398,
				-0.5071703791618347
			],
			"type":"VEC3"
		},
		{
			"bufferView":18,
			"componentType":5126,
			"count":120,
			"type":"VEC3"
		},
		{
			"bufferView":19,
			"componentType":5126,
			"count":120,
			"type":"VEC2"
		},
		{
			"bufferView":20,
			"componentType":5123,
			"count":180,
			"type":"SCALAR"
		},
		{
			"bufferView":21,
			"componentType":5126,
			"count":88,
			"max":[
				0.27954283356666565,
				-0.1633932888507843,
				0.3751317262649536
			],
			"min":[
				-0.3126044273376465,
				-0.5744816064834595,
				-0.37787753343582153
			],
			"type":"VEC3"
		},
		{
			"bufferView":22,
			"componentType":5126,
			"count":88,
			"type":"VEC3"
		},
		{
			"bufferView":23,
			"componentType":5126,
			"count":88,
			"type":"VEC2"
		},
		{
			"bufferView":24,
			"componentType":5123,
			"count":132,
			"type":"SCALAR"
		},
		{
			"bufferView":25,
			"componentType":5126,
			"count":40,
			"max":[
				0.29992467164993286,
				-0.4907531440258026,
				0.3566531538963318
			],
			"min":[
				-0.3138008415699005,
				-0.6651613116264343,
				-0.35665300488471985
			],
			"type":"VEC3"
		},
		{
			"bufferView":26,
			"componentType":5126,
			"count":40,
			"type":"VEC3"
		},
		{
			"bufferView":27,
			"componentType":5126,
			"count":40,
			"type":"VEC2"
		},
		{
			"bufferView":28,
			"componentType":5123,
			"count":60,
			"type":"SCALAR"
		}
	],
	"bufferViews":[
		{
			"buffer":0,
			"byteLength":10632,
			"byteOffset":0,
			"target":34962
		},
		{
			"buffer":0,
			"byteLength":10632,
			"byteOffset":10632,
			"target":34962
		},
		{
			"buffer":0,
			"byteLength":7088,
			"byteOffset":21264,
			"target":34962
		},
		{
			"buffer":0,
			"byteLength":4752,
			"byteOffset":28352,
			"target":34963
		},
		{
			"buffer":0,
			"byteLength":336,
			"byteOffset":33104,
			"target":34962
		},
		{
			"buffer":0,
			"byteLength":336,
			"byteOffset":33440,
			"target":34962
		},
		{
			"buffer":0,
			"byteLength":224,
			"byteOffset":33776,
			"target":34962
		},
		{
			"buffer":0,
			"byteLength":120,
			"byteOffset":34000,
			"target":34963
		},
		{
			"buffer":0,
			"byteLength":4536,
			"byteOffset":34120,
			"target":34962
		},
		{
			"buffer":0,
			"byteLength":4536,
			"byteOffset":38656,
			"target":34962
		},
		{
			"buffer":0,
			"byteLength":3024,
			"byteOffset":43192,
			"target":34962
		},
		{
			"buffer":0,
			"byteLength":1884,
			"byteOffset":46216,
			"target":34963
		},
		{
			"buffer":0,
			"byteLength":1285,
			"byteOffset":48100
		},
		{
			"buffer":0,
			"byteLength":2280,
			"byteOffset":49388,
			"target":34962
		},
		{
			"buffer":0,
			"byteLength":2280,
			"byteOffset":51668,
			"target":34962
		},
		{
			"buffer":0,
			"byteLength":1520,
			"byteOffset":53948,
			"target":34962
		},
		{
			"buffer":0,
			"byteLength":576,
			"byteOffset":55468,
			"target":34963
		},
		{
			"buffer":0,
			"byteLength":1440,
			"byteOffset":56044,
			"target":34962
		},
		{
			"buffer":0,
			"byteLength":1440,
			"byteOffset":57484,
			"target":34962
		},
		{
			"buffer":0,
			"byteLength":960,
			"byteOffset":58924,
			"target":34962
		},
		{
			"buffer":0,
			"byteLength":360,
			"byteOffset":59884,
			"target":34963
		},
		{
			"buffer":0,
			"byteLength":1056,
			"byteOffset":60244,
			"target":34962
		},
		{
			"buffer":0,
			"byteLength":1056,
			"byteOffset":61300,
			"target":34962
		},
		{
			"buffer":0,
			"byteLength":704,
			"byteOffset":62356,
			"target":34962
		},
		{
			"buffer":0,
			"byteLength":264,
			"byteOffset":63060,
			"target":34963
		},
		{
			"buffer":0,
			"byteLength":480,
			"byteOffset":63324,
			"target":34962
		},
		{
			"buffer":0,
			"byteLength":480,
			"byteOffset":63804,
			"target":34962
		},
		{
			"buffer":0,
			"byteLength":320,
			"byteOffset":64284,
			"target":34962
		},
		{
			"buffer":0,
			"byteLength":120,
			"byteOffset":64604,
			"target":34963
		}
	],
	"samplers":[
		{
			"magFilter":9729,
			"minFilter":9987
		}
	],
	"buffers":[
		{
			"byteLength":64724,
			"uri":"data:application/octet-stream;base64,"
		}
	]
}
