{
	"asset":{
		"generator":"Khronos glTF Blender I/O v3.6.27",
		"version":"2.0"
	},
	"scene":0,
	"scenes":[
		{
			"name":"Scene",
			"nodes":[
				0,
				1,
				2,
				3,
				4,
				5,
				6,
				7
			]
		}
	],
	"nodes":[
		{
			"mesh":0,
			"name":"Violet Cube",
			"rotation":[
				0,
				-0.34816816449165344,
				0,
				0.9374321103096008
			],
			"scale":[
				0.5894927978515625,
				0.5894927978515625,
				0.5894927978515625
			]
		},
		{
			"mesh":1,
			"name":"Yellow Cube",
			"rotation":[
				0,
				0.08594124019145966,
				0,
				0.996300220489502
			],
			"scale":[
				0.5894929766654968,
				0.5894927978515625,
				0.5894927978515625
			],
			"translation":[
				0.06747907400131226,
				0,
				0
			]
		},
		{
			"mesh":2,
			"name":"Pink Cube",
			"scale":[
				0.5894929766654968,
				0.5894927978515625,
				0.5894927978515625
			],
			"translation":[
				0.04326803237199783,
				0,
				0
			]
		},
		{
			"mesh":3,
			"name":"Java Paper.001",
			"rotation":[
				0.7071068286895752,
				0,
				0,
				0.7071068286895752
			],
			"scale":[
				2,
				2.0004098415374756,
				2
			],
			"translation":[
				0.06370920687913895,
				0,
				0
			]
		},
		{
			"mesh":4,
			"name":"Cube.001",
			"scale":[
				0.023291148245334625,
				0.06599096953868866,
				0.000681358331348747
			],
			"translation":[
				-0.10690315812826157,
				2.5099363327026367,
				0.5518043637275696
			]
		},
		{
			"mesh":5,
			"name":"Cube.002",
			"scale":[
				0.023291148245334625,
				0.057297345250844955,
				0.000681358331348747
			],
			"translation":[
				0.2528549134731293,
				2.5099363327026367,
				0.5518043637275696
			]
		},
		{
			"mesh":6,
			"name":"Cube.003",
			"rotation":[
				0.11785513907670975,
				-0.6972160339355469,
				0.11785513907670975,
				0.6972160339355469
			],
			"scale":[
				0.975531280040741,
				0.9755313992500305,
				0.9755313992500305
			],
			"translation":[
				1.6042866706848145,
				0.15088805556297302,
				0
			]
		},
		{
			"mesh":7,
			"name":"Cube",
			"translation":[
				1.0847256183624268,
				2.211575984954834,
				0
			]
		}
	],
	"materials":[
		{
			"doubleSided":true,
			"name":"Material.011",
			"pbrMetallicRoughness":{
				"baseColorFactor":[
					0.005118918139487505,
					0.47706136107444763,
					0.8000000715255737,
					1
				],
				"metallicFactor":0
			}
		},
		{
			"doubleSided":true,
			"name":"Material.012",
			"pbrMetallicRoughness":{
				"baseColorFactor":[
					0.10216749459505081,
					0.13945819437503815,
					0.8000000715255737,
					1
				],
				"metallicFactor":0
			}
		},
		{
			"doubleSided":true,
			"name":"Material.013",
			"pbrMetallicRoughness":{
				"baseColorFactor":[
					0.8000000715255737,
					0.027153877541422844,
					0.021181795746088028,
					1
				],
				"metallicFactor":0,
				"roughnessFactor":0.5
			}
		},
		{
			"doubleSided":true,
			"name":"Material.046",
			"pbrMetallicRoughness":{
				"baseColorTexture":{
					"index":0
				},
				"metallicFactor":0
			}
		},
		{
			"doubleSided":true,
			"name":"Material.047",
			"pbrMetallicRoughness":{
				"baseColorFactor":[
					0.800000011920929,
					0.6948959231376648,
					0.30600640177726746,
					1
				],
				"metallicFactor":0,
				"roughnessFactor":0.5
			}
		},
		{
			"doubleSided":true,
			"name":"Material.001",
			"pbrMetallicRoughness":{
				"baseColorFactor":[
					0.800000011920929,
					0.6948959231376648,
					0.30600640177726746,
					1
				],
				"metallicFactor":0,
				"roughnessFactor":0.5
			}
		},
		{
			"doubleSided":true,
			"name":"Material.002",
			"pbrMetallicRoughness":{
				"baseColorFactor":[
					0.10247369855642319,
					0.040067873895168304,
					0.01391796674579382,
					1
				],
				"metallicFactor":0,
				"roughnessFactor":0.5
			}
		},
		{
			"doubleSided":true,
			"name":"Skin",
			"pbrMetallicRoughness":{
				"baseColorFactor":[
					0.03735997900366783,
					0.012655874714255333,
					0.0033210432156920433,
					1
				],
				"metallicFactor":0
			}
		},
		{
			"doubleSided":true,
			"name":"T-Shirt",
			"pbrMetallicRoughness":{
				"baseColorFactor":[
					0.800000011920929,
					0.800000011920929,
					0.800000011920929,
					1
				],
				"metallicFactor":0
			}
		},
		{
			"doubleSided":true,
			"name":"Trousers",
			"pbrMetallicRoughness":{
				"baseColorFactor":[
					0.008075723424553871,
					0.008075723424553871,
					0.008075723424553871,
					1
				],
				"metallicFactor":0
			}
		},
		{
			"doubleSided":true,
			"name":"Shoes",
			"pbrMetallicRoughness":{
				"baseColorFactor":[
					0.8000000715255737,
					0.16822537779808044,
					0.025775495916604996,
					1
				],
				"metallicFactor":0,
				"roughnessFactor":0.5
			}
		}
	],
	"meshes":[
		{
			"name":"Cube.009",
			"primitives":[
				{
					"attributes":{
						"POSITION":0,
						"NORMAL":1,
						"TEXCOORD_0":2
					},
					"indices":3,
					"material":0
				}
			]
		},
		{
			"name":"Cube.010",
			"primitives":[
				{
					"attributes":{
						"POSITION":4,
						"NORMAL":5,
						"TEXCOORD_0":6
					},
					"indices":3,
					"material":1
				}
			]
		},
		{
			"name":"Cube.011",
			"primitives":[
				{
					"attributes":{
						"POSITION":7,
						"NORMAL":8,
						"TEXCOORD_0":9
					},
					"indices":3,
					"material":2
				}
			]
		},
		{
			"name":"Cube.004",
			"primitives":[
				{
					"attributes":{
						"POSITION":10,
						"NORMAL":11,
						"TEXCOORD_0":12
					},
					"indices":3,
					"material":3
				}
			]
		},
		{
			"name":"Cube.005",
			"primitives":[
				{
					"attributes":{
						"POSITION":13,
						"NORMAL":14,
						"TEXCOORD_0":15
					},
					"indices":3,
					"material":4
				}
			]
		},
		{
			"name":"Cube.001",
			"primitives":[
				{
					"attributes":{
						"POSITION":16,
						"NORMAL":17,
						"TEXCOORD_0":18
					},
					"indices":3,
					"material":5
				}
			]
		},
		{
			"name":"Cube.002",
			"primitives":[
				{
					"attributes":{
						"POSITION":19,
						"NORMAL":20,
						"TEXCOORD_0":21
					},
					"indices":22,
					"material":6
				}
			]
		},
		{
			"name":"Cube",
			"primitives":[
				{
					"attributes":{
						"POSITION":23,
						"NORMAL":24,
						"TEXCOORD_0":25
					},
					"indices":26,
					"material":7
				},
				{
					"attributes":{
						"POSITION":27,
						"NORMAL":28,
						"TEXCOORD_0":29
					},
					"indices":30,
					"material":8
				},
				{
					"attributes":{
						"POSITION":31,
						"NORMAL":32,
						"TEXCOORD_0":33
					},
					"indices":34,
					"material":9
				},
				{
					"attributes":{
						"POSITION":35,
						"NORMAL":36,
						"TEXCOORD_0":37
					},
					"indices":38,
					"material":10
				}
			]
		}
	],
	"textures":[
		{
			"sampler":0,
			"source":0
		}
	],
	"images":[
		{
			"bufferView":13,
			"mimeType":"image/jpeg",
			"name":"Eclipse"
		}
	],
	"accessors":[
		{
			"bufferView":0,
			"componentType":5126,
			"count":24,
			"max":[
				0.9964499473571777,
				2.0185546875,
				1.0447204113006592
			],
			"min":[
				-1.0035500526428223,
				0.01855456829071045,
				-0.9552795886993408
			],
			"type":"VEC3"
		},
		{
			"bufferView":1,
			"componentType":5126,
			"count":24,
			"type":"VEC3"
		},
		{
			"bufferView":2,
			"componentType":5126,
			"count":24,
			"type":"VEC2"
		},
		{
			"bufferView":3,
			"componentType":5123,
			"count":36,
			"type":"SCALAR"
		},
		{
			"bufferView":4,
			"componentType":5126,
			"count":24,
			"max":[
				1.0576521158218384,
				4.002296447753906,
				0.73732990026474
			],
			"min":[
				-0.9423481225967407,
				2.0022964477539062,
				-1.2626700401306152
			],
			"type":"VEC3"
		},
		{
			"bufferView":5,
			"componentType":5126,
			"count":24,
			"type":"VEC3"
		},
		{
			"bufferView":6,
			"componentType":5126,
			"count":24,
			"type":"VEC2"
		},
		{
			"bufferView":7,
			"componentType":5126,
			"count":24,
			"max":[
				1.0611510276794434,
				5.990909576416016,
				0.9330586194992065
			],
			"min":[
				-0.9388489723205566,
				3.9909095764160156,
				-1.0669413805007935
			],
			"type":"VEC3"
		},
		{
			"bufferView":8,
			"componentType":5126,
			"count":24,
			"type":"VEC3"
		},
		{
			"bufferView":9,
			"componentType":5126,
			"count":24,
			"type":"VEC2"
		},
		{
			"bufferView":10,
			"componentType":5126,
			"count":24,
			"max":[
				0.1354389488697052,
				0.27620112895965576,
				-0.8419674634933472
			],
			"min":[
				-0.12849782407283783,
				0.27527081966400146,
				-1.2511004209518433
			],
			"type":"VEC3"
		},
		{
			"bufferView":11,
			"componentType":5126,
			"count":24,
			"type":"VEC3"
		},
		{
			"bufferView":12,
			"componentType":5126,
			"count":24,
			"type":"VEC2"
		},
		{
			"bufferView":14,
			"componentType":5126,
			"count":24,
			"max":[
				1.0000004768371582,
				1,
				1
			],
			"min":[
				-0.9999990463256836,
				-1,
				-1
			],
			"type":"VEC3"
		},
		{
			"bufferView":15,
			"componentType":5126,
			"count":24,
			"type":"VEC3"
		},
		{
			"bufferView":16,
			"componentType":5126,
			"count":24,
			"type":"VEC2"
		},
		{
			"bufferView":17,
			"componentType":5126,
			"count":24,
			"max":[
				1,
				1,
				1
			],
			"min":[
				-1,
				-1,
				-1
			],
			"type":"VEC3"
		},
		{
			"bufferView":18,
			"componentType":5126,
			"count":24,
			"type":"VEC3"
		},
		{
			"bufferView":19,
			"componentType":5126,
			"count":24,
			"type":"VEC2"
		},
		{
			"bufferView":20,
			"componentType":5126,
			"count":208,
			"max":[
				0.5074666142463684,
				2.3730990886688232,
				0.14040249586105347
			],
			"min":[
				-0.5074666142463684,
				-0.1920177936553955,
				-0.14040249586105347
			],
			"type":"VEC3"
		},
		{
			"bufferView":21,
			"componentType":5126,
			"count":208,
			"type":"VEC3"
		},
		{
			"bufferView":22,
			"componentType":5126,
			"count":208,
			"type":"VEC2"
		},
		{
			"bufferView":23,
			"componentType":5123,
			"count":504,
			"type":"SCALAR"
		},
		{
			"bufferView":24,
			"componentType":5126,
			"count":230,
			"max":[
				0.6341721415519714,
				1.2052173614501953,
				0.5843532681465149
			],
			"min":[
				-0.4106999337673187,
				-0.0577521026134491,
				-0.5525088906288147
			],
			"type":"VEC3"
		},
		{
			"bufferView":25,
			"componentType":5126,
			"count":230,
			"type":"VEC3"
		},
		{
			"bufferView":26,
			"componentType":5126,
			"count":230,
			"type":"VEC2"
		},
		{
			"bufferView":27,
			"componentType":5123,
			"count":348,
			"type":"SCALAR"
		},
		{
			"bufferView":28,
			"componentType":5126,
			"count":80,
			"max":[
				0.22559577226638794,
				0.28938955068588257,
				0.49550533294677734
			],
			"min":[
				-0.17170856893062592,
				-0.19326497614383698,
				-0.4862535893917084
			],
			"type":"VEC3"
		},
		{
			"bufferView":29,
			"componentType":5126,
			"count":80,
			"type":"VEC3"
		},
		{
			"bufferView":30,
			"componentType":5126,
			"count":80,
			"type":"VEC2"
		},
		{
			"bufferView":31,
			"componentType":5123,
			"count":120,
			"type":"SCALAR"
		},
		{
			"bufferView":32,
			"componentType":5126,
			"count":86,
			"max":[
				0.18417204916477203,
				-0.18377253413200378,
				0.33955803513526917
			],
			"min":[
				-0.17170856893062592,
				-0.5340287685394287,
				-0.3398396968841553
			],
			"type":"VEC3"
		},
		{
			"bufferView":33,
			"componentType":5126,
			"count":86,
			"type":"VEC3"
		},
		{
			"bufferView":34,
			"componentType":5126,
			"count":86,
			"type":"VEC2"
		},
		{
			"bufferView":35,
			"componentType":5123,
			"count":132,
			"type":"SCALAR"
		},
		{
			"bufferView":36,
			"componentType":5126,
			"count":40,
			"max":[
				0.16311010718345642,
				-0.5340287685394287,
				0.31767216324806213
			],
			"min":[
				-0.16311009228229523,
				-0.6210787296295166,
				-0.3176719844341278
			],
			"type":"VEC3"
		},
		{
			"bufferView":37,
			"componentType":5126,
			"count":40,
			"type":"VEC3"
		},
		{
			"bufferView":38,
			"componentType":5126,
			"count":40,
			"type":"VEC2"
		},
		{
			"bufferView":39,
			"componentType":5123,
			"count":60,
			"type":"SCALAR"
		}
	],
	"bufferViews":[
		{
			"buffer":0,
			"byteLength":288,
			"byteOffset":0,
			"target":34962
		},
		{
			"buffer":0,
			"byteLength":288,
			"byteOffset":288,
			"target":34962
		},
		{
			"buffer":0,
			"byteLength":192,
			"byteOffset":576,
			"target":34962
		},
		{
			"buffer":0,
			"byteLength":72,
			"byteOffset":768,
			"target":34963
		},
		{
			"buffer":0,
			"byteLength":288,
			"byteOffset":840,
			"target":34962
		},
		{
			"buffer":0,
			"byteLength":288,
			"byteOffset":1128,
			"target":34962
		},
		{
			"buffer":0,
			"byteLength":192,
			"byteOffset":1416,
			"target":34962
		},
		{
			"buffer":0,
			"byteLength":288,
			"byteOffset":1608,
			"target":34962
		},
		{
			"buffer":0,
			"byteLength":288,
			"byteOffset":1896,
			"target":34962
		},
		{
			"buffer":0,
			"byteLength":192,
			"byteOffset":2184,
			"target":34962
		},
		{
			"buffer":0,
			"byteLength":288,
			"byteOffset":2376,
			"target":34962
		},
		{
			"buffer":0,
			"byteLength":288,
			"byteOffset":2664,
			"target":34962
		},
		{
			"buffer":0,
			"byteLength":192,
			"byteOffset":2952,
			"target":34962
		},
		{
			"buffer":0,
			"byteLength":5261,
			"byteOffset":3144
		},
		{
			"buffer":0,
			"byteLength":288,
			"byteOffset":8408,
			"target":34962
		},
		{
			"buffer":0,
			"byteLength":288,
			"byteOffset":8696,
			"target":34962
		},
		{
			"buffer":0,
			"byteLength":192,
			"byteOffset":8984,
			"target":34962
		},
		{
			"buffer":0,
			"byteLength":288,
			"byteOffset":9176,
			"target":34962
		},
		{
			"buffer":0,
			"byteLength":288,
			"byteOffset":9464,
			"target":34962
		},
		{
			"buffer":0,
			"byteLength":192,
			"byteOffset":9752,
			"target":34962
		},
		{
			"buffer":0,
			"byteLength":2496,
			"byteOffset":9944,
			"target":34962
		},
		{
			"buffer":0,
			"byteLength":2496,
			"byteOffset":12440,
			"target":34962
		},
		{
			"buffer":0,
			"byteLength":1664,
			"byteOffset":14936,
			"target":34962
		},
		{
			"buffer":0,
			"byteLength":1008,
			"byteOffset":16600,
			"target":34963
		},
		{
			"buffer":0,
			"byteLength":2760,
			"byteOffset":17608,
			"target":34962
		},
		{
			"buffer":0,
			"byteLength":2760,
			"byteOffset":20368,
			"target":34962
		},
		{
			"buffer":0,
			"byteLength":1840,
			"byteOffset":23128,
			"target":34962
		},
		{
			"buffer":0,
			"byteLength":696,
			"byteOffset":24968,
			"target":34963
		},
		{
			"buffer":0,
			"byteLength":960,
			"byteOffset":25664,
			"target":34962
		},
		{
			"buffer":0,
			"byteLength":960,
			"byteOffset":26624,
			"target":34962
		},
		{
			"buffer":0,
			"byteLength":640,
			"byteOffset":27584,
			"target":34962
		},
		{
			"buffer":0,
			"byteLength":240,
			"byteOffset":28224,
			"target":34963
		},
		{
			"buffer":0,
			"byteLength":1032,
			"byteOffset":28464,
			"target":34962
		},
		{
			"buffer":0,
			"byteLength":1032,
			"byteOffset":29496,
			"target":34962
		},
		{
			"buffer":0,
			"byteLength":688,
			"byteOffset":30528,
			"target":34962
		},
		{
			"buffer":0,
			"byteLength":264,
			"byteOffset":31216,
			"target":34963
		},
		{
			"buffer":0,
			"byteLength":480,
			"byteOffset":31480,
			"target":34962
		},
		{
			"buffer":0,
			"byteLength":480,
			"byteOffset":31960,
			"target":34962
		},
		{
			"buffer":0,
			"byteLength":320,
			"byteOffset":32440,
			"target":34962
		},
		{
			"buffer":0,
			"byteLength":120,
			"byteOffset":32760,
			"target":34963
		}
	],
	"samplers":[
		{
			"magFilter":9729,
			"minFilter":9987
		}
	],
	"buffers":[
		{
			"byteLength":32880,
			"uri":"data:application/octet-stream;base64,"
		}
	]
}
