{
	"asset":{
		"generator":"Khronos glTF Blender I/O v3.6.27",
		"version":"2.0"
	},
	"scene":0,
	"scenes":[
		{
			"name":"Scene",
			"nodes":[
				0,
				1,
				2
			]
		}
	],
	"nodes":[
		{
			"mesh":0,
			"name":"Fish Tank",
			"translation":[
				-0.008866172283887863,
				0.32588839530944824,
				-0.011374815367162228
			]
		},
		{
			"mesh":1,
			"name":"Product 1",
			"scale":[
				0.17585808038711548,
				0.17585808038711548,
				0.17585808038711548
			],
			"translation":[
				0.5653045177459717,
				-0.11107025295495987,
				-0.5961219072341919
			]
		},
		{
			"mesh":2,
			"name":"Product 2",
			"scale":[
				2.0163135528564453,
				2.0163135528564453,
				2.0163135528564453
			],
			"translation":[
				0.7172317504882812,
				0.04129396378993988,
				-1.0538330078125
			]
		}
	],
	"materials":[
		{
			"doubleSided":true,
			"name":"Material",
			"pbrMetallicRoughness":{
				"baseColorFactor":[
					0.0025794128887355328,
					0.0025794128887355328,
					0.0025794128887355328,
					1
				],
				"metallicFactor":0
			}
		},
		{
			"alphaMode":"BLEND",
			"doubleSided":true,
			"name":"Glass",
			"pbrMetallicRoughness":{
				"baseColorFactor":[
					0.4661473035812378,
					0.8000000715255737,
					0.777131199836731,
					0.19685041904449463
				],
				"metallicFactor":0,
				"roughnessFactor":0.5
			}
		},
		{
			"alphaMode":"BLEND",
			"doubleSided":true,
			"name":"Water",
			"pbrMetallicRoughness":{
				"baseColorFactor":[
					0.07332819700241089,
					0.4050195813179016,
					0.8000000715255737,
					0.5511811375617981
				],
				"metallicFactor":0,
				"roughnessFactor":0.5
			}
		},
		{
			"doubleSided":true,
			"name":"Container.001",
			"pbrMetallicRoughness":{
				"baseColorFactor":[
					0.16755585372447968,
					0.4895226061344147,
					0.8000000715255737,
					1
				],
				"metallicFactor":0,
				"roughnessFactor":0.5
			}
		},
		{
			"doubleSided":true,
			"name":"Label.001",
			"pbrMetallicRoughness":{
				"baseColorFactor":[
					0.8000000715255737,
					0.691849946975708,
					0.10216749459505081,
					1
				],
				"metallicFactor":0,
				"roughnessFactor":0.5
			}
		},
		{
			"doubleSided":true,
			"name":"Lid.001",
			"pbrMetallicRoughness":{
				"baseColorFactor":[
					0.01884760893881321,
					0.01884760893881321,
					0.01884760893881321,
					1
				],
				"metallicFactor":0,
				"roughnessFactor":0.5
			}
		},
		{
			"doubleSided":true,
			"name":"Container",
			"pbrMetallicRoughness":{
				"baseColorFactor":[
					0.4331595301628113,
					0.8000000715255737,
					0.25498610734939575,
					1
				],
				"metallicFactor":0,
				"roughnessFactor":0.5
			}
		},
		{
			"doubleSided":true,
			"name":"Label",
			"pbrMetallicRoughness":{
				"baseColorFactor":[
					0.8000000715255737,
					0.3966502249240875,
					0.29676130414009094,
					1
				],
				"metallicFactor":0,
				"roughnessFactor":0.5
			}
		},
		{
			"doubleSided":true,
			"name":"Lid",
			"pbrMetallicRoughness":{
				"baseColorFactor":[
					0.5701100826263428,
					0.8000000715255737,
					0.4472479820251465,
					1
				],
				"metallicFactor":0,
				"roughnessFactor":0.5
			}
		}
	],
	"meshes":[
		{
			"name":"Cube",
			"primitives":[
				{
					"attributes":{
						"POSITION":0,
						"NORMAL":1,
						"TEXCOORD_0":2
					},
					"indices":3,
					"material":0
				},
				{
					"attributes":{
						"POSITION":4,
						"NORMAL":5,
						"TEXCOORD_0":6
					},
					"indices":7,
					"material":1
				},
				{
					"attributes":{
						"POSITION":8,
						"NORMAL":9,
						"TEXCOORD_0":10
					},
					"indices":11,
					"material":2
				}
			]
		},
		{
			"name":"Cube.001",
			"primitives":[
				{
					"attributes":{
						"POSITION":12,
						"NORMAL":13,
						"TEXCOORD_0":14
					},
					"indices":15,
					"material":3
				},
				{
					"attributes":{
						"POSITION":16,
						"NORMAL":17,
						"TEXCOORD_0":18
					},
					"indices":19,
					"material":4
				},
				{
					"attributes":{
						"POSITION":20,
						"NORMAL":21,
						"TEXCOORD_0":22
					},
					"indices":23,
					"material":5
				}
			]
		},
		{
			"name":"Cube.002",
			"primitives":[
				{
					"attributes":{
						"POSITION":24,
						"NORMAL":25,
						"TEXCOORD_0":26
					},
					"indices":27,
					"material":6
				},
				{
					"attributes":{
						"POSITION":28,
						"NORMAL":29,
						"TEXCOORD_0":30
					},
					"indices":19,
					"material":7
				},
				{
					"attributes":{
						"POSITION":31,
						"NORMAL":32,
						"TEXCOORD_0":33
					},
					"indices":34,
					"material":8
				}
			]
		}
	],
	"accessors":[
		{
			"bufferView":0,
			"componentType":5126,
			"count":432,
			"max":[
				1.0088661909103394,
				2.2027907371520996,
				1.8654735088348389
			],
			"min":[
				-0.8662112951278687,
				-1.3258883953094482,
				-1.8427238464355469
			],
			"type":"VEC3"
		},
		{
			"bufferView":1,
			"componentType":5126,
			"count":432,
			"type":"VEC3"
		},
		{
			"bufferView":2,
			"componentType":5126,
			"count":432,
			"type":"VEC2"
		},
		{
			"bufferView":3,
			"componentType":5123,
			"count":996,
			"type":"SCALAR"
		},
		{
			"bufferView":4,
			"componentType":5126,
			"count":36,
			"max":[
				1.0088661909103394,
				2.0782854557037354,
				1.8654735088348389
			],
			"min":[
				-0.8662112951278687,
				0.1374250054359436,
				-1.8427238464355469
			],
			"type":"VEC3"
		},
		{
			"bufferView":5,
			"componentType":5126,
			"count":36,
			"type":"VEC3"
		},
		{
			"bufferView":6,
			"componentType":5126,
			"count":36,
			"type":"VEC2"
		},
		{
			"bufferView":7,
			"componentType":5123,
			"count":78,
			"type":"SCALAR"
		},
		{
			"bufferView":8,
			"componentType":5126,
			"count":16,
			"max":[
				0.8658515214920044,
				1.9027926921844482,
				1.7134047746658325
			],
			"min":[
				-0.723196804523468,
				0.1374250054359436,
				-1.6906551122665405
			],
			"type":"VEC3"
		},
		{
			"bufferView":9,
			"componentType":5126,
			"count":16,
			"type":"VEC3"
		},
		{
			"bufferView":10,
			"componentType":5126,
			"count":16,
			"type":"VEC2"
		},
		{
			"bufferView":11,
			"componentType":5123,
			"count":24,
			"type":"SCALAR"
		},
		{
			"bufferView":12,
			"componentType":5126,
			"count":36,
			"max":[
				1,
				0.3336804509162903,
				1
			],
			"min":[
				-1,
				-0.680588960647583,
				-1
			],
			"type":"VEC3"
		},
		{
			"bufferView":13,
			"componentType":5126,
			"count":36,
			"type":"VEC3"
		},
		{
			"bufferView":14,
			"componentType":5126,
			"count":36,
			"type":"VEC2"
		},
		{
			"bufferView":15,
			"componentType":5123,
			"count":54,
			"type":"SCALAR"
		},
		{
			"bufferView":16,
			"componentType":5126,
			"count":16,
			"max":[
				0.9999998807907104,
				0.18453040719032288,
				0.9999999403953552
			],
			"min":[
				-0.9999999403953552,
				-0.5314388275146484,
				-0.9999999403953552
			],
			"type":"VEC3"
		},
		{
			"bufferView":17,
			"componentType":5126,
			"count":16,
			"type":"VEC3"
		},
		{
			"bufferView":18,
			"componentType":5126,
			"count":16,
			"type":"VEC2"
		},
		{
			"bufferView":19,
			"componentType":5123,
			"count":24,
			"type":"SCALAR"
		},
		{
			"bufferView":20,
			"componentType":5126,
			"count":20,
			"max":[
				1,
				0.6938170194625854,
				1
			],
			"min":[
				-1,
				0.3336804509162903,
				-1
			],
			"type":"VEC3"
		},
		{
			"bufferView":21,
			"componentType":5126,
			"count":20,
			"type":"VEC3"
		},
		{
			"bufferView":22,
			"componentType":5126,
			"count":20,
			"type":"VEC2"
		},
		{
			"bufferView":23,
			"componentType":5123,
			"count":30,
			"type":"SCALAR"
		},
		{
			"bufferView":24,
			"componentType":5126,
			"count":51,
			"max":[
				0.04350792616605759,
				0.04587152227759361,
				0.04350793734192848
			],
			"min":[
				-0.04350792244076729,
				-0.12967923283576965,
				-0.04350793734192848
			],
			"type":"VEC3"
		},
		{
			"bufferView":25,
			"componentType":5126,
			"count":51,
			"type":"VEC3"
		},
		{
			"bufferView":26,
			"componentType":5126,
			"count":51,
			"type":"VEC2"
		},
		{
			"bufferView":27,
			"componentType":5123,
			"count":102,
			"type":"SCALAR"
		},
		{
			"bufferView":28,
			"componentType":5126,
			"count":16,
			"max":[
				0.04350792616605759,
				0.02391260489821434,
				0.04350793734192848
			],
			"min":[
				-0.04350792244076729,
				-0.10772031545639038,
				-0.04350793734192848
			],
			"type":"VEC3"
		},
		{
			"bufferView":29,
			"componentType":5126,
			"count":16,
			"type":"VEC3"
		},
		{
			"bufferView":30,
			"componentType":5126,
			"count":16,
			"type":"VEC2"
		},
		{
			"bufferView":31,
			"componentType":5126,
			"count":20,
			"max":[
				0.018351998180150986,
				0.07587237656116486,
				0.018352007493376732
			],
			"min":[
				-0.018352005630731583,
				0.04587152227759361,
				-0.018352007493376732
			],
			"type":"VEC3"
		},
		{
			"bufferView":32,
			"componentType":5126,
			"count":20,
			"type":"VEC3"
		},
		{
			"bufferView":33,
			"componentType":5126,
			"count":20,
			"type":"VEC2"
		},
		{
			"bufferView":34,
			"componentType":5123,
			"count":30,
			"type":"SCALAR"
		}
	],
	"bufferViews":[
		{
			"buffer":0,
			"byteLength":5184,
			"byteOffset":0,
			"target":34962
		},
		{
			"buffer":0,
			"byteLength":5184,
			"byteOffset":5184,
			"target":34962
		},
		{
			"buffer":0,
			"byteLength":3456,
			"byteOffset":10368,
			"target":34962
		},
		{
			"buffer":0,
			"byteLength":1992,
			"byteOffset":13824,
			"target":34963
		},
		{
			"buffer":0,
			"byteLength":432,
			"byteOffset":15816,
			"target":34962
		},
		{
			"buffer":0,
			"byteLength":432,
			"byteOffset":16248,
			"target":34962
		},
		{
			"buffer":0,
			"byteLength":288,
			"byteOffset":16680,
			"target":34962
		},
		{
			"buffer":0,
			"byteLength":156,
			"byteOffset":16968,
			"target":34963
		},
		{
			"buffer":0,
			"byteLength":192,
			"byteOffset":17124,
			"target":34962
		},
		{
			"buffer":0,
			"byteLength":192,
			"byteOffset":17316,
			"target":34962
		},
		{
			"buffer":0,
			"byteLength":128,
			"byteOffset":17508,
			"target":34962
		},
		{
			"buffer":0,
			"byteLength":48,
			"byteOffset":17636,
			"target":34963
		},
		{
			"buffer":0,
			"byteLength":432,
			"byteOffset":17684,
			"target":34962
		},
		{
			"buffer":0,
			"byteLength":432,
			"byteOffset":18116,
			"target":34962
		},
		{
			"buffer":0,
			"byteLength":288,
			"byteOffset":18548,
			"target":34962
		},
		{
			"buffer":0,
			"byteLength":108,
			"byteOffset":18836,
			"target":34963
		},
		{
			"buffer":0,
			"byteLength":192,
			"byteOffset":18944,
			"target":34962
		},
		{
			"buffer":0,
			"byteLength":192,
			"byteOffset":19136,
			"target":34962
		},
		{
			"buffer":0,
			"byteLength":128,
			"byteOffset":19328,
			"target":34962
		},
		{
			"buffer":0,
			"byteLength":48,
			"byteOffset":19456,
			"target":34963
		},
		{
			"buffer":0,
			"byteLength":240,
			"byteOffset":19504,
			"target":34962
		},
		{
			"buffer":0,
			"byteLength":240,
			"byteOffset":19744,
			"target":34962
		},
		{
			"buffer":0,
			"byteLength":160,
			"byteOffset":19984,
			"target":34962
		},
		{
			"buffer":0,
			"byteLength":60,
			"byteOffset":20144,
			"target":34963
		},
		{
			"buffer":0,
			"byteLength":612,
			"byteOffset":20204,
			"target":34962
		},
		{
			"buffer":0,
			"byteLength":612,
			"byteOffset":20816,
			"target":34962
		},
		{
			"buffer":0,
			"byteLength":408,
			"byteOffset":21428,
			"target":34962
		},
		{
			"buffer":0,
			"byteLength":204,
			"byteOffset":21836,
			"target":34963
		},
		{
			"buffer":0,
			"byteLength":192,
			"byteOffset":22040,
			"target":34962
		},
		{
			"buffer":0,
			"byteLength":192,
			"byteOffset":22232,
			"target":34962
		},
		{
			"buffer":0,
			"byteLength":128,
			"byteOffset":22424,
			"target":34962
		},
		{
			"buffer":0,
			"byteLength":240,
			"byteOffset":22552,
			"target":34962
		},
		{
			"buffer":0,
			"byteLength":240,
			"byteOffset":22792,
			"target":34962
		},
		{
			"buffer":0,
			"byteLength":160,
			"byteOffset":23032,
			"target":34962
		},
		{
			"buffer":0,
			"byteLength":60,
			"byteOffset":23192,
			"target":34963
		}
	],
	"buffers":[
		{
			"byteLength":23252,
			"uri":"data:application/octet-stream;base64,"
		}
	]
}
