{
	"asset":{
		"generator":"Khronos glTF Blender I/O v3.6.27",
		"version":"2.0"
	},
	"scene":0,
	"scenes":[
		{
			"name":"Scene",
			"nodes":[
				0,
				1,
				2,
				3,
				4
			]
		}
	],
	"nodes":[
		{
			"mesh":0,
			"name":"Bench",
			"scale":[
				1.9374421834945679,
				1.9374421834945679,
				1.9374421834945679
			],
			"translation":[
				-1.0041496753692627,
				0.4334806799888611,
				-0.000489570782519877
			]
		},
		{
			"mesh":1,
			"name":"Stand",
			"scale":[
				0.10183537006378174,
				0.10183537006378174,
				0.10183537006378174
			],
			"translation":[
				-1.0041496753692627,
				0.4334806799888611,
				-0.000489570782519877
			]
		},
		{
			"mesh":2,
			"name":"Weights",
			"scale":[
				0.25813135504722595,
				0.25813135504722595,
				0.04844098538160324
			],
			"translation":[
				-0.6176638603210449,
				0.9472460150718689,
				0.0035576762165874243
			]
		},
		{
			"mesh":3,
			"name":"Character 1",
			"rotation":[
				0,
				0,
				-0.7071068286895752,
				0.7071068286895752
			],
			"translation":[
				-0.6298850178718567,
				0.6403467655181885,
				0
			]
		},
		{
			"mesh":4,
			"name":"Character 2",
			"translation":[
				0.9670408368110657,
				0.6144697666168213,
				0
			]
		}
	],
	"materials":[
		{
			"doubleSided":true,
			"name":"Material",
			"pbrMetallicRoughness":{
				"baseColorFactor":[
					0.01002166885882616,
					0.01002166885882616,
					0.01002166885882616,
					1
				],
				"metallicFactor":0
			}
		},
		{
			"doubleSided":true,
			"name":"Material.004",
			"pbrMetallicRoughness":{
				"baseColorFactor":[
					0.04954899847507477,
					0.04954899847507477,
					0.04954899847507477,
					1
				],
				"metallicFactor":0,
				"roughnessFactor":0.5
			}
		},
		{
			"doubleSided":true,
			"name":"Material.003",
			"pbrMetallicRoughness":{
				"baseColorFactor":[
					0.04954899847507477,
					0.04954899847507477,
					0.04954899847507477,
					1
				],
				"metallicFactor":0
			}
		},
		{
			"doubleSided":true,
			"name":"Material.001",
			"pbrMetallicRoughness":{
				"baseColorFactor":[
					0.027209725230932236,
					0.027209725230932236,
					0.027209725230932236,
					1
				],
				"metallicFactor":0
			}
		},
		{
			"doubleSided":true,
			"name":"Material.002",
			"pbrMetallicRoughness":{
				"baseColorFactor":[
					0.12371012568473816,
					0.12371012568473816,
					0.12371012568473816,
					1
				],
				"metallicFactor":0
			}
		},
		{
			"doubleSided":true,
			"name":"Skin",
			"pbrMetallicRoughness":{
				"baseColorFactor":[
					0.03735997900366783,
					0.012655874714255333,
					0.0033210432156920433,
					1
				],
				"metallicFactor":0
			}
		},
		{
			"doubleSided":true,
			"name":"T-Shirt",
			"pbrMetallicRoughness":{
				"baseColorFactor":[
					0.800000011920929,
					0.800000011920929,
					0.800000011920929,
					1
				],
				"metallicFactor":0
			}
		},
		{
			"doubleSided":true,
			"name":"Trousers",
			"pbrMetallicRoughness":{
				"baseColorFactor":[
					0.008075723424553871,
					0.008075723424553871,
					0.008075723424553871,
					1
				],
				"metallicFactor":0
			}
		},
		{
			"doubleSided":true,
			"name":"Shoes",
			"pbrMetallicRoughness":{
				"baseColorFactor":[
					0.8000000715255737,
					0.16822537779808044,
					0.025775495916604996,
					1
				],
				"metallicFactor":0,
				"roughnessFactor":0.5
			}
		},
		{
			"doubleSided":true,
			"name":"Skin.001",
			"pbrMetallicRoughness":{
				"baseColorFactor":[
					0.03735997900366783,
					0.012655874714255333,
					0.0033210432156920433,
					1
				],
				"metallicFactor":0
			}
		},
		{
			"doubleSided":true,
			"name":"T-Shirt.001",
			"pbrMetallicRoughness":{
				"baseColorFactor":[
					0.800000011920929,
					0.800000011920929,
					0.800000011920929,
					1
				],
				"metallicFactor":0
			}
		},
		{
			"doubleSided":true,
			"name":"Trousers.001",
			"pbrMetallicRoughness":{
				"baseColorFactor":[
					0.008075723424553871,
					0.008075723424553871,
					0.008075723424553871,
					1
				],
				"metallicFactor":0
			}
		},
		{
			"doubleSided":true,
			"name":"Shoes.001",
			"pbrMetallicRoughness":{
				"baseColorFactor":[
					0.8000000715255737,
					0.16822537779808044,
					0.025775495916604996,
					1
				],
				"metallicFactor":0,
				"roughnessFactor":0.5
			}
		}
	],
	"meshes":[
		{
			"name":"Cube",
			"primitives":[
				{
					"attributes":{
						"POSITION":0,
						"NORMAL":1,
						"TEXCOORD_0":2
					},
					"indices":3,
					"material":0
				},
				{
					"attributes":{
						"POSITION":4,
						"NORMAL":5,
						"TEXCOORD_0":6
					},
					"indices":7,
					"material":1
				}
			]
		},
		{
			"name":"Cube.001",
			"primitives":[
				{
					"attributes":{
						"POSITION":8,
						"NORMAL":9,
						"TEXCOORD_0":10
					},
					"indices":11,
					"material":2
				}
			]
		},
		{
			"name":"Cube.003",
			"primitives":[
				{
					"attributes":{
						"POSITION":12,
						"NORMAL":13,
						"TEXCOORD_0":14
					},
					"indices":15,
					"material":3
				},
				{
					"attributes":{
						"POSITION":16,
						"NORMAL":17,
						"TEXCOORD_0":18
					},
					"indices":19,
					"material":4
				}
			]
		},
		{
			"name":"Cube.004",
			"primitives":[
				{
					"attributes":{
						"POSITION":20,
						"NORMAL":21,
						"TEXCOORD_0":22
					},
					"indices":23,
					"material":5
				},
				{
					"attributes":{
						"POSITION":24,
						"NORMAL":25,
						"TEXCOORD_0":26
					},
					"indices":27,
					"material":6
				},
				{
					"attributes":{
						"POSITION":28,
						"NORMAL":29,
						"TEXCOORD_0":30
					},
					"indices":31,
					"material":7
				},
				{
					"attributes":{
						"POSITION":32,
						"NORMAL":33,
						"TEXCOORD_0":34
					},
					"indices":35,
					"material":8
				}
			]
		},
		{
			"name":"Cube.005",
			"primitives":[
				{
					"attributes":{
						"POSITION":36,
						"NORMAL":37,
						"TEXCOORD_0":38
					},
					"indices":39,
					"material":9
				},
				{
					"attributes":{
						"POSITION":40,
						"NORMAL":41,
						"TEXCOORD_0":42
					},
					"indices":43,
					"material":10
				},
				{
					"attributes":{
						"POSITION":44,
						"NORMAL":45,
						"TEXCOORD_0":46
					},
					"indices":47,
					"material":11
				},
				{
					"attributes":{
						"POSITION":48,
						"NORMAL":49,
						"TEXCOORD_0":50
					},
					"indices":51,
					"material":12
				}
			]
		}
	],
	"accessors":[
		{
			"bufferView":0,
			"componentType":5126,
			"count":468,
			"max":[
				0.7384555339813232,
				0.027084873989224434,
				0.2649182379245758
			],
			"min":[
				-0.7384555339813232,
				-0.027084873989224434,
				-0.26491817831993103
			],
			"type":"VEC3"
		},
		{
			"bufferView":1,
			"componentType":5126,
			"count":468,
			"type":"VEC3"
		},
		{
			"bufferView":2,
			"componentType":5126,
			"count":468,
			"type":"VEC2"
		},
		{
			"bufferView":3,
			"componentType":5123,
			"count":2064,
			"type":"SCALAR"
		},
		{
			"bufferView":4,
			"componentType":5126,
			"count":100,
			"max":[
				-0.6710386872291565,
				-0.027084873989224434,
				0.041453856974840164
			],
			"min":[
				-0.7238218188285828,
				-0.22188183665275574,
				-0.04145381972193718
			],
			"type":"VEC3"
		},
		{
			"bufferView":5,
			"componentType":5126,
			"count":100,
			"type":"VEC3"
		},
		{
			"bufferView":6,
			"componentType":5126,
			"count":100,
			"type":"VEC2"
		},
		{
			"bufferView":7,
			"componentType":5123,
			"count":252,
			"type":"SCALAR"
		},
		{
			"bufferView":8,
			"componentType":5126,
			"count":352,
			"max":[
				10.458855628967285,
				7.319789886474609,
				9.060467720031738
			],
			"min":[
				9.495098114013672,
				-4.243831157684326,
				-9.060467720031738
			],
			"type":"VEC3"
		},
		{
			"bufferView":9,
			"componentType":5126,
			"count":352,
			"type":"VEC3"
		},
		{
			"bufferView":10,
			"componentType":5126,
			"count":352,
			"type":"VEC2"
		},
		{
			"bufferView":11,
			"componentType":5123,
			"count":780,
			"type":"SCALAR"
		},
		{
			"bufferView":12,
			"componentType":5126,
			"count":48,
			"max":[
				1,
				1,
				22.2445011138916
			],
			"min":[
				-1,
				-1,
				-22.2445011138916
			],
			"type":"VEC3"
		},
		{
			"bufferView":13,
			"componentType":5126,
			"count":48,
			"type":"VEC3"
		},
		{
			"bufferView":14,
			"componentType":5126,
			"count":48,
			"type":"VEC2"
		},
		{
			"bufferView":15,
			"componentType":5123,
			"count":72,
			"type":"SCALAR"
		},
		{
			"bufferView":16,
			"componentType":5126,
			"count":24,
			"max":[
				0.0980091318488121,
				0.13928213715553284,
				26.406978607177734
			],
			"min":[
				-0.09810526669025421,
				-0.05683226138353348,
				-26.574077606201172
			],
			"type":"VEC3"
		},
		{
			"bufferView":17,
			"componentType":5126,
			"count":24,
			"type":"VEC3"
		},
		{
			"bufferView":18,
			"componentType":5126,
			"count":24,
			"type":"VEC2"
		},
		{
			"bufferView":19,
			"componentType":5123,
			"count":36,
			"type":"SCALAR"
		},
		{
			"bufferView":20,
			"componentType":5126,
			"count":222,
			"max":[
				0.38373062014579773,
				1.2237825393676758,
				0.6641541123390198
			],
			"min":[
				-0.7534267902374268,
				-0.12997251749038696,
				-0.6046335101127625
			],
			"type":"VEC3"
		},
		{
			"bufferView":21,
			"componentType":5126,
			"count":222,
			"type":"VEC3"
		},
		{
			"bufferView":22,
			"componentType":5126,
			"count":222,
			"type":"VEC2"
		},
		{
			"bufferView":23,
			"componentType":5123,
			"count":336,
			"type":"SCALAR"
		},
		{
			"bufferView":24,
			"componentType":5126,
			"count":88,
			"max":[
				0.2133973091840744,
				0.2617124021053314,
				0.5296280384063721
			],
			"min":[
				-0.17165851593017578,
				-0.2299681156873703,
				-0.5185610055923462
			],
			"type":"VEC3"
		},
		{
			"bufferView":25,
			"componentType":5126,
			"count":88,
			"type":"VEC3"
		},
		{
			"bufferView":26,
			"componentType":5126,
			"count":88,
			"type":"VEC2"
		},
		{
			"bufferView":27,
			"componentType":5123,
			"count":132,
			"type":"SCALAR"
		},
		{
			"bufferView":28,
			"componentType":5126,
			"count":88,
			"max":[
				0.19479487836360931,
				-0.17235392332077026,
				0.3412601351737976
			],
			"min":[
				-0.1855952888727188,
				-0.5674773454666138,
				-0.33786553144454956
			],
			"type":"VEC3"
		},
		{
			"bufferView":29,
			"componentType":5126,
			"count":88,
			"type":"VEC3"
		},
		{
			"bufferView":30,
			"componentType":5126,
			"count":88,
			"type":"VEC2"
		},
		{
			"bufferView":31,
			"componentType":5123,
			"count":132,
			"type":"SCALAR"
		},
		{
			"bufferView":32,
			"componentType":5126,
			"count":40,
			"max":[
				0.16727802157402039,
				-0.48534539341926575,
				0.31767216324806213
			],
			"min":[
				-0.16734880208969116,
				-0.6601535081863403,
				-0.3176719844341278
			],
			"type":"VEC3"
		},
		{
			"bufferView":33,
			"componentType":5126,
			"count":40,
			"type":"VEC3"
		},
		{
			"bufferView":34,
			"componentType":5126,
			"count":40,
			"type":"VEC2"
		},
		{
			"bufferView":35,
			"componentType":5123,
			"count":60,
			"type":"SCALAR"
		},
		{
			"bufferView":36,
			"componentType":5126,
			"count":216,
			"max":[
				0.4241582751274109,
				1.1556975841522217,
				0.698685884475708
			],
			"min":[
				-0.49432748556137085,
				-0.2548881471157074,
				-0.5828744173049927
			],
			"type":"VEC3"
		},
		{
			"bufferView":37,
			"componentType":5126,
			"count":216,
			"type":"VEC3"
		},
		{
			"bufferView":38,
			"componentType":5126,
			"count":216,
			"type":"VEC2"
		},
		{
			"bufferView":39,
			"componentType":5123,
			"count":336,
			"type":"SCALAR"
		},
		{
			"bufferView":40,
			"componentType":5126,
			"count":88,
			"max":[
				0.218529611825943,
				0.26577651500701904,
				0.5401172041893005
			],
			"min":[
				-0.22354786098003387,
				-0.2182493656873703,
				-0.5331573486328125
			],
			"type":"VEC3"
		},
		{
			"bufferView":41,
			"componentType":5126,
			"count":88,
			"type":"VEC3"
		},
		{
			"bufferView":42,
			"componentType":5126,
			"count":88,
			"type":"VEC2"
		},
		{
			"bufferView":43,
			"componentType":5123,
			"count":132,
			"type":"SCALAR"
		},
		{
			"bufferView":44,
			"componentType":5126,
			"count":88,
			"max":[
				0.22098790109157562,
				-0.17588579654693604,
				0.3662990927696228
			],
			"min":[
				-0.24888110160827637,
				-0.5420713424682617,
				-0.36235958337783813
			],
			"type":"VEC3"
		},
		{
			"bufferView":45,
			"componentType":5126,
			"count":88,
			"type":"VEC3"
		},
		{
			"bufferView":46,
			"componentType":5126,
			"count":88,
			"type":"VEC2"
		},
		{
			"bufferView":47,
			"componentType":5123,
			"count":132,
			"type":"SCALAR"
		},
		{
			"bufferView":48,
			"componentType":5126,
			"count":40,
			"max":[
				0.20056313276290894,
				-0.5221809148788452,
				0.3467194139957428
			],
			"min":[
				-0.24260933697223663,
				-0.6315371990203857,
				-0.3467192053794861
			],
			"type":"VEC3"
		},
		{
			"bufferView":49,
			"componentType":5126,
			"count":40,
			"type":"VEC3"
		},
		{
			"bufferView":50,
			"componentType":5126,
			"count":40,
			"type":"VEC2"
		},
		{
			"bufferView":51,
			"componentType":5123,
			"count":60,
			"type":"SCALAR"
		}
	],
	"bufferViews":[
		{
			"buffer":0,
			"byteLength":5616,
			"byteOffset":0,
			"target":34962
		},
		{
			"buffer":0,
			"byteLength":5616,
			"byteOffset":5616,
			"target":34962
		},
		{
			"buffer":0,
			"byteLength":3744,
			"byteOffset":11232,
			"target":34962
		},
		{
			"buffer":0,
			"byteLength":4128,
			"byteOffset":14976,
			"target":34963
		},
		{
			"buffer":0,
			"byteLength":1200,
			"byteOffset":19104,
			"target":34962
		},
		{
			"buffer":0,
			"byteLength":1200,
			"byteOffset":20304,
			"target":34962
		},
		{
			"buffer":0,
			"byteLength":800,
			"byteOffset":21504,
			"target":34962
		},
		{
			"buffer":0,
			"byteLength":504,
			"byteOffset":22304,
			"target":34963
		},
		{
			"buffer":0,
			"byteLength":4224,
			"byteOffset":22808,
			"target":34962
		},
		{
			"buffer":0,
			"byteLength":4224,
			"byteOffset":27032,
			"target":34962
		},
		{
			"buffer":0,
			"byteLength":2816,
			"byteOffset":31256,
			"target":34962
		},
		{
			"buffer":0,
			"byteLength":1560,
			"byteOffset":34072,
			"target":34963
		},
		{
			"buffer":0,
			"byteLength":576,
			"byteOffset":35632,
			"target":34962
		},
		{
			"buffer":0,
			"byteLength":576,
			"byteOffset":36208,
			"target":34962
		},
		{
			"buffer":0,
			"byteLength":384,
			"byteOffset":36784,
			"target":34962
		},
		{
			"buffer":0,
			"byteLength":144,
			"byteOffset":37168,
			"target":34963
		},
		{
			"buffer":0,
			"byteLength":288,
			"byteOffset":37312,
			"target":34962
		},
		{
			"buffer":0,
			"byteLength":288,
			"byteOffset":37600,
			"target":34962
		},
		{
			"buffer":0,
			"byteLength":192,
			"byteOffset":37888,
			"target":34962
		},
		{
			"buffer":0,
			"byteLength":72,
			"byteOffset":38080,
			"target":34963
		},
		{
			"buffer":0,
			"byteLength":2664,
			"byteOffset":38152,
			"target":34962
		},
		{
			"buffer":0,
			"byteLength":2664,
			"byteOffset":40816,
			"target":34962
		},
		{
			"buffer":0,
			"byteLength":1776,
			"byteOffset":43480,
			"target":34962
		},
		{
			"buffer":0,
			"byteLength":672,
			"byteOffset":45256,
			"target":34963
		},
		{
			"buffer":0,
			"byteLength":1056,
			"byteOffset":45928,
			"target":34962
		},
		{
			"buffer":0,
			"byteLength":1056,
			"byteOffset":46984,
			"target":34962
		},
		{
			"buffer":0,
			"byteLength":704,
			"byteOffset":48040,
			"target":34962
		},
		{
			"buffer":0,
			"byteLength":264,
			"byteOffset":48744,
			"target":34963
		},
		{
			"buffer":0,
			"byteLength":1056,
			"byteOffset":49008,
			"target":34962
		},
		{
			"buffer":0,
			"byteLength":1056,
			"byteOffset":50064,
			"target":34962
		},
		{
			"buffer":0,
			"byteLength":704,
			"byteOffset":51120,
			"target":34962
		},
		{
			"buffer":0,
			"byteLength":264,
			"byteOffset":51824,
			"target":34963
		},
		{
			"buffer":0,
			"byteLength":480,
			"byteOffset":52088,
			"target":34962
		},
		{
			"buffer":0,
			"byteLength":480,
			"byteOffset":52568,
			"target":34962
		},
		{
			"buffer":0,
			"byteLength":320,
			"byteOffset":53048,
			"target":34962
		},
		{
			"buffer":0,
			"byteLength":120,
			"byteOffset":53368,
			"target":34963
		},
		{
			"buffer":0,
			"byteLength":2592,
			"byteOffset":53488,
			"target":34962
		},
		{
			"buffer":0,
			"byteLength":2592,
			"byteOffset":56080,
			"target":34962
		},
		{
			"buffer":0,
			"byteLength":1728,
			"byteOffset":58672,
			"target":34962
		},
		{
			"buffer":0,
			"byteLength":672,
			"byteOffset":60400,
			"target":34963
		},
		{
			"buffer":0,
			"byteLength":1056,
			"byteOffset":61072,
			"target":34962
		},
		{
			"buffer":0,
			"byteLength":1056,
			"byteOffset":62128,
			"target":34962
		},
		{
			"buffer":0,
			"byteLength":704,
			"byteOffset":63184,
			"target":34962
		},
		{
			"buffer":0,
			"byteLength":264,
			"byteOffset":63888,
			"target":34963
		},
		{
			"buffer":0,
			"byteLength":1056,
			"byteOffset":64152,
			"target":34962
		},
		{
			"buffer":0,
			"byteLength":1056,
			"byteOffset":65208,
			"target":34962
		},
		{
			"buffer":0,
			"byteLength":704,
			"byteOffset":66264,
			"target":34962
		},
		{
			"buffer":0,
			"byteLength":264,
			"byteOffset":66968,
			"target":34963
		},
		{
			"buffer":0,
			"byteLength":480,
			"byteOffset":67232,
			"target":34962
		},
		{
			"buffer":0,
			"byteLength":480,
			"byteOffset":67712,
			"target":34962
		},
		{
			"buffer":0,
			"byteLength":320,
			"byteOffset":68192,
			"target":34962
		},
		{
			"buffer":0,
			"byteLength":120,
			"byteOffset":68512,
			"target":34963
		}
	],
	"buffers":[
		{
			"byteLength":68632,
			"uri":"data:application/octet-stream;base64,"
		}
	]
}
