{
	"asset":{
		"generator":"Khronos glTF Blender I/O v3.6.27",
		"version":"2.0"
	},
	"scene":0,
	"scenes":[
		{
			"name":"Scene",
			"nodes":[
				0,
				1,
				2,
				3,
				4,
				5,
				6,
				7,
				8,
				9,
				10,
				11
			]
		}
	],
	"nodes":[
		{
			"mesh":0,
			"name":"A Cap"
		},
		{
			"mesh":1,
			"name":"W Key"
		},
		{
			"mesh":2,
			"name":"A Key"
		},
		{
			"mesh":3,
			"name":"D Key"
		},
		{
			"mesh":4,
			"name":"S Key"
		},
		{
			"mesh":5,
			"name":"Space Cap"
		},
		{
			"mesh":6,
			"name":"W Cap"
		},
		{
			"mesh":7,
			"name":"S Cap"
		},
		{
			"mesh":8,
			"name":"D Cap"
		},
		{
			"mesh":9,
			"name":"Space",
			"scale":[
				0.07669137418270111,
				0.07669137418270111,
				0.07669137418270111
			]
		},
		{
			"mesh":10,
			"name":"S Key.001"
		},
		{
			"mesh":11,
			"name":"S Key.002"
		}
	],
	"materials":[
		{
			"doubleSided":true,
			"name":"Keys",
			"pbrMetallicRoughness":{
				"baseColorFactor":[
					0.800000011920929,
					0.800000011920929,
					0.800000011920929,
					1
				],
				"metallicFactor":0,
				"roughnessFactor":0.5
			}
		}
	],
	"meshes":[
		{
			"name":"Cube.001",
			"primitives":[
				{
					"attributes":{
						"POSITION":0,
						"NORMAL":1,
						"TEXCOORD_0":2
					},
					"indices":3,
					"material":0
				}
			]
		},
		{
			"name":"W",
			"primitives":[
				{
					"attributes":{
						"POSITION":4,
						"NORMAL":5,
						"TEXCOORD_0":6
					},
					"indices":7,
					"material":0
				}
			]
		},
		{
			"name":"W.001",
			"primitives":[
				{
					"attributes":{
						"POSITION":8,
						"NORMAL":9,
						"TEXCOORD_0":10
					},
					"indices":11,
					"material":0
				}
			]
		},
		{
			"name":"W.002",
			"primitives":[
				{
					"attributes":{
						"POSITION":12,
						"NORMAL":13,
						"TEXCOORD_0":14
					},
					"indices":15,
					"material":0
				}
			]
		},
		{
			"name":"W.003",
			"primitives":[
				{
					"attributes":{
						"POSITION":16,
						"NORMAL":17,
						"TEXCOORD_0":18
					},
					"indices":19,
					"material":0
				}
			]
		},
		{
			"name":"Cube.002",
			"primitives":[
				{
					"attributes":{
						"POSITION":20,
						"NORMAL":21,
						"TEXCOORD_0":22
					},
					"indices":3,
					"material":0
				}
			]
		},
		{
			"name":"Cube.003",
			"primitives":[
				{
					"attributes":{
						"POSITION":23,
						"NORMAL":24,
						"TEXCOORD_0":25
					},
					"indices":3,
					"material":0
				}
			]
		},
		{
			"name":"Cube.004",
			"primitives":[
				{
					"attributes":{
						"POSITION":26,
						"NORMAL":27,
						"TEXCOORD_0":28
					},
					"indices":3,
					"material":0
				}
			]
		},
		{
			"name":"Cube.005",
			"primitives":[
				{
					"attributes":{
						"POSITION":29,
						"NORMAL":30,
						"TEXCOORD_0":31
					},
					"indices":3,
					"material":0
				}
			]
		},
		{
			"name":"Cube.006",
			"primitives":[
				{
					"attributes":{
						"POSITION":32,
						"NORMAL":33,
						"TEXCOORD_0":34
					},
					"indices":35,
					"material":0
				}
			]
		},
		{
			"name":"W.004",
			"primitives":[
				{
					"attributes":{
						"POSITION":36,
						"NORMAL":37,
						"TEXCOORD_0":38
					},
					"indices":39,
					"material":0
				}
			]
		},
		{
			"name":"W.005",
			"primitives":[
				{
					"attributes":{
						"POSITION":40,
						"NORMAL":41,
						"TEXCOORD_0":42
					},
					"indices":43,
					"material":0
				}
			]
		}
	],
	"accessors":[
		{
			"bufferView":0,
			"componentType":5126,
			"count":56,
			"max":[
				-1.2000000476837158,
				0.13454937934875488,
				1
			],
			"min":[
				-3.200000047683716,
				-0.13454914093017578,
				-1
			],
			"type":"VEC3"
		},
		{
			"bufferView":1,
			"componentType":5126,
			"count":56,
			"type":"VEC3"
		},
		{
			"bufferView":2,
			"componentType":5126,
			"count":56,
			"type":"VEC2"
		},
		{
			"bufferView":3,
			"componentType":5123,
			"count":96,
			"type":"SCALAR"
		},
		{
			"bufferView":4,
			"componentType":5126,
			"count":54,
			"max":[
				0.36002811789512634,
				0.12999999523162842,
				-1.9154900312423706
			],
			"min":[
				-0.36002811789512634,
				-0.12999999523162842,
				-2.430418014526367
			],
			"type":"VEC3"
		},
		{
			"bufferView":5,
			"componentType":5126,
			"count":54,
			"type":"VEC3"
		},
		{
			"bufferView":6,
			"componentType":5126,
			"count":54,
			"type":"VEC2"
		},
		{
			"bufferView":7,
			"componentType":5123,
			"count":144,
			"type":"SCALAR"
		},
		{
			"bufferView":8,
			"componentType":5126,
			"count":48,
			"max":[
				-1.91847562789917,
				0.12999999523162842,
				0.2845100164413452
			],
			"min":[
				-2.4790658950805664,
				-0.12999999523162842,
				-0.23041802644729614
			],
			"type":"VEC3"
		},
		{
			"bufferView":9,
			"componentType":5126,
			"count":48,
			"type":"VEC3"
		},
		{
			"bufferView":10,
			"componentType":5126,
			"count":48,
			"type":"VEC2"
		},
		{
			"bufferView":11,
			"componentType":5123,
			"count":132,
			"type":"SCALAR"
		},
		{
			"bufferView":12,
			"componentType":5126,
			"count":652,
			"max":[
				2.4488584995269775,
				0.12999999523162842,
				0.2845100164413452
			],
			"min":[
				1.9750263690948486,
				-0.12999999523162842,
				-0.23041802644729614
			],
			"type":"VEC3"
		},
		{
			"bufferView":13,
			"componentType":5126,
			"count":652,
			"type":"VEC3"
		},
		{
			"bufferView":14,
			"componentType":5126,
			"count":652,
			"type":"VEC2"
		},
		{
			"bufferView":15,
			"componentType":5123,
			"count":1944,
			"type":"SCALAR"
		},
		{
			"bufferView":16,
			"componentType":5126,
			"count":1306,
			"max":[
				0.23234984278678894,
				0.12999999523162842,
				0.2932911813259125
			],
			"min":[
				-0.23480857908725739,
				-0.12999999523162842,
				-0.23919916152954102
			],
			"type":"VEC3"
		},
		{
			"bufferView":17,
			"componentType":5126,
			"count":1306,
			"type":"VEC3"
		},
		{
			"bufferView":18,
			"componentType":5126,
			"count":1306,
			"type":"VEC2"
		},
		{
			"bufferView":19,
			"componentType":5123,
			"count":3900,
			"type":"SCALAR"
		},
		{
			"bufferView":20,
			"componentType":5126,
			"count":56,
			"max":[
				3.191859245300293,
				0.13454937934875488,
				6.257383346557617
			],
			"min":[
				-3.1934654712677,
				-0.13454914093017578,
				4.257383346557617
			],
			"type":"VEC3"
		},
		{
			"bufferView":21,
			"componentType":5126,
			"count":56,
			"type":"VEC3"
		},
		{
			"bufferView":22,
			"componentType":5126,
			"count":56,
			"type":"VEC2"
		},
		{
			"bufferView":23,
			"componentType":5126,
			"count":56,
			"max":[
				1,
				0.13454937934875488,
				-1.2000000476837158
			],
			"min":[
				-1,
				-0.13454914093017578,
				-3.200000047683716
			],
			"type":"VEC3"
		},
		{
			"bufferView":24,
			"componentType":5126,
			"count":56,
			"type":"VEC3"
		},
		{
			"bufferView":25,
			"componentType":5126,
			"count":56,
			"type":"VEC2"
		},
		{
			"bufferView":26,
			"componentType":5126,
			"count":56,
			"max":[
				1,
				0.13454937934875488,
				1
			],
			"min":[
				-1,
				-0.13454914093017578,
				-1
			],
			"type":"VEC3"
		},
		{
			"bufferView":27,
			"componentType":5126,
			"count":56,
			"type":"VEC3"
		},
		{
			"bufferView":28,
			"componentType":5126,
			"count":56,
			"type":"VEC2"
		},
		{
			"bufferView":29,
			"componentType":5126,
			"count":56,
			"max":[
				3.200000047683716,
				0.13454937934875488,
				1
			],
			"min":[
				1.2000000476837158,
				-0.13454914093017578,
				-1
			],
			"type":"VEC3"
		},
		{
			"bufferView":30,
			"componentType":5126,
			"count":56,
			"type":"VEC3"
		},
		{
			"bufferView":31,
			"componentType":5126,
			"count":56,
			"type":"VEC2"
		},
		{
			"bufferView":32,
			"componentType":5126,
			"count":64,
			"max":[
				23.150766372680664,
				1,
				71.76911163330078
			],
			"min":[
				-23.150766372680664,
				-1,
				67.99982452392578
			],
			"type":"VEC3"
		},
		{
			"bufferView":33,
			"componentType":5126,
			"count":64,
			"type":"VEC3"
		},
		{
			"bufferView":34,
			"componentType":5126,
			"count":64,
			"type":"VEC2"
		},
		{
			"bufferView":35,
			"componentType":5123,
			"count":132,
			"type":"SCALAR"
		},
		{
			"bufferView":36,
			"componentType":5126,
			"count":8378,
			"max":[
				4.173648357391357,
				0.12999999523162842,
				-3.9668495655059814
			],
			"min":[
				-4.323366641998291,
				-0.12999999523162842,
				-5.499340057373047
			],
			"type":"VEC3"
		},
		{
			"bufferView":37,
			"componentType":5126,
			"count":8378,
			"type":"VEC3"
		},
		{
			"bufferView":38,
			"componentType":5126,
			"count":8378,
			"type":"VEC2"
		},
		{
			"bufferView":39,
			"componentType":5123,
			"count":24684,
			"type":"SCALAR"
		},
		{
			"bufferView":40,
			"componentType":5126,
			"count":6779,
			"max":[
				4.333641529083252,
				0.12999999523162842,
				3.618452548980713
			],
			"min":[
				-4.2957940101623535,
				-0.12999999523162842,
				2.085610866546631
			],
			"type":"VEC3"
		},
		{
			"bufferView":41,
			"componentType":5126,
			"count":6779,
			"type":"VEC3"
		},
		{
			"bufferView":42,
			"componentType":5126,
			"count":6779,
			"type":"VEC2"
		},
		{
			"bufferView":43,
			"componentType":5123,
			"count":19824,
			"type":"SCALAR"
		}
	],
	"bufferViews":[
		{
			"buffer":0,
			"byteLength":672,
			"byteOffset":0,
			"target":34962
		},
		{
			"buffer":0,
			"byteLength":672,
			"byteOffset":672,
			"target":34962
		},
		{
			"buffer":0,
			"byteLength":448,
			"byteOffset":1344,
			"target":34962
		},
		{
			"buffer":0,
			"byteLength":192,
			"byteOffset":1792,
			"target":34963
		},
		{
			"buffer":0,
			"byteLength":648,
			"byteOffset":1984,
			"target":34962
		},
		{
			"buffer":0,
			"byteLength":648,
			"byteOffset":2632,
			"target":34962
		},
		{
			"buffer":0,
			"byteLength":432,
			"byteOffset":3280,
			"target":34962
		},
		{
			"buffer":0,
			"byteLength":288,
			"byteOffset":3712,
			"target":34963
		},
		{
			"buffer":0,
			"byteLength":576,
			"byteOffset":4000,
			"target":34962
		},
		{
			"buffer":0,
			"byteLength":576,
			"byteOffset":4576,
			"target":34962
		},
		{
			"buffer":0,
			"byteLength":384,
			"byteOffset":5152,
			"target":34962
		},
		{
			"buffer":0,
			"byteLength":264,
			"byteOffset":5536,
			"target":34963
		},
		{
			"buffer":0,
			"byteLength":7824,
			"byteOffset":5800,
			"target":34962
		},
		{
			"buffer":0,
			"byteLength":7824,
			"byteOffset":13624,
			"target":34962
		},
		{
			"buffer":0,
			"byteLength":5216,
			"byteOffset":21448,
			"target":34962
		},
		{
			"buffer":0,
			"byteLength":3888,
			"byteOffset":26664,
			"target":34963
		},
		{
			"buffer":0,
			"byteLength":15672,
			"byteOffset":30552,
			"target":34962
		},
		{
			"buffer":0,
			"byteLength":15672,
			"byteOffset":46224,
			"target":34962
		},
		{
			"buffer":0,
			"byteLength":10448,
			"byteOffset":61896,
			"target":34962
		},
		{
			"buffer":0,
			"byteLength":7800,
			"byteOffset":72344,
			"target":34963
		},
		{
			"buffer":0,
			"byteLength":672,
			"byteOffset":80144,
			"target":34962
		},
		{
			"buffer":0,
			"byteLength":672,
			"byteOffset":80816,
			"target":34962
		},
		{
			"buffer":0,
			"byteLength":448,
			"byteOffset":81488,
			"target":34962
		},
		{
			"buffer":0,
			"byteLength":672,
			"byteOffset":81936,
			"target":34962
		},
		{
			"buffer":0,
			"byteLength":672,
			"byteOffset":82608,
			"target":34962
		},
		{
			"buffer":0,
			"byteLength":448,
			"byteOffset":83280,
			"target":34962
		},
		{
			"buffer":0,
			"byteLength":672,
			"byteOffset":83728,
			"target":34962
		},
		{
			"buffer":0,
			"byteLength":672,
			"byteOffset":84400,
			"target":34962
		},
		{
			"buffer":0,
			"byteLength":448,
			"byteOffset":85072,
			"target":34962
		},
		{
			"buffer":0,
			"byteLength":672,
			"byteOffset":85520,
			"target":34962
		},
		{
			"buffer":0,
			"byteLength":672,
			"byteOffset":86192,
			"target":34962
		},
		{
			"buffer":0,
			"byteLength":448,
			"byteOffset":86864,
			"target":34962
		},
		{
			"buffer":0,
			"byteLength":768,
			"byteOffset":87312,
			"target":34962
		},
		{
			"buffer":0,
			"byteLength":768,
			"byteOffset":88080,
			"target":34962
		},
		{
			"buffer":0,
			"byteLength":512,
			"byteOffset":88848,
			"target":34962
		},
		{
			"buffer":0,
			"byteLength":264,
			"byteOffset":89360,
			"target":34963
		},
		{
			"buffer":0,
			"byteLength":100536,
			"byteOffset":89624,
			"target":34962
		},
		{
			"buffer":0,
			"byteLength":100536,
			"byteOffset":190160,
			"target":34962
		},
		{
			"buffer":0,
			"byteLength":67024,
			"byteOffset":290696,
			"target":34962
		},
		{
			"buffer":0,
			"byteLength":49368,
			"byteOffset":357720,
			"target":34963
		},
		{
			"buffer":0,
			"byteLength":81348,
			"byteOffset":407088,
			"target":34962
		},
		{
			"buffer":0,
			"byteLength":81348,
			"byteOffset":488436,
			"target":34962
		},
		{
			"buffer":0,
			"byteLength":54232,
			"byteOffset":569784,
			"target":34962
		},
		{
			"buffer":0,
			"byteLength":39648,
			"byteOffset":624016,
			"target":34963
		}
	],
	"buffers":[
		{
			"byteLength":663664,
			"uri":"data:application/octet-stream;base64,"
		}
	]
}
