{
	"asset":{
		"generator":"Khronos glTF Blender I/O v3.6.27",
		"version":"2.0"
	},
	"scene":0,
	"scenes":[
		{
			"name":"Scene",
			"nodes":[
				0,
				1,
				2
			]
		}
	],
	"nodes":[
		{
			"mesh":0,
			"name":"Maze"
		},
		{
			"mesh":1,
			"name":"Ball",
			"scale":[
				0.05807770416140556,
				0.05807770416140556,
				0.05807770416140556
			]
		},
		{
			"mesh":2,
			"name":"Table",
			"scale":[
				1.2866569757461548,
				1.2866569757461548,
				1.2866569757461548
			]
		}
	],
	"materials":[
		{
			"doubleSided":true,
			"name":"Material.001",
			"pbrMetallicRoughness":{
				"baseColorFactor":[
					0.06997804343700409,
					0.031123513355851173,
					0.016474828124046326,
					1
				],
				"metallicFactor":0
			}
		},
		{
			"doubleSided":true,
			"name":"Material.002",
			"pbrMetallicRoughness":{
				"baseColorFactor":[
					0.042027536779642105,
					0.042027536779642105,
					0.042027536779642105,
					1
				],
				"metallicFactor":0
			}
		},
		{
			"doubleSided":true,
			"name":"Material.003",
			"pbrMetallicRoughness":{
				"baseColorFactor":[
					0.1065339595079422,
					0.04656476527452469,
					0.020494898781180382,
					1
				],
				"metallicFactor":0,
				"roughnessFactor":0.5
			}
		}
	],
	"meshes":[
		{
			"name":"Cube.002",
			"primitives":[
				{
					"attributes":{
						"POSITION":0,
						"NORMAL":1,
						"TEXCOORD_0":2
					},
					"indices":3,
					"material":0
				}
			]
		},
		{
			"name":"Cube.003",
			"primitives":[
				{
					"attributes":{
						"POSITION":4,
						"NORMAL":5,
						"TEXCOORD_0":6
					},
					"indices":7,
					"material":1
				}
			]
		},
		{
			"name":"Cube.004",
			"primitives":[
				{
					"attributes":{
						"POSITION":8,
						"NORMAL":9,
						"TEXCOORD_0":10
					},
					"indices":11,
					"material":2
				}
			]
		}
	],
	"accessors":[
		{
			"bufferView":0,
			"componentType":5126,
			"count":1202,
			"max":[
				0.9909603595733643,
				1.0583789348602295,
				0.9989543557167053
			],
			"min":[
				-1.0090396404266357,
				0.7449929118156433,
				-1.00104558467865
			],
			"type":"VEC3"
		},
		{
			"bufferView":1,
			"componentType":5126,
			"count":1202,
			"type":"VEC3"
		},
		{
			"bufferView":2,
			"componentType":5126,
			"count":1202,
			"type":"VEC2"
		},
		{
			"bufferView":3,
			"componentType":5123,
			"count":3768,
			"type":"SCALAR"
		},
		{
			"bufferView":4,
			"componentType":5126,
			"count":24,
			"max":[
				-12.363255500793457,
				16.537303924560547,
				-14.9877290725708
			],
			"min":[
				-14.363255500793457,
				14.537303924560547,
				-16.987728118896484
			],
			"type":"VEC3"
		},
		{
			"bufferView":5,
			"componentType":5126,
			"count":24,
			"type":"VEC3"
		},
		{
			"bufferView":6,
			"componentType":5126,
			"count":24,
			"type":"VEC2"
		},
		{
			"bufferView":7,
			"componentType":5123,
			"count":36,
			"type":"SCALAR"
		},
		{
			"bufferView":8,
			"componentType":5126,
			"count":189,
			"max":[
				0.9929743409156799,
				0.5891657471656799,
				0.9991872906684875
			],
			"min":[
				-1.0070257186889648,
				-0.005266812164336443,
				-1.0008126497268677
			],
			"type":"VEC3"
		},
		{
			"bufferView":9,
			"componentType":5126,
			"count":189,
			"type":"VEC3"
		},
		{
			"bufferView":10,
			"componentType":5126,
			"count":189,
			"type":"VEC2"
		},
		{
			"bufferView":11,
			"componentType":5123,
			"count":594,
			"type":"SCALAR"
		}
	],
	"bufferViews":[
		{
			"buffer":0,
			"byteLength":14424,
			"byteOffset":0,
			"target":34962
		},
		{
			"buffer":0,
			"byteLength":14424,
			"byteOffset":14424,
			"target":34962
		},
		{
			"buffer":0,
			"byteLength":9616,
			"byteOffset":28848,
			"target":34962
		},
		{
			"buffer":0,
			"byteLength":7536,
			"byteOffset":38464,
			"target":34963
		},
		{
			"buffer":0,
			"byteLength":288,
			"byteOffset":46000,
			"target":34962
		},
		{
			"buffer":0,
			"byteLength":288,
			"byteOffset":46288,
			"target":34962
		},
		{
			"buffer":0,
			"byteLength":192,
			"byteOffset":46576,
			"target":34962
		},
		{
			"buffer":0,
			"byteLength":72,
			"byteOffset":46768,
			"target":34963
		},
		{
			"buffer":0,
			"byteLength":2268,
			"byteOffset":46840,
			"target":34962
		},
		{
			"buffer":0,
			"byteLength":2268,
			"byteOffset":49108,
			"target":34962
		},
		{
			"buffer":0,
			"byteLength":1512,
			"byteOffset":51376,
			"target":34962
		},
		{
			"buffer":0,
			"byteLength":1188,
			"byteOffset":52888,
			"target":34963
		}
	],
	"buffers":[
		{
			"byteLength":54076,
			"uri":"data:application/octet-stream;base64,"
		}
	]
}
