{
	"asset":{
		"generator":"Khronos glTF Blender I/O v3.6.27",
		"version":"2.0"
	},
	"scene":0,
	"scenes":[
		{
			"name":"Scene",
			"nodes":[
				0,
				1,
				2,
				3,
				4,
				5,
				6
			]
		}
	],
	"nodes":[
		{
			"mesh":0,
			"name":"Speaker Left",
			"rotation":[
				0,
				0.22559182345867157,
				0,
				0.97422194480896
			],
			"scale":[
				0.22592447698116302,
				0.22592446208000183,
				0.22592447698116302
			],
			"translation":[
				-0.9369543194770813,
				0.19521118700504303,
				0
			]
		},
		{
			"mesh":1,
			"name":"Table",
			"scale":[
				0.7770256996154785,
				0.6447423696517944,
				0.7060306072235107
			],
			"translation":[
				-0.0002782978117465973,
				-0.20782838761806488,
				0
			]
		},
		{
			"mesh":2,
			"name":"Laptop",
			"translation":[
				-0.00013506412506103516,
				-0.014771133661270142,
				0.15287277102470398
			]
		},
		{
			"mesh":3,
			"name":"Headphones",
			"scale":[
				0.05296759307384491,
				0.05296759307384491,
				0.02372472733259201
			],
			"translation":[
				-0.06029701232910156,
				0.25237035751342773,
				0.059538573026657104
			]
		},
		{
			"mesh":4,
			"name":"Mixer",
			"rotation":[
				0,
				0.20672905445098877,
				0,
				0.9783982634544373
			],
			"scale":[
				0.6106327176094055,
				0.6106327176094055,
				0.6106327176094055
			],
			"translation":[
				0.9538986086845398,
				-0.005105410702526569,
				0.5663931369781494
			]
		},
		{
			"mesh":5,
			"name":"Speaker Right",
			"rotation":[
				0,
				-0.14258553087711334,
				0,
				0.9897825717926025
			],
			"scale":[
				0.22592446208000183,
				0.22592446208000183,
				0.22592446208000183
			],
			"translation":[
				0.9047651886940002,
				0.19521118700504303,
				0
			]
		},
		{
			"mesh":6,
			"name":"Cube",
			"rotation":[
				0,
				0.7071068286895752,
				0,
				0.7071068286895752
			],
			"translation":[
				0.38474220037460327,
				-0.017826557159423828,
				1.0228592157363892
			]
		}
	],
	"materials":[
		{
			"doubleSided":true,
			"name":"Material",
			"pbrMetallicRoughness":{
				"baseColorFactor":[
					0.010021689347922802,
					0.010021689347922802,
					0.010021689347922802,
					1
				],
				"metallicFactor":0,
				"roughnessFactor":0.5
			}
		},
		{
			"doubleSided":true,
			"name":"Material.001",
			"pbrMetallicRoughness":{
				"baseColorFactor":[
					0.7037489414215088,
					0.5340378284454346,
					0.02785404957830906,
					1
				],
				"metallicFactor":0,
				"roughnessFactor":0.5
			}
		},
		{
			"doubleSided":true,
			"name":"Table",
			"pbrMetallicRoughness":{
				"baseColorFactor":[
					0.057802312076091766,
					0.018823033198714256,
					0,
					1
				],
				"metallicFactor":0
			}
		},
		{
			"doubleSided":true,
			"name":"Laptop",
			"pbrMetallicRoughness":{
				"baseColorFactor":[
					0.16794827580451965,
					0.16794827580451965,
					0.16794827580451965,
					1
				],
				"metallicFactor":0,
				"roughnessFactor":0.5
			}
		},
		{
			"doubleSided":true,
			"name":"Screen",
			"pbrMetallicRoughness":{
				"baseColorFactor":[
					0.005604563746601343,
					0.005604563746601343,
					0.005604563746601343,
					1
				],
				"metallicFactor":0,
				"roughnessFactor":0.5
			}
		},
		{
			"doubleSided":true,
			"name":"Headphone frame",
			"pbrMetallicRoughness":{
				"baseColorFactor":[
					0.042027536779642105,
					0.042027536779642105,
					0.042027536779642105,
					1
				],
				"metallicFactor":0,
				"roughnessFactor":0.5
			}
		},
		{
			"doubleSided":true,
			"name":"Material.004",
			"pbrMetallicRoughness":{
				"baseColorFactor":[
					0.24619412422180176,
					0.24619412422180176,
					0.24619412422180176,
					1
				],
				"metallicFactor":0,
				"roughnessFactor":0.5
			}
		},
		{
			"doubleSided":true,
			"name":"Material.005",
			"pbrMetallicRoughness":{
				"baseColorFactor":[
					0.018362771719694138,
					0.03310264274477959,
					0.023842772468924522,
					1
				],
				"metallicFactor":0
			}
		},
		{
			"doubleSided":true,
			"name":"Knob",
			"pbrMetallicRoughness":{
				"baseColorFactor":[
					0.044454425573349,
					0.044454425573349,
					0.044454425573349,
					1
				],
				"metallicFactor":0
			}
		},
		{
			"doubleSided":true,
			"name":"Material.006",
			"pbrMetallicRoughness":{
				"baseColorFactor":[
					0,
					0,
					0,
					1
				],
				"metallicFactor":0
			}
		},
		{
			"doubleSided":true,
			"name":"Material.002",
			"pbrMetallicRoughness":{
				"baseColorFactor":[
					0.010021689347922802,
					0.010021689347922802,
					0.010021689347922802,
					1
				],
				"metallicFactor":0,
				"roughnessFactor":0.5
			}
		},
		{
			"doubleSided":true,
			"name":"Material.003",
			"pbrMetallicRoughness":{
				"baseColorFactor":[
					0.7037489414215088,
					0.5340378284454346,
					0.02785404957830906,
					1
				],
				"metallicFactor":0,
				"roughnessFactor":0.5
			}
		},
		{
			"doubleSided":true,
			"name":"Skin",
			"pbrMetallicRoughness":{
				"baseColorFactor":[
					0.03735997900366783,
					0.012655874714255333,
					0.0033210432156920433,
					1
				],
				"metallicFactor":0
			}
		},
		{
			"doubleSided":true,
			"name":"T-Shirt",
			"pbrMetallicRoughness":{
				"baseColorFactor":[
					0.800000011920929,
					0.800000011920929,
					0.800000011920929,
					1
				],
				"metallicFactor":0
			}
		},
		{
			"doubleSided":true,
			"name":"Trousers",
			"pbrMetallicRoughness":{
				"baseColorFactor":[
					0.008075723424553871,
					0.008075723424553871,
					0.008075723424553871,
					1
				],
				"metallicFactor":0
			}
		},
		{
			"doubleSided":true,
			"name":"Shoes",
			"pbrMetallicRoughness":{
				"baseColorFactor":[
					0.12364369630813599,
					0.31676891446113586,
					0.8000000715255737,
					1
				],
				"metallicFactor":0,
				"roughnessFactor":0.5
			}
		}
	],
	"meshes":[
		{
			"name":"Cube",
			"primitives":[
				{
					"attributes":{
						"POSITION":0,
						"NORMAL":1,
						"TEXCOORD_0":2
					},
					"indices":3,
					"material":0
				},
				{
					"attributes":{
						"POSITION":4,
						"NORMAL":5,
						"TEXCOORD_0":6
					},
					"indices":7,
					"material":1
				}
			]
		},
		{
			"name":"Cube.001",
			"primitives":[
				{
					"attributes":{
						"POSITION":8,
						"NORMAL":9,
						"TEXCOORD_0":10
					},
					"indices":11,
					"material":2
				}
			]
		},
		{
			"name":"Cube.002",
			"primitives":[
				{
					"attributes":{
						"POSITION":12,
						"NORMAL":13,
						"TEXCOORD_0":14
					},
					"indices":15,
					"material":3
				},
				{
					"attributes":{
						"POSITION":16,
						"NORMAL":17,
						"TEXCOORD_0":18
					},
					"indices":19,
					"material":4
				}
			]
		},
		{
			"name":"Cube.004",
			"primitives":[
				{
					"attributes":{
						"POSITION":20,
						"NORMAL":21,
						"TEXCOORD_0":22
					},
					"indices":23,
					"material":5
				},
				{
					"attributes":{
						"POSITION":24,
						"NORMAL":25,
						"TEXCOORD_0":26
					},
					"indices":27,
					"material":6
				}
			]
		},
		{
			"name":"Cube.005",
			"primitives":[
				{
					"attributes":{
						"POSITION":28,
						"NORMAL":29,
						"TEXCOORD_0":30
					},
					"indices":31,
					"material":7
				},
				{
					"attributes":{
						"POSITION":32,
						"NORMAL":33,
						"TEXCOORD_0":34
					},
					"indices":35,
					"material":8
				},
				{
					"attributes":{
						"POSITION":36,
						"NORMAL":37,
						"TEXCOORD_0":38
					},
					"indices":39,
					"material":9
				}
			]
		},
		{
			"name":"Cube.006",
			"primitives":[
				{
					"attributes":{
						"POSITION":40,
						"NORMAL":41,
						"TEXCOORD_0":42
					},
					"indices":3,
					"material":10
				},
				{
					"attributes":{
						"POSITION":43,
						"NORMAL":44,
						"TEXCOORD_0":45
					},
					"indices":7,
					"material":11
				}
			]
		},
		{
			"name":"Cube.003",
			"primitives":[
				{
					"attributes":{
						"POSITION":46,
						"NORMAL":47,
						"TEXCOORD_0":48
					},
					"indices":49,
					"material":12
				},
				{
					"attributes":{
						"POSITION":50,
						"NORMAL":51,
						"TEXCOORD_0":52
					},
					"indices":53,
					"material":13
				},
				{
					"attributes":{
						"POSITION":54,
						"NORMAL":55,
						"TEXCOORD_0":56
					},
					"indices":57,
					"material":14
				},
				{
					"attributes":{
						"POSITION":58,
						"NORMAL":59,
						"TEXCOORD_0":60
					},
					"indices":61,
					"material":15
				}
			]
		}
	],
	"accessors":[
		{
			"bufferView":0,
			"componentType":5126,
			"count":180,
			"max":[
				1,
				2.256993055343628,
				1.034461259841919
			],
			"min":[
				-1,
				-1,
				-1
			],
			"type":"VEC3"
		},
		{
			"bufferView":1,
			"componentType":5126,
			"count":180,
			"type":"VEC3"
		},
		{
			"bufferView":2,
			"componentType":5126,
			"count":180,
			"type":"VEC2"
		},
		{
			"bufferView":3,
			"componentType":5123,
			"count":444,
			"type":"SCALAR"
		},
		{
			"bufferView":4,
			"componentType":5126,
			"count":24,
			"max":[
				0.32523295283317566,
				0.4379115402698517,
				1.006672739982605
			],
			"min":[
				-0.32523295283317566,
				-0.19765737652778625,
				0.9716655015945435
			],
			"type":"VEC3"
		},
		{
			"bufferView":5,
			"componentType":5126,
			"count":24,
			"type":"VEC3"
		},
		{
			"bufferView":6,
			"componentType":5126,
			"count":24,
			"type":"VEC2"
		},
		{
			"bufferView":7,
			"componentType":5123,
			"count":48,
			"type":"SCALAR"
		},
		{
			"bufferView":8,
			"componentType":5126,
			"count":284,
			"max":[
				1.9347848892211914,
				0.28498706221580505,
				1
			],
			"min":[
				-1.9347848892211914,
				-0.6691739559173584,
				-1
			],
			"type":"VEC3"
		},
		{
			"bufferView":9,
			"componentType":5126,
			"count":284,
			"type":"VEC3"
		},
		{
			"bufferView":10,
			"componentType":5126,
			"count":284,
			"type":"VEC2"
		},
		{
			"bufferView":11,
			"componentType":5123,
			"count":444,
			"type":"SCALAR"
		},
		{
			"bufferView":12,
			"componentType":5126,
			"count":70,
			"max":[
				0.3208341598510742,
				0.42994219064712524,
				0.44092994928359985
			],
			"min":[
				-0.32056403160095215,
				-0.015210270881652832,
				-0.10901278257369995
			],
			"type":"VEC3"
		},
		{
			"bufferView":13,
			"componentType":5126,
			"count":70,
			"type":"VEC3"
		},
		{
			"bufferView":14,
			"componentType":5126,
			"count":70,
			"type":"VEC2"
		},
		{
			"bufferView":15,
			"componentType":5123,
			"count":114,
			"type":"SCALAR"
		},
		{
			"bufferView":16,
			"componentType":5126,
			"count":4,
			"max":[
				0.30734649300575256,
				0.418786883354187,
				0.007820290513336658
			],
			"min":[
				-0.3070763647556305,
				0.009491758421063423,
				-0.09661488980054855
			],
			"type":"VEC3"
		},
		{
			"bufferView":17,
			"componentType":5126,
			"count":4,
			"type":"VEC3"
		},
		{
			"bufferView":18,
			"componentType":5126,
			"count":4,
			"type":"VEC2"
		},
		{
			"bufferView":19,
			"componentType":5123,
			"count":6,
			"type":"SCALAR"
		},
		{
			"bufferView":20,
			"componentType":5126,
			"count":432,
			"max":[
				1.0000001192092896,
				3.3318533897399902,
				5.030058860778809
			],
			"min":[
				-1.0000001192092896,
				-1.0000001192092896,
				-5.030058860778809
			],
			"type":"VEC3"
		},
		{
			"bufferView":21,
			"componentType":5126,
			"count":432,
			"type":"VEC3"
		},
		{
			"bufferView":22,
			"componentType":5126,
			"count":432,
			"type":"VEC2"
		},
		{
			"bufferView":23,
			"componentType":5123,
			"count":1104,
			"type":"SCALAR"
		},
		{
			"bufferView":24,
			"componentType":5126,
			"count":272,
			"max":[
				1.0000001192092896,
				1.0000001192092896,
				3.6967246532440186
			],
			"min":[
				-1.0000001192092896,
				-1.0000001192092896,
				-3.6967246532440186
			],
			"type":"VEC3"
		},
		{
			"bufferView":25,
			"componentType":5126,
			"count":272,
			"type":"VEC3"
		},
		{
			"bufferView":26,
			"componentType":5126,
			"count":272,
			"type":"VEC2"
		},
		{
			"bufferView":27,
			"componentType":5123,
			"count":600,
			"type":"SCALAR"
		},
		{
			"bufferView":28,
			"componentType":5126,
			"count":127,
			"max":[
				0.19913944602012634,
				0.0348573736846447,
				0.010373055934906006
			],
			"min":[
				-0.1891322135925293,
				-0.0359523743391037,
				-0.26418885588645935
			],
			"type":"VEC3"
		},
		{
			"bufferView":29,
			"componentType":5126,
			"count":127,
			"type":"VEC3"
		},
		{
			"bufferView":30,
			"componentType":5126,
			"count":127,
			"type":"VEC2"
		},
		{
			"bufferView":31,
			"componentType":5123,
			"count":438,
			"type":"SCALAR"
		},
		{
			"bufferView":32,
			"componentType":5126,
			"count":52,
			"max":[
				0.1506054848432541,
				0.0224643275141716,
				0.02012699842453003
			],
			"min":[
				-0.14059823751449585,
				-0.014708081260323524,
				0.010373055934906006
			],
			"type":"VEC3"
		},
		{
			"bufferView":33,
			"componentType":5126,
			"count":52,
			"type":"VEC3"
		},
		{
			"bufferView":34,
			"componentType":5126,
			"count":52,
			"type":"VEC2"
		},
		{
			"bufferView":35,
			"componentType":5123,
			"count":96,
			"type":"SCALAR"
		},
		{
			"bufferView":36,
			"componentType":5126,
			"count":12,
			"max":[
				0.053537577390670776,
				0.017154937610030174,
				0.010373055934906006
			],
			"min":[
				-0.04353034496307373,
				-0.009398717433214188,
				0.010373055934906006
			],
			"type":"VEC3"
		},
		{
			"bufferView":37,
			"componentType":5126,
			"count":12,
			"type":"VEC3"
		},
		{
			"bufferView":38,
			"componentType":5126,
			"count":12,
			"type":"VEC2"
		},
		{
			"bufferView":39,
			"componentType":5123,
			"count":36,
			"type":"SCALAR"
		},
		{
			"bufferView":40,
			"componentType":5126,
			"count":180,
			"max":[
				1,
				2.256993055343628,
				1.034461259841919
			],
			"min":[
				-1,
				-1,
				-1
			],
			"type":"VEC3"
		},
		{
			"bufferView":41,
			"componentType":5126,
			"count":180,
			"type":"VEC3"
		},
		{
			"bufferView":42,
			"componentType":5126,
			"count":180,
			"type":"VEC2"
		},
		{
			"bufferView":43,
			"componentType":5126,
			"count":24,
			"max":[
				0.32523295283317566,
				0.4379115402698517,
				1.006672739982605
			],
			"min":[
				-0.32523295283317566,
				-0.19765737652778625,
				0.9716655015945435
			],
			"type":"VEC3"
		},
		{
			"bufferView":44,
			"componentType":5126,
			"count":24,
			"type":"VEC3"
		},
		{
			"bufferView":45,
			"componentType":5126,
			"count":24,
			"type":"VEC2"
		},
		{
			"bufferView":46,
			"componentType":5126,
			"count":230,
			"max":[
				0.8086040019989014,
				1.2207930088043213,
				0.6326769590377808
			],
			"min":[
				-0.5396482348442078,
				-0.0720672607421875,
				-0.6755880117416382
			],
			"type":"VEC3"
		},
		{
			"bufferView":47,
			"componentType":5126,
			"count":230,
			"type":"VEC3"
		},
		{
			"bufferView":48,
			"componentType":5126,
			"count":230,
			"type":"VEC2"
		},
		{
			"bufferView":49,
			"componentType":5123,
			"count":348,
			"type":"SCALAR"
		},
		{
			"bufferView":50,
			"componentType":5126,
			"count":80,
			"max":[
				0.2708713412284851,
				0.29382389783859253,
				0.4893663823604584
			],
			"min":[
				-0.23112331330776215,
				-0.19326497614383698,
				-0.4887603223323822
			],
			"type":"VEC3"
		},
		{
			"bufferView":51,
			"componentType":5126,
			"count":80,
			"type":"VEC3"
		},
		{
			"bufferView":52,
			"componentType":5126,
			"count":80,
			"type":"VEC2"
		},
		{
			"bufferView":53,
			"componentType":5123,
			"count":120,
			"type":"SCALAR"
		},
		{
			"bufferView":54,
			"componentType":5126,
			"count":88,
			"max":[
				0.2884145677089691,
				-0.1789492964744568,
				0.37467652559280396
			],
			"min":[
				-0.2689736783504486,
				-0.5688667893409729,
				-0.38256704807281494
			],
			"type":"VEC3"
		},
		{
			"bufferView":55,
			"componentType":5126,
			"count":88,
			"type":"VEC3"
		},
		{
			"bufferView":56,
			"componentType":5126,
			"count":88,
			"type":"VEC2"
		},
		{
			"bufferView":57,
			"componentType":5123,
			"count":132,
			"type":"SCALAR"
		},
		{
			"bufferView":58,
			"componentType":5126,
			"count":40,
			"max":[
				0.2825028896331787,
				-0.49882936477661133,
				0.3554075062274933
			],
			"min":[
				-0.28651103377342224,
				-0.6604526042938232,
				-0.3554072976112366
			],
			"type":"VEC3"
		},
		{
			"bufferView":59,
			"componentType":5126,
			"count":40,
			"type":"VEC3"
		},
		{
			"bufferView":60,
			"componentType":5126,
			"count":40,
			"type":"VEC2"
		},
		{
			"bufferView":61,
			"componentType":5123,
			"count":60,
			"type":"SCALAR"
		}
	],
	"bufferViews":[
		{
			"buffer":0,
			"byteLength":2160,
			"byteOffset":0,
			"target":34962
		},
		{
			"buffer":0,
			"byteLength":2160,
			"byteOffset":2160,
			"target":34962
		},
		{
			"buffer":0,
			"byteLength":1440,
			"byteOffset":4320,
			"target":34962
		},
		{
			"buffer":0,
			"byteLength":888,
			"byteOffset":5760,
			"target":34963
		},
		{
			"buffer":0,
			"byteLength":288,
			"byteOffset":6648,
			"target":34962
		},
		{
			"buffer":0,
			"byteLength":288,
			"byteOffset":6936,
			"target":34962
		},
		{
			"buffer":0,
			"byteLength":192,
			"byteOffset":7224,
			"target":34962
		},
		{
			"buffer":0,
			"byteLength":96,
			"byteOffset":7416,
			"target":34963
		},
		{
			"buffer":0,
			"byteLength":3408,
			"byteOffset":7512,
			"target":34962
		},
		{
			"buffer":0,
			"byteLength":3408,
			"byteOffset":10920,
			"target":34962
		},
		{
			"buffer":0,
			"byteLength":2272,
			"byteOffset":14328,
			"target":34962
		},
		{
			"buffer":0,
			"byteLength":888,
			"byteOffset":16600,
			"target":34963
		},
		{
			"buffer":0,
			"byteLength":840,
			"byteOffset":17488,
			"target":34962
		},
		{
			"buffer":0,
			"byteLength":840,
			"byteOffset":18328,
			"target":34962
		},
		{
			"buffer":0,
			"byteLength":560,
			"byteOffset":19168,
			"target":34962
		},
		{
			"buffer":0,
			"byteLength":228,
			"byteOffset":19728,
			"target":34963
		},
		{
			"buffer":0,
			"byteLength":48,
			"byteOffset":19956,
			"target":34962
		},
		{
			"buffer":0,
			"byteLength":48,
			"byteOffset":20004,
			"target":34962
		},
		{
			"buffer":0,
			"byteLength":32,
			"byteOffset":20052,
			"target":34962
		},
		{
			"buffer":0,
			"byteLength":12,
			"byteOffset":20084,
			"target":34963
		},
		{
			"buffer":0,
			"byteLength":5184,
			"byteOffset":20096,
			"target":34962
		},
		{
			"buffer":0,
			"byteLength":5184,
			"byteOffset":25280,
			"target":34962
		},
		{
			"buffer":0,
			"byteLength":3456,
			"byteOffset":30464,
			"target":34962
		},
		{
			"buffer":0,
			"byteLength":2208,
			"byteOffset":33920,
			"target":34963
		},
		{
			"buffer":0,
			"byteLength":3264,
			"byteOffset":36128,
			"target":34962
		},
		{
			"buffer":0,
			"byteLength":3264,
			"byteOffset":39392,
			"target":34962
		},
		{
			"buffer":0,
			"byteLength":2176,
			"byteOffset":42656,
			"target":34962
		},
		{
			"buffer":0,
			"byteLength":1200,
			"byteOffset":44832,
			"target":34963
		},
		{
			"buffer":0,
			"byteLength":1524,
			"byteOffset":46032,
			"target":34962
		},
		{
			"buffer":0,
			"byteLength":1524,
			"byteOffset":47556,
			"target":34962
		},
		{
			"buffer":0,
			"byteLength":1016,
			"byteOffset":49080,
			"target":34962
		},
		{
			"buffer":0,
			"byteLength":876,
			"byteOffset":50096,
			"target":34963
		},
		{
			"buffer":0,
			"byteLength":624,
			"byteOffset":50972,
			"target":34962
		},
		{
			"buffer":0,
			"byteLength":624,
			"byteOffset":51596,
			"target":34962
		},
		{
			"buffer":0,
			"byteLength":416,
			"byteOffset":52220,
			"target":34962
		},
		{
			"buffer":0,
			"byteLength":192,
			"byteOffset":52636,
			"target":34963
		},
		{
			"buffer":0,
			"byteLength":144,
			"byteOffset":52828,
			"target":34962
		},
		{
			"buffer":0,
			"byteLength":144,
			"byteOffset":52972,
			"target":34962
		},
		{
			"buffer":0,
			"byteLength":96,
			"byteOffset":53116,
			"target":34962
		},
		{
			"buffer":0,
			"byteLength":72,
			"byteOffset":53212,
			"target":34963
		},
		{
			"buffer":0,
			"byteLength":2160,
			"byteOffset":53284,
			"target":34962
		},
		{
			"buffer":0,
			"byteLength":2160,
			"byteOffset":55444,
			"target":34962
		},
		{
			"buffer":0,
			"byteLength":1440,
			"byteOffset":57604,
			"target":34962
		},
		{
			"buffer":0,
			"byteLength":288,
			"byteOffset":59044,
			"target":34962
		},
		{
			"buffer":0,
			"byteLength":288,
			"byteOffset":59332,
			"target":34962
		},
		{
			"buffer":0,
			"byteLength":192,
			"byteOffset":59620,
			"target":34962
		},
		{
			"buffer":0,
			"byteLength":2760,
			"byteOffset":59812,
			"target":34962
		},
		{
			"buffer":0,
			"byteLength":2760,
			"byteOffset":62572,
			"target":34962
		},
		{
			"buffer":0,
			"byteLength":1840,
			"byteOffset":65332,
			"target":34962
		},
		{
			"buffer":0,
			"byteLength":696,
			"byteOffset":67172,
			"target":34963
		},
		{
			"buffer":0,
			"byteLength":960,
			"byteOffset":67868,
			"target":34962
		},
		{
			"buffer":0,
			"byteLength":960,
			"byteOffset":68828,
			"target":34962
		},
		{
			"buffer":0,
			"byteLength":640,
			"byteOffset":69788,
			"target":34962
		},
		{
			"buffer":0,
			"byteLength":240,
			"byteOffset":70428,
			"target":34963
		},
		{
			"buffer":0,
			"byteLength":1056,
			"byteOffset":70668,
			"target":34962
		},
		{
			"buffer":0,
			"byteLength":1056,
			"byteOffset":71724,
			"target":34962
		},
		{
			"buffer":0,
			"byteLength":704,
			"byteOffset":72780,
			"target":34962
		},
		{
			"buffer":0,
			"byteLength":264,
			"byteOffset":73484,
			"target":34963
		},
		{
			"buffer":0,
			"byteLength":480,
			"byteOffset":73748,
			"target":34962
		},
		{
			"buffer":0,
			"byteLength":480,
			"byteOffset":74228,
			"target":34962
		},
		{
			"buffer":0,
			"byteLength":320,
			"byteOffset":74708,
			"target":34962
		},
		{
			"buffer":0,
			"byteLength":120,
			"byteOffset":75028,
			"target":34963
		}
	],
	"buffers":[
		{
			"byteLength":75148,
			"uri":"data:application/octet-stream;base64,"
		}
	]
}
