{
	"asset":{
		"generator":"Khronos glTF Blender I/O v3.6.27",
		"version":"2.0"
	},
	"scene":0,
	"scenes":[
		{
			"name":"Scene",
			"nodes":[
				0
			]
		}
	],
	"nodes":[
		{
			"mesh":0,
			"name":"Pain Can"
		}
	],
	"materials":[
		{
			"doubleSided":true,
			"name":"Bucket Colour",
			"pbrMetallicRoughness":{
				"baseColorFactor":[
					0.19017747044563293,
					0.19017747044563293,
					0.19017747044563293,
					1
				],
				"metallicFactor":0,
				"roughnessFactor":0.5
			}
		},
		{
			"doubleSided":true,
			"name":"Paint Colour Label",
			"pbrMetallicRoughness":{
				"baseColorFactor":[
					0.6038155555725098,
					0.6038155555725098,
					0.6038155555725098,
					1
				],
				"metallicFactor":0,
				"roughnessFactor":0.5
			}
		},
		{
			"doubleSided":true,
			"name":"Paint",
			"pbrMetallicRoughness":{
				"baseColorFactor":[
					0.8140411972999573,
					0.8140411972999573,
					0.8140411972999573,
					1
				],
				"metallicFactor":0,
				"roughnessFactor":0.5
			}
		}
	],
	"meshes":[
		{
			"name":"Cube",
			"primitives":[
				{
					"attributes":{
						"POSITION":0,
						"NORMAL":1,
						"TEXCOORD_0":2
					},
					"indices":3,
					"material":0
				},
				{
					"attributes":{
						"POSITION":4,
						"NORMAL":5,
						"TEXCOORD_0":6
					},
					"indices":7,
					"material":1
				},
				{
					"attributes":{
						"POSITION":8,
						"NORMAL":9,
						"TEXCOORD_0":10
					},
					"indices":11,
					"material":2
				}
			]
		}
	],
	"accessors":[
		{
			"bufferView":0,
			"componentType":5126,
			"count":202,
			"max":[
				1,
				2.4907665252685547,
				1.1334874629974365
			],
			"min":[
				-1,
				-1.2349088191986084,
				-1.1334874629974365
			],
			"type":"VEC3"
		},
		{
			"bufferView":1,
			"componentType":5126,
			"count":202,
			"type":"VEC3"
		},
		{
			"bufferView":2,
			"componentType":5126,
			"count":202,
			"type":"VEC2"
		},
		{
			"bufferView":3,
			"componentType":5123,
			"count":426,
			"type":"SCALAR"
		},
		{
			"bufferView":4,
			"componentType":5126,
			"count":24,
			"max":[
				1,
				0.4834446310997009,
				1
			],
			"min":[
				-1,
				-0.8699109554290771,
				-1
			],
			"type":"VEC3"
		},
		{
			"bufferView":5,
			"componentType":5126,
			"count":24,
			"type":"VEC3"
		},
		{
			"bufferView":6,
			"componentType":5126,
			"count":24,
			"type":"VEC2"
		},
		{
			"bufferView":7,
			"componentType":5123,
			"count":48,
			"type":"SCALAR"
		},
		{
			"bufferView":8,
			"componentType":5126,
			"count":8,
			"max":[
				0.822564959526062,
				0.9663181304931641,
				0.822564959526062
			],
			"min":[
				-0.822564959526062,
				0.9663181304931641,
				-0.822564959526062
			],
			"type":"VEC3"
		},
		{
			"bufferView":9,
			"componentType":5126,
			"count":8,
			"type":"VEC3"
		},
		{
			"bufferView":10,
			"componentType":5126,
			"count":8,
			"type":"VEC2"
		},
		{
			"bufferView":11,
			"componentType":5123,
			"count":18,
			"type":"SCALAR"
		}
	],
	"bufferViews":[
		{
			"buffer":0,
			"byteLength":2424,
			"byteOffset":0,
			"target":34962
		},
		{
			"buffer":0,
			"byteLength":2424,
			"byteOffset":2424,
			"target":34962
		},
		{
			"buffer":0,
			"byteLength":1616,
			"byteOffset":4848,
			"target":34962
		},
		{
			"buffer":0,
			"byteLength":852,
			"byteOffset":6464,
			"target":34963
		},
		{
			"buffer":0,
			"byteLength":288,
			"byteOffset":7316,
			"target":34962
		},
		{
			"buffer":0,
			"byteLength":288,
			"byteOffset":7604,
			"target":34962
		},
		{
			"buffer":0,
			"byteLength":192,
			"byteOffset":7892,
			"target":34962
		},
		{
			"buffer":0,
			"byteLength":96,
			"byteOffset":8084,
			"target":34963
		},
		{
			"buffer":0,
			"byteLength":96,
			"byteOffset":8180,
			"target":34962
		},
		{
			"buffer":0,
			"byteLength":96,
			"byteOffset":8276,
			"target":34962
		},
		{
			"buffer":0,
			"byteLength":64,
			"byteOffset":8372,
			"target":34962
		},
		{
			"buffer":0,
			"byteLength":36,
			"byteOffset":8436,
			"target":34963
		}
	],
	"buffers":[
		{
			"byteLength":8472,
			"uri":"data:application/octet-stream;base64,"
		}
	]
}
