{
	"asset":{
		"generator":"Khronos glTF Blender I/O v3.6.27",
		"version":"2.0"
	},
	"extensionsUsed":[
		"KHR_materials_specular",
		"KHR_materials_ior"
	],
	"scene":0,
	"scenes":[
		{
			"name":"Scene",
			"nodes":[
				0,
				1,
				2,
				3,
				4,
				5,
				6,
				7,
				8,
				9
			]
		}
	],
	"nodes":[
		{
			"mesh":0,
			"name":"Table"
		},
		{
			"mesh":1,
			"name":"Monitor",
			"scale":[
				0.07819609344005585,
				0.07819609344005585,
				0.07819609344005585
			],
			"translation":[
				0,
				-0.012621589004993439,
				0
			]
		},
		{
			"mesh":2,
			"name":"Keyboard",
			"translation":[
				0.337959349155426,
				-0.016667693853378296,
				0
			]
		},
		{
			"mesh":3,
			"name":"Mouse",
			"scale":[
				0.09239024668931961,
				0.09239024668931961,
				0.09239024668931961
			],
			"translation":[
				0.46986085176467896,
				-0.024478105828166008,
				-0.13655832409858704
			]
		},
		{
			"mesh":4,
			"name":"PC",
			"translation":[
				0,
				-0.020808611065149307,
				0
			]
		},
		{
			"mesh":5,
			"name":"Phone",
			"scale":[
				0.09358186274766922,
				0.09358186274766922,
				0.09358186274766922
			]
		},
		{
			"mesh":6,
			"name":"Airpod case base",
			"rotation":[
				-0.531629741191864,
				-0.7274964451789856,
				0.25590527057647705,
				0.35018762946128845
			],
			"scale":[
				0.046419765800237656,
				0.04069418087601662,
				0.07535093277692795
			]
		},
		{
			"mesh":7,
			"name":"Airpod lid",
			"rotation":[
				-0.7687440514564514,
				-0.4700146019458771,
				0.370042622089386,
				0.2262461930513382
			],
			"scale":[
				0.04121975228190422,
				0.048398371785879135,
				0.07535093277692795
			]
		},
		{
			"mesh":8,
			"name":"Chair",
			"scale":[
				1.2123327255249023,
				1,
				1
			],
			"translation":[
				1.6774296760559082,
				0.2550634443759918,
				-0.17770981788635254
			]
		},
		{
			"mesh":9,
			"name":"Character",
			"translation":[
				1.0295255184173584,
				1.6437029838562012,
				-0.20923666656017303
			]
		}
	],
	"materials":[
		{
			"doubleSided":true,
			"name":"Material",
			"pbrMetallicRoughness":{
				"baseColorFactor":[
					0.057802487164735794,
					0.026371724903583527,
					0.012295558117330074,
					1
				],
				"metallicFactor":0,
				"roughnessFactor":0.5
			}
		},
		{
			"doubleSided":true,
			"name":"Frame",
			"pbrMetallicRoughness":{
				"baseColorFactor":[
					0.020378999412059784,
					0.020378999412059784,
					0.020378999412059784,
					1
				],
				"metallicFactor":0,
				"roughnessFactor":0.5
			}
		},
		{
			"doubleSided":true,
			"name":"Stand",
			"pbrMetallicRoughness":{
				"baseColorFactor":[
					0.08713973313570023,
					0.08713973313570023,
					0.08713973313570023,
					1
				],
				"metallicFactor":0,
				"roughnessFactor":0.5
			}
		},
		{
			"doubleSided":true,
			"name":"Material.003",
			"pbrMetallicRoughness":{
				"baseColorFactor":[
					0.020378999412059784,
					0.020378999412059784,
					0.020378999412059784,
					1
				],
				"metallicFactor":0,
				"roughnessFactor":0.5
			}
		},
		{
			"doubleSided":true,
			"name":"Material.001",
			"pbrMetallicRoughness":{
				"baseColorFactor":[
					0.04696159437298775,
					0.04696159437298775,
					0.04696159437298775,
					1
				],
				"metallicFactor":0
			}
		},
		{
			"doubleSided":true,
			"name":"Material.002",
			"pbrMetallicRoughness":{
				"baseColorFactor":[
					0.06071953475475311,
					0.06071953475475311,
					0.06071953475475311,
					1
				],
				"metallicFactor":0,
				"roughnessFactor":0.5
			}
		},
		{
			"doubleSided":true,
			"name":"Case Main",
			"pbrMetallicRoughness":{
				"baseColorFactor":[
					0.800000011920929,
					0.800000011920929,
					0.800000011920929,
					1
				],
				"metallicFactor":0,
				"roughnessFactor":0.5
			}
		},
		{
			"doubleSided":true,
			"name":"Inner",
			"pbrMetallicRoughness":{
				"baseColorFactor":[
					0.0835312008857727,
					0.0835312008857727,
					0.0835312008857727,
					1
				],
				"metallicFactor":0,
				"roughnessFactor":0.5
			}
		},
		{
			"doubleSided":true,
			"extensions":{
				"KHR_materials_specular":{
					"specularColorFactor":[
						2.371357614441398,
						2.371357614441398,
						2.371357614441398
					]
				},
				"KHR_materials_ior":{
					"ior":1.4500000476837158
				}
			},
			"name":"Material.004",
			"pbrMetallicRoughness":{
				"baseColorFactor":[
					0.02909931354224682,
					0.02909931354224682,
					0.02909931354224682,
					1
				],
				"metallicFactor":0,
				"roughnessFactor":0.5
			}
		},
		{
			"doubleSided":true,
			"name":"Screen",
			"pbrMetallicRoughness":{
				"baseColorFactor":[
					0,
					0,
					0,
					1
				],
				"metallicFactor":0
			}
		},
		{
			"doubleSided":true,
			"name":"Material.005",
			"pbrMetallicRoughness":{
				"baseColorFactor":[
					0.1149354875087738,
					0.06102341040968895,
					0.03156447410583496,
					1
				],
				"metallicFactor":0
			}
		},
		{
			"doubleSided":true,
			"name":"Skin",
			"pbrMetallicRoughness":{
				"baseColorFactor":[
					0.03735997900366783,
					0.012655874714255333,
					0.0033210432156920433,
					1
				],
				"metallicFactor":0
			}
		},
		{
			"doubleSided":true,
			"name":"T-Shirt",
			"pbrMetallicRoughness":{
				"baseColorFactor":[
					0.800000011920929,
					0.800000011920929,
					0.800000011920929,
					1
				],
				"metallicFactor":0
			}
		},
		{
			"doubleSided":true,
			"name":"Trousers",
			"pbrMetallicRoughness":{
				"baseColorFactor":[
					0.008075723424553871,
					0.008075723424553871,
					0.008075723424553871,
					1
				],
				"metallicFactor":0
			}
		},
		{
			"doubleSided":true,
			"name":"Shoes",
			"pbrMetallicRoughness":{
				"baseColorFactor":[
					0.8000000715255737,
					0.16822537779808044,
					0.025775495916604996,
					1
				],
				"metallicFactor":0,
				"roughnessFactor":0.5
			}
		}
	],
	"meshes":[
		{
			"name":"Cube",
			"primitives":[
				{
					"attributes":{
						"POSITION":0,
						"NORMAL":1,
						"TEXCOORD_0":2
					},
					"indices":3,
					"material":0
				}
			]
		},
		{
			"name":"Cube.001",
			"primitives":[
				{
					"attributes":{
						"POSITION":4,
						"NORMAL":5,
						"TEXCOORD_0":6
					},
					"indices":7,
					"material":1
				},
				{
					"attributes":{
						"POSITION":8,
						"NORMAL":9,
						"TEXCOORD_0":10
					},
					"indices":11,
					"material":2
				},
				{
					"attributes":{
						"POSITION":12,
						"NORMAL":13,
						"TEXCOORD_0":14
					},
					"indices":15,
					"material":3
				}
			]
		},
		{
			"name":"Cube.002",
			"primitives":[
				{
					"attributes":{
						"POSITION":16,
						"NORMAL":17,
						"TEXCOORD_0":18
					},
					"indices":19,
					"material":4
				}
			]
		},
		{
			"name":"Cube.003",
			"primitives":[
				{
					"attributes":{
						"POSITION":20,
						"NORMAL":21,
						"TEXCOORD_0":22
					},
					"indices":23,
					"material":5
				}
			]
		},
		{
			"name":"Cube.004",
			"primitives":[
				{
					"attributes":{
						"POSITION":24,
						"NORMAL":25,
						"TEXCOORD_0":26
					},
					"indices":27,
					"material":6
				},
				{
					"attributes":{
						"POSITION":28,
						"NORMAL":29,
						"TEXCOORD_0":30
					},
					"indices":31,
					"material":7
				}
			]
		},
		{
			"name":"Cube.005",
			"primitives":[
				{
					"attributes":{
						"POSITION":32,
						"NORMAL":33,
						"TEXCOORD_0":34
					},
					"indices":35,
					"material":8
				},
				{
					"attributes":{
						"POSITION":36,
						"NORMAL":37,
						"TEXCOORD_0":38
					},
					"indices":39,
					"material":9
				}
			]
		},
		{
			"name":"Cube.006",
			"primitives":[
				{
					"attributes":{
						"POSITION":40,
						"NORMAL":41,
						"TEXCOORD_0":42
					},
					"indices":43
				}
			]
		},
		{
			"name":"Cube.007",
			"primitives":[
				{
					"attributes":{
						"POSITION":44,
						"NORMAL":45,
						"TEXCOORD_0":46
					},
					"indices":47
				}
			]
		},
		{
			"name":"Cube.010",
			"primitives":[
				{
					"attributes":{
						"POSITION":48,
						"NORMAL":49,
						"TEXCOORD_0":50
					},
					"indices":51,
					"material":10
				}
			]
		},
		{
			"name":"Cube.011",
			"primitives":[
				{
					"attributes":{
						"POSITION":52,
						"NORMAL":53,
						"TEXCOORD_0":54
					},
					"indices":55,
					"material":11
				},
				{
					"attributes":{
						"POSITION":56,
						"NORMAL":57,
						"TEXCOORD_0":58
					},
					"indices":59,
					"material":12
				},
				{
					"attributes":{
						"POSITION":60,
						"NORMAL":61,
						"TEXCOORD_0":62
					},
					"indices":63,
					"material":13
				},
				{
					"attributes":{
						"POSITION":64,
						"NORMAL":65,
						"TEXCOORD_0":66
					},
					"indices":67,
					"material":14
				}
			]
		}
	],
	"accessors":[
		{
			"bufferView":0,
			"componentType":5126,
			"count":176,
			"max":[
				1.0307155847549438,
				1.4601359367370605,
				2.0306622982025146
			],
			"min":[
				-1.0307155847549438,
				0.5046290755271912,
				-2.0306622982025146
			],
			"type":"VEC3"
		},
		{
			"bufferView":1,
			"componentType":5126,
			"count":176,
			"type":"VEC3"
		},
		{
			"bufferView":2,
			"componentType":5126,
			"count":176,
			"type":"VEC2"
		},
		{
			"bufferView":3,
			"componentType":5123,
			"count":342,
			"type":"SCALAR"
		},
		{
			"bufferView":4,
			"componentType":5126,
			"count":118,
			"max":[
				1.3889949321746826,
				28.092763900756836,
				6.769826412200928
			],
			"min":[
				-1.903073787689209,
				18.725055694580078,
				-6.769826412200928
			],
			"type":"VEC3"
		},
		{
			"bufferView":5,
			"componentType":5126,
			"count":118,
			"type":"VEC3"
		},
		{
			"bufferView":6,
			"componentType":5126,
			"count":118,
			"type":"VEC2"
		},
		{
			"bufferView":7,
			"componentType":5123,
			"count":210,
			"type":"SCALAR"
		},
		{
			"bufferView":8,
			"componentType":5126,
			"count":42,
			"max":[
				1.3889949321746826,
				20.4481143951416,
				2.666651487350464
			],
			"min":[
				-1.903073787689209,
				18.725055694580078,
				-2.666651487350464
			],
			"type":"VEC3"
		},
		{
			"bufferView":9,
			"componentType":5126,
			"count":42,
			"type":"VEC3"
		},
		{
			"bufferView":10,
			"componentType":5126,
			"count":42,
			"type":"VEC2"
		},
		{
			"bufferView":11,
			"componentType":5123,
			"count":72,
			"type":"SCALAR"
		},
		{
			"bufferView":12,
			"componentType":5126,
			"count":8,
			"max":[
				1.0303573608398438,
				27.902111053466797,
				6.432155132293701
			],
			"min":[
				1.0303573608398438,
				20.638769149780273,
				-6.432155132293701
			],
			"type":"VEC3"
		},
		{
			"bufferView":13,
			"componentType":5126,
			"count":8,
			"type":"VEC3"
		},
		{
			"bufferView":14,
			"componentType":5126,
			"count":8,
			"type":"VEC2"
		},
		{
			"bufferView":15,
			"componentType":5123,
			"count":18,
			"type":"SCALAR"
		},
		{
			"bufferView":16,
			"componentType":5126,
			"count":24,
			"max":[
				0.5883142948150635,
				1.5534721612930298,
				0.5010316967964172
			],
			"min":[
				0.24131059646606445,
				1.4783992767333984,
				-0.5010316967964172
			],
			"type":"VEC3"
		},
		{
			"bufferView":17,
			"componentType":5126,
			"count":24,
			"type":"VEC3"
		},
		{
			"bufferView":18,
			"componentType":5126,
			"count":24,
			"type":"VEC2"
		},
		{
			"bufferView":19,
			"componentType":5123,
			"count":36,
			"type":"SCALAR"
		},
		{
			"bufferView":20,
			"componentType":5126,
			"count":82,
			"max":[
				5.489786624908447,
				16.700363159179688,
				-6.551102638244629
			],
			"min":[
				3.4897866249084473,
				15.953866958618164,
				-7.917502403259277
			],
			"type":"VEC3"
		},
		{
			"bufferView":21,
			"componentType":5126,
			"count":82,
			"type":"VEC3"
		},
		{
			"bufferView":22,
			"componentType":5126,
			"count":82,
			"type":"VEC2"
		},
		{
			"bufferView":23,
			"componentType":5123,
			"count":180,
			"type":"SCALAR"
		},
		{
			"bufferView":24,
			"componentType":5126,
			"count":38,
			"max":[
				0.7064685821533203,
				2.607546806335449,
				1.3265620470046997
			],
			"min":[
				-0.4255741834640503,
				1.475982666015625,
				0.751818060874939
			],
			"type":"VEC3"
		},
		{
			"bufferView":25,
			"componentType":5126,
			"count":38,
			"type":"VEC3"
		},
		{
			"bufferView":26,
			"componentType":5126,
			"count":38,
			"type":"VEC2"
		},
		{
			"bufferView":27,
			"componentType":5123,
			"count":78,
			"type":"SCALAR"
		},
		{
			"bufferView":28,
			"componentType":5126,
			"count":4,
			"max":[
				0.6850782632827759,
				2.5931403636932373,
				0.751818060874939
			],
			"min":[
				-0.40418386459350586,
				1.8595150709152222,
				0.751818060874939
			],
			"type":"VEC3"
		},
		{
			"bufferView":29,
			"componentType":5126,
			"count":4,
			"type":"VEC3"
		},
		{
			"bufferView":30,
			"componentType":5126,
			"count":4,
			"type":"VEC2"
		},
		{
			"bufferView":31,
			"componentType":5123,
			"count":6,
			"type":"SCALAR"
		},
		{
			"bufferView":32,
			"componentType":5126,
			"count":46,
			"max":[
				8.53607177734375,
				15.701214790344238,
				-15.049843788146973
			],
			"min":[
				4.687201976776123,
				15.524558067321777,
				-17.04984474182129
			],
			"type":"VEC3"
		},
		{
			"bufferView":33,
			"componentType":5126,
			"count":46,
			"type":"VEC3"
		},
		{
			"bufferView":34,
			"componentType":5126,
			"count":46,
			"type":"VEC2"
		},
		{
			"bufferView":35,
			"componentType":5123,
			"count":78,
			"type":"SCALAR"
		},
		{
			"bufferView":36,
			"componentType":5126,
			"count":4,
			"max":[
				8.394674301147461,
				15.668152809143066,
				-15.123318672180176
			],
			"min":[
				4.828599452972412,
				15.668152809143066,
				-16.976369857788086
			],
			"type":"VEC3"
		},
		{
			"bufferView":37,
			"componentType":5126,
			"count":4,
			"type":"VEC3"
		},
		{
			"bufferView":38,
			"componentType":5126,
			"count":4,
			"type":"VEC2"
		},
		{
			"bufferView":39,
			"componentType":5123,
			"count":6,
			"type":"SCALAR"
		},
		{
			"bufferView":40,
			"componentType":5126,
			"count":1283,
			"max":[
				19.28805923461914,
				55.332401275634766,
				8.967944145202637
			],
			"min":[
				18.00076675415039,
				53.60041427612305,
				6.9679436683654785
			],
			"type":"VEC3"
		},
		{
			"bufferView":41,
			"componentType":5126,
			"count":1283,
			"type":"VEC3"
		},
		{
			"bufferView":42,
			"componentType":5126,
			"count":1283,
			"type":"VEC2"
		},
		{
			"bufferView":43,
			"componentType":5123,
			"count":5079,
			"type":"SCALAR"
		},
		{
			"bufferView":44,
			"componentType":5126,
			"count":1962,
			"max":[
				54.16227722167969,
				21.761018753051758,
				8.967940330505371
			],
			"min":[
				52.87055206298828,
				20.843982696533203,
				6.967947006225586
			],
			"type":"VEC3"
		},
		{
			"bufferView":45,
			"componentType":5126,
			"count":1962,
			"type":"VEC3"
		},
		{
			"bufferView":46,
			"componentType":5126,
			"count":1962,
			"type":"VEC2"
		},
		{
			"bufferView":47,
			"componentType":5123,
			"count":7932,
			"type":"SCALAR"
		},
		{
			"bufferView":48,
			"componentType":5126,
			"count":268,
			"max":[
				0.07331758737564087,
				1.8424479961395264,
				0.4119580090045929
			],
			"min":[
				-0.6948132514953613,
				0.250929594039917,
				-0.43787845969200134
			],
			"type":"VEC3"
		},
		{
			"bufferView":49,
			"componentType":5126,
			"count":268,
			"type":"VEC3"
		},
		{
			"bufferView":50,
			"componentType":5126,
			"count":268,
			"type":"VEC2"
		},
		{
			"bufferView":51,
			"componentType":5123,
			"count":756,
			"type":"SCALAR"
		},
		{
			"bufferView":52,
			"componentType":5126,
			"count":228,
			"max":[
				0.6345739960670471,
				1.0197542905807495,
				0.5465593338012695
			],
			"min":[
				-0.34456080198287964,
				-0.2248210459947586,
				-0.7090880870819092
			],
			"type":"VEC3"
		},
		{
			"bufferView":53,
			"componentType":5126,
			"count":228,
			"type":"VEC3"
		},
		{
			"bufferView":54,
			"componentType":5126,
			"count":228,
			"type":"VEC2"
		},
		{
			"bufferView":55,
			"componentType":5123,
			"count":348,
			"type":"SCALAR"
		},
		{
			"bufferView":56,
			"componentType":5126,
			"count":80,
			"max":[
				0.3639819025993347,
				0.13800150156021118,
				0.5066661834716797
			],
			"min":[
				-0.0033784713596105576,
				-0.4009135961532593,
				-0.5174933671951294
			],
			"type":"VEC3"
		},
		{
			"bufferView":57,
			"componentType":5126,
			"count":80,
			"type":"VEC3"
		},
		{
			"bufferView":58,
			"componentType":5126,
			"count":80,
			"type":"VEC2"
		},
		{
			"bufferView":59,
			"componentType":5123,
			"count":120,
			"type":"SCALAR"
		},
		{
			"bufferView":60,
			"componentType":5126,
			"count":88,
			"max":[
				0.3412099778652191,
				-0.19066476821899414,
				0.3513711392879486
			],
			"min":[
				-0.26297813653945923,
				-0.5531653165817261,
				-0.3441372513771057
			],
			"type":"VEC3"
		},
		{
			"bufferView":61,
			"componentType":5126,
			"count":88,
			"type":"VEC3"
		},
		{
			"bufferView":62,
			"componentType":5126,
			"count":88,
			"type":"VEC2"
		},
		{
			"bufferView":63,
			"componentType":5123,
			"count":132,
			"type":"SCALAR"
		},
		{
			"bufferView":64,
			"componentType":5126,
			"count":40,
			"max":[
				-0.008190596476197243,
				-0.3403468132019043,
				0.3176722824573517
			],
			"min":[
				-0.3187897205352783,
				-0.6147111058235168,
				-0.3176719844341278
			],
			"type":"VEC3"
		},
		{
			"bufferView":65,
			"componentType":5126,
			"count":40,
			"type":"VEC3"
		},
		{
			"bufferView":66,
			"componentType":5126,
			"count":40,
			"type":"VEC2"
		},
		{
			"bufferView":67,
			"componentType":5123,
			"count":60,
			"type":"SCALAR"
		}
	],
	"bufferViews":[
		{
			"buffer":0,
			"byteLength":2112,
			"byteOffset":0,
			"target":34962
		},
		{
			"buffer":0,
			"byteLength":2112,
			"byteOffset":2112,
			"target":34962
		},
		{
			"buffer":0,
			"byteLength":1408,
			"byteOffset":4224,
			"target":34962
		},
		{
			"buffer":0,
			"byteLength":684,
			"byteOffset":5632,
			"target":34963
		},
		{
			"buffer":0,
			"byteLength":1416,
			"byteOffset":6316,
			"target":34962
		},
		{
			"buffer":0,
			"byteLength":1416,
			"byteOffset":7732,
			"target":34962
		},
		{
			"buffer":0,
			"byteLength":944,
			"byteOffset":9148,
			"target":34962
		},
		{
			"buffer":0,
			"byteLength":420,
			"byteOffset":10092,
			"target":34963
		},
		{
			"buffer":0,
			"byteLength":504,
			"byteOffset":10512,
			"target":34962
		},
		{
			"buffer":0,
			"byteLength":504,
			"byteOffset":11016,
			"target":34962
		},
		{
			"buffer":0,
			"byteLength":336,
			"byteOffset":11520,
			"target":34962
		},
		{
			"buffer":0,
			"byteLength":144,
			"byteOffset":11856,
			"target":34963
		},
		{
			"buffer":0,
			"byteLength":96,
			"byteOffset":12000,
			"target":34962
		},
		{
			"buffer":0,
			"byteLength":96,
			"byteOffset":12096,
			"target":34962
		},
		{
			"buffer":0,
			"byteLength":64,
			"byteOffset":12192,
			"target":34962
		},
		{
			"buffer":0,
			"byteLength":36,
			"byteOffset":12256,
			"target":34963
		},
		{
			"buffer":0,
			"byteLength":288,
			"byteOffset":12292,
			"target":34962
		},
		{
			"buffer":0,
			"byteLength":288,
			"byteOffset":12580,
			"target":34962
		},
		{
			"buffer":0,
			"byteLength":192,
			"byteOffset":12868,
			"target":34962
		},
		{
			"buffer":0,
			"byteLength":72,
			"byteOffset":13060,
			"target":34963
		},
		{
			"buffer":0,
			"byteLength":984,
			"byteOffset":13132,
			"target":34962
		},
		{
			"buffer":0,
			"byteLength":984,
			"byteOffset":14116,
			"target":34962
		},
		{
			"buffer":0,
			"byteLength":656,
			"byteOffset":15100,
			"target":34962
		},
		{
			"buffer":0,
			"byteLength":360,
			"byteOffset":15756,
			"target":34963
		},
		{
			"buffer":0,
			"byteLength":456,
			"byteOffset":16116,
			"target":34962
		},
		{
			"buffer":0,
			"byteLength":456,
			"byteOffset":16572,
			"target":34962
		},
		{
			"buffer":0,
			"byteLength":304,
			"byteOffset":17028,
			"target":34962
		},
		{
			"buffer":0,
			"byteLength":156,
			"byteOffset":17332,
			"target":34963
		},
		{
			"buffer":0,
			"byteLength":48,
			"byteOffset":17488,
			"target":34962
		},
		{
			"buffer":0,
			"byteLength":48,
			"byteOffset":17536,
			"target":34962
		},
		{
			"buffer":0,
			"byteLength":32,
			"byteOffset":17584,
			"target":34962
		},
		{
			"buffer":0,
			"byteLength":12,
			"byteOffset":17616,
			"target":34963
		},
		{
			"buffer":0,
			"byteLength":552,
			"byteOffset":17628,
			"target":34962
		},
		{
			"buffer":0,
			"byteLength":552,
			"byteOffset":18180,
			"target":34962
		},
		{
			"buffer":0,
			"byteLength":368,
			"byteOffset":18732,
			"target":34962
		},
		{
			"buffer":0,
			"byteLength":156,
			"byteOffset":19100,
			"target":34963
		},
		{
			"buffer":0,
			"byteLength":48,
			"byteOffset":19256,
			"target":34962
		},
		{
			"buffer":0,
			"byteLength":48,
			"byteOffset":19304,
			"target":34962
		},
		{
			"buffer":0,
			"byteLength":32,
			"byteOffset":19352,
			"target":34962
		},
		{
			"buffer":0,
			"byteLength":12,
			"byteOffset":19384,
			"target":34963
		},
		{
			"buffer":0,
			"byteLength":15396,
			"byteOffset":19396,
			"target":34962
		},
		{
			"buffer":0,
			"byteLength":15396,
			"byteOffset":34792,
			"target":34962
		},
		{
			"buffer":0,
			"byteLength":10264,
			"byteOffset":50188,
			"target":34962
		},
		{
			"buffer":0,
			"byteLength":10158,
			"byteOffset":60452,
			"target":34963
		},
		{
			"buffer":0,
			"byteLength":23544,
			"byteOffset":70612,
			"target":34962
		},
		{
			"buffer":0,
			"byteLength":23544,
			"byteOffset":94156,
			"target":34962
		},
		{
			"buffer":0,
			"byteLength":15696,
			"byteOffset":117700,
			"target":34962
		},
		{
			"buffer":0,
			"byteLength":15864,
			"byteOffset":133396,
			"target":34963
		},
		{
			"buffer":0,
			"byteLength":3216,
			"byteOffset":149260,
			"target":34962
		},
		{
			"buffer":0,
			"byteLength":3216,
			"byteOffset":152476,
			"target":34962
		},
		{
			"buffer":0,
			"byteLength":2144,
			"byteOffset":155692,
			"target":34962
		},
		{
			"buffer":0,
			"byteLength":1512,
			"byteOffset":157836,
			"target":34963
		},
		{
			"buffer":0,
			"byteLength":2736,
			"byteOffset":159348,
			"target":34962
		},
		{
			"buffer":0,
			"byteLength":2736,
			"byteOffset":162084,
			"target":34962
		},
		{
			"buffer":0,
			"byteLength":1824,
			"byteOffset":164820,
			"target":34962
		},
		{
			"buffer":0,
			"byteLength":696,
			"byteOffset":166644,
			"target":34963
		},
		{
			"buffer":0,
			"byteLength":960,
			"byteOffset":167340,
			"target":34962
		},
		{
			"buffer":0,
			"byteLength":960,
			"byteOffset":168300,
			"target":34962
		},
		{
			"buffer":0,
			"byteLength":640,
			"byteOffset":169260,
			"target":34962
		},
		{
			"buffer":0,
			"byteLength":240,
			"byteOffset":169900,
			"target":34963
		},
		{
			"buffer":0,
			"byteLength":1056,
			"byteOffset":170140,
			"target":34962
		},
		{
			"buffer":0,
			"byteLength":1056,
			"byteOffset":171196,
			"target":34962
		},
		{
			"buffer":0,
			"byteLength":704,
			"byteOffset":172252,
			"target":34962
		},
		{
			"buffer":0,
			"byteLength":264,
			"byteOffset":172956,
			"target":34963
		},
		{
			"buffer":0,
			"byteLength":480,
			"byteOffset":173220,
			"target":34962
		},
		{
			"buffer":0,
			"byteLength":480,
			"byteOffset":173700,
			"target":34962
		},
		{
			"buffer":0,
			"byteLength":320,
			"byteOffset":174180,
			"target":34962
		},
		{
			"buffer":0,
			"byteLength":120,
			"byteOffset":174500,
			"target":34963
		}
	],
	"buffers":[
		{
			"byteLength":174620,
			"uri":"data:application/octet-stream;base64,"
		}
	]
}
