{
	"asset":{
		"generator":"Khronos glTF Blender I/O v3.6.27",
		"version":"2.0"
	},
	"scene":0,
	"scenes":[
		{
			"name":"Scene",
			"nodes":[
				0,
				1,
				2,
				3,
				4,
				5,
				6,
				7
			]
		}
	],
	"nodes":[
		{
			"mesh":0,
			"name":"Table",
			"translation":[
				-1.0000169277191162,
				2.482497215270996,
				-0.0032883882522583008
			]
		},
		{
			"mesh":1,
			"name":"Stool 1",
			"scale":[
				0.8393552303314209,
				0.8393552303314209,
				0.8393552303314209
			],
			"translation":[
				-1.0000169277191162,
				2.482497453689575,
				-0.003288388717919588
			]
		},
		{
			"mesh":2,
			"name":"Stool 2",
			"scale":[
				0.8393552303314209,
				0.8393552303314209,
				0.8393552303314209
			],
			"translation":[
				-1.0000169277191162,
				2.482497453689575,
				-0.003288388717919588
			]
		},
		{
			"mesh":3,
			"name":"Stool 3",
			"scale":[
				0.8393552303314209,
				0.8393552303314209,
				0.8393552303314209
			],
			"translation":[
				-1.0000169277191162,
				2.482497453689575,
				-0.003288388717919588
			]
		},
		{
			"mesh":4,
			"name":"Stool 4",
			"scale":[
				0.8393552303314209,
				0.8393552303314209,
				0.8393552303314209
			],
			"translation":[
				-1.0000169277191162,
				2.482497453689575,
				-0.003288388717919588
			]
		},
		{
			"mesh":5,
			"name":"Mug",
			"scale":[
				0.201067253947258,
				0.201067253947258,
				0.201067253947258
			],
			"translation":[
				-1.0000169277191162,
				2.482497453689575,
				-0.003288745880126953
			]
		},
		{
			"mesh":6,
			"name":"Phone",
			"rotation":[
				0.029462764039635658,
				-0.0027013591025024652,
				0.5164684653282166,
				0.8557949662208557
			],
			"scale":[
				0.770723283290863,
				0.942673921585083,
				0.6933211088180542
			],
			"translation":[
				-1.0000169277191162,
				2.482497215270996,
				-0.00328826904296875
			]
		},
		{
			"mesh":7,
			"name":"Character",
			"scale":[
				2.002711772918701,
				2.002711772918701,
				2.002711772918701
			],
			"translation":[
				-1.0000169277191162,
				2.4824976921081543,
				-0.00328826904296875
			]
		}
	],
	"materials":[
		{
			"doubleSided":true,
			"name":"Stool Seat",
			"pbrMetallicRoughness":{
				"baseColorFactor":[
					0.2882961630821228,
					0.027952369302511215,
					0.032275401055812836,
					1
				],
				"metallicFactor":0,
				"roughnessFactor":0.5
			}
		},
		{
			"doubleSided":true,
			"name":"Stool Base",
			"pbrMetallicRoughness":{
				"baseColorFactor":[
					0.10247336328029633,
					0.10247336328029633,
					0.10247336328029633,
					1
				],
				"metallicFactor":0
			}
		},
		{
			"doubleSided":true,
			"name":"Mug",
			"pbrMetallicRoughness":{
				"baseColorFactor":[
					0.40196889638900757,
					0.3364097774028778,
					0.1997757852077484,
					1
				],
				"metallicFactor":0
			}
		},
		{
			"doubleSided":true,
			"name":"Coffee",
			"pbrMetallicRoughness":{
				"baseColorFactor":[
					0.06997791677713394,
					0.022723695263266563,
					0.015144896693527699,
					1
				],
				"metallicFactor":0,
				"roughnessFactor":0.5
			}
		},
		{
			"doubleSided":true,
			"name":"Mug Stripe",
			"pbrMetallicRoughness":{
				"baseColorFactor":[
					0.03106333129107952,
					0.03106333129107952,
					0.03106333129107952,
					1
				],
				"metallicFactor":0
			}
		},
		{
			"doubleSided":true,
			"name":"Ipad Frame",
			"pbrMetallicRoughness":{
				"baseColorFactor":[
					0.0025793681852519512,
					0.0025793681852519512,
					0.0025793681852519512,
					1
				],
				"metallicFactor":0
			}
		},
		{
			"doubleSided":true,
			"name":"Screen",
			"pbrMetallicRoughness":{
				"baseColorFactor":[
					0.018848398700356483,
					0.018848398700356483,
					0.018848398700356483,
					1
				],
				"metallicFactor":0
			}
		},
		{
			"doubleSided":true,
			"name":"Skin",
			"pbrMetallicRoughness":{
				"baseColorFactor":[
					0.03735997900366783,
					0.012655874714255333,
					0.0033210432156920433,
					1
				],
				"metallicFactor":0
			}
		},
		{
			"doubleSided":true,
			"name":"T-Shirt",
			"pbrMetallicRoughness":{
				"baseColorFactor":[
					0.8000000715255737,
					0.06928995251655579,
					0.017561838030815125,
					1
				],
				"metallicFactor":0
			}
		},
		{
			"doubleSided":true,
			"name":"Trousers",
			"pbrMetallicRoughness":{
				"baseColorFactor":[
					0.008075723424553871,
					0.008075723424553871,
					0.008075723424553871,
					1
				],
				"metallicFactor":0
			}
		},
		{
			"doubleSided":true,
			"name":"Shoes",
			"pbrMetallicRoughness":{
				"baseColorFactor":[
					0.776289165019989,
					0.8000000715255737,
					0.5825481414794922,
					1
				],
				"metallicFactor":0,
				"roughnessFactor":0.5
			}
		}
	],
	"meshes":[
		{
			"name":"Cube",
			"primitives":[
				{
					"attributes":{
						"POSITION":0,
						"NORMAL":1,
						"TEXCOORD_0":2
					},
					"indices":3,
					"material":0
				}
			]
		},
		{
			"name":"Cube.001",
			"primitives":[
				{
					"attributes":{
						"POSITION":4,
						"NORMAL":5,
						"TEXCOORD_0":6
					},
					"indices":7,
					"material":1
				},
				{
					"attributes":{
						"POSITION":8,
						"NORMAL":9,
						"TEXCOORD_0":10
					},
					"indices":11,
					"material":0
				}
			]
		},
		{
			"name":"Cube.002",
			"primitives":[
				{
					"attributes":{
						"POSITION":12,
						"NORMAL":13,
						"TEXCOORD_0":14
					},
					"indices":7,
					"material":1
				},
				{
					"attributes":{
						"POSITION":15,
						"NORMAL":16,
						"TEXCOORD_0":17
					},
					"indices":11,
					"material":0
				}
			]
		},
		{
			"name":"Cube.003",
			"primitives":[
				{
					"attributes":{
						"POSITION":18,
						"NORMAL":19,
						"TEXCOORD_0":20
					},
					"indices":7,
					"material":1
				},
				{
					"attributes":{
						"POSITION":21,
						"NORMAL":22,
						"TEXCOORD_0":23
					},
					"indices":11,
					"material":0
				}
			]
		},
		{
			"name":"Cube.004",
			"primitives":[
				{
					"attributes":{
						"POSITION":24,
						"NORMAL":25,
						"TEXCOORD_0":26
					},
					"indices":7,
					"material":1
				},
				{
					"attributes":{
						"POSITION":27,
						"NORMAL":28,
						"TEXCOORD_0":29
					},
					"indices":11,
					"material":0
				}
			]
		},
		{
			"name":"Cube.005",
			"primitives":[
				{
					"attributes":{
						"POSITION":30,
						"NORMAL":31,
						"TEXCOORD_0":32
					},
					"indices":33,
					"material":2
				},
				{
					"attributes":{
						"POSITION":34,
						"NORMAL":35,
						"TEXCOORD_0":36
					},
					"indices":37,
					"material":3
				},
				{
					"attributes":{
						"POSITION":38,
						"NORMAL":39,
						"TEXCOORD_0":40
					},
					"indices":41,
					"material":4
				}
			]
		},
		{
			"name":"Cube.006",
			"primitives":[
				{
					"attributes":{
						"POSITION":42,
						"NORMAL":43,
						"TEXCOORD_0":44
					},
					"indices":45,
					"material":5
				},
				{
					"attributes":{
						"POSITION":46,
						"NORMAL":47,
						"TEXCOORD_0":48
					},
					"indices":49,
					"material":6
				}
			]
		},
		{
			"name":"Cube.007",
			"primitives":[
				{
					"attributes":{
						"POSITION":50,
						"NORMAL":51,
						"TEXCOORD_0":52
					},
					"indices":53,
					"material":7
				},
				{
					"attributes":{
						"POSITION":54,
						"NORMAL":55,
						"TEXCOORD_0":56
					},
					"indices":57,
					"material":8
				},
				{
					"attributes":{
						"POSITION":58,
						"NORMAL":59,
						"TEXCOORD_0":60
					},
					"indices":61,
					"material":9
				},
				{
					"attributes":{
						"POSITION":62,
						"NORMAL":63,
						"TEXCOORD_0":64
					},
					"indices":65,
					"material":10
				}
			]
		}
	],
	"accessors":[
		{
			"bufferView":0,
			"componentType":5126,
			"count":82,
			"max":[
				2.000016927719116,
				-0.028722047805786133,
				4.176023483276367
			],
			"min":[
				1.6927719116210938e-05,
				-0.8752516508102417,
				-4.169445991516113
			],
			"type":"VEC3"
		},
		{
			"bufferView":1,
			"componentType":5126,
			"count":82,
			"type":"VEC3"
		},
		{
			"bufferView":2,
			"componentType":5126,
			"count":82,
			"type":"VEC2"
		},
		{
			"bufferView":3,
			"componentType":5123,
			"count":180,
			"type":"SCALAR"
		},
		{
			"bufferView":4,
			"componentType":5126,
			"count":72,
			"max":[
				3.9455738067626953,
				-1.089799165725708,
				3.6960537433624268
			],
			"min":[
				2.8254289627075195,
				-2.9520673751831055,
				2.575908899307251
			],
			"type":"VEC3"
		},
		{
			"bufferView":5,
			"componentType":5126,
			"count":72,
			"type":"VEC3"
		},
		{
			"bufferView":6,
			"componentType":5126,
			"count":72,
			"type":"VEC2"
		},
		{
			"bufferView":7,
			"componentType":5123,
			"count":126,
			"type":"SCALAR"
		},
		{
			"bufferView":8,
			"componentType":5126,
			"count":30,
			"max":[
				4.040931224822998,
				-0.8212776780128479,
				3.7914113998413086
			],
			"min":[
				2.730071544647217,
				-1.089799165725708,
				2.4805514812469482
			],
			"type":"VEC3"
		},
		{
			"bufferView":9,
			"componentType":5126,
			"count":30,
			"type":"VEC3"
		},
		{
			"bufferView":10,
			"componentType":5126,
			"count":30,
			"type":"VEC2"
		},
		{
			"bufferView":11,
			"componentType":5123,
			"count":54,
			"type":"SCALAR"
		},
		{
			"bufferView":12,
			"componentType":5126,
			"count":72,
			"max":[
				3.9455738067626953,
				-1.089799165725708,
				1.6017922163009644
			],
			"min":[
				2.8254289627075195,
				-2.9520673751831055,
				0.4816473424434662
			],
			"type":"VEC3"
		},
		{
			"bufferView":13,
			"componentType":5126,
			"count":72,
			"type":"VEC3"
		},
		{
			"bufferView":14,
			"componentType":5126,
			"count":72,
			"type":"VEC2"
		},
		{
			"bufferView":15,
			"componentType":5126,
			"count":30,
			"max":[
				4.040931224822998,
				-0.8212776780128479,
				1.6971497535705566
			],
			"min":[
				2.730071544647217,
				-1.089799165725708,
				0.3862897455692291
			],
			"type":"VEC3"
		},
		{
			"bufferView":16,
			"componentType":5126,
			"count":30,
			"type":"VEC3"
		},
		{
			"bufferView":17,
			"componentType":5126,
			"count":30,
			"type":"VEC2"
		},
		{
			"bufferView":18,
			"componentType":5126,
			"count":72,
			"max":[
				3.9455738067626953,
				-1.089799165725708,
				-0.4789581596851349
			],
			"min":[
				2.8254289627075195,
				-2.9520673751831055,
				-1.5991029739379883
			],
			"type":"VEC3"
		},
		{
			"bufferView":19,
			"componentType":5126,
			"count":72,
			"type":"VEC3"
		},
		{
			"bufferView":20,
			"componentType":5126,
			"count":72,
			"type":"VEC2"
		},
		{
			"bufferView":21,
			"componentType":5126,
			"count":30,
			"max":[
				4.040931224822998,
				-0.8212776780128479,
				-0.3836005628108978
			],
			"min":[
				2.730071544647217,
				-1.089799165725708,
				-1.6944606304168701
			],
			"type":"VEC3"
		},
		{
			"bufferView":22,
			"componentType":5126,
			"count":30,
			"type":"VEC3"
		},
		{
			"bufferView":23,
			"componentType":5126,
			"count":30,
			"type":"VEC2"
		},
		{
			"bufferView":24,
			"componentType":5126,
			"count":72,
			"max":[
				3.9455738067626953,
				-1.089799165725708,
				-2.5732197761535645
			],
			"min":[
				2.8254289627075195,
				-2.9520673751831055,
				-3.6933646202087402
			],
			"type":"VEC3"
		},
		{
			"bufferView":25,
			"componentType":5126,
			"count":72,
			"type":"VEC3"
		},
		{
			"bufferView":26,
			"componentType":5126,
			"count":72,
			"type":"VEC2"
		},
		{
			"bufferView":27,
			"componentType":5126,
			"count":30,
			"max":[
				4.040931224822998,
				-0.8212776780128479,
				-2.4778621196746826
			],
			"min":[
				2.730071544647217,
				-1.089799165725708,
				-3.788722038269043
			],
			"type":"VEC3"
		},
		{
			"bufferView":28,
			"componentType":5126,
			"count":30,
			"type":"VEC3"
		},
		{
			"bufferView":29,
			"componentType":5126,
			"count":30,
			"type":"VEC2"
		},
		{
			"bufferView":30,
			"componentType":5126,
			"count":198,
			"max":[
				9.205577850341797,
				2.4254558086395264,
				-16.296756744384766
			],
			"min":[
				6.13974142074585,
				-0.16437411308288574,
				-18.296756744384766
			],
			"type":"VEC3"
		},
		{
			"bufferView":31,
			"componentType":5126,
			"count":198,
			"type":"VEC3"
		},
		{
			"bufferView":32,
			"componentType":5126,
			"count":198,
			"type":"VEC2"
		},
		{
			"bufferView":33,
			"componentType":5123,
			"count":390,
			"type":"SCALAR"
		},
		{
			"bufferView":34,
			"componentType":5126,
			"count":8,
			"max":[
				7.84920072555542,
				1.8611714839935303,
				-16.587295532226562
			],
			"min":[
				6.430282115936279,
				1.8611714839935303,
				-18.006214141845703
			],
			"type":"VEC3"
		},
		{
			"bufferView":35,
			"componentType":5126,
			"count":8,
			"type":"VEC3"
		},
		{
			"bufferView":36,
			"componentType":5126,
			"count":8,
			"type":"VEC2"
		},
		{
			"bufferView":37,
			"componentType":5123,
			"count":18,
			"type":"SCALAR"
		},
		{
			"bufferView":38,
			"componentType":5126,
			"count":48,
			"max":[
				8.139741897583008,
				1.8575150966644287,
				-16.296756744384766
			],
			"min":[
				6.13974142074585,
				0.3704679012298584,
				-18.296756744384766
			],
			"type":"VEC3"
		},
		{
			"bufferView":39,
			"componentType":5126,
			"count":48,
			"type":"VEC3"
		},
		{
			"bufferView":40,
			"componentType":5126,
			"count":48,
			"type":"VEC2"
		},
		{
			"bufferView":41,
			"componentType":5123,
			"count":84,
			"type":"SCALAR"
		},
		{
			"bufferView":42,
			"componentType":5126,
			"count":44,
			"max":[
				1.279832124710083,
				-1.1403886079788208,
				-2.1588399410247803
			],
			"min":[
				1.2357192039489746,
				-1.9473519325256348,
				-2.7220351696014404
			],
			"type":"VEC3"
		},
		{
			"bufferView":43,
			"componentType":5126,
			"count":44,
			"type":"VEC3"
		},
		{
			"bufferView":44,
			"componentType":5126,
			"count":44,
			"type":"VEC2"
		},
		{
			"bufferView":45,
			"componentType":5123,
			"count":78,
			"type":"SCALAR"
		},
		{
			"bufferView":46,
			"componentType":5126,
			"count":4,
			"max":[
				1.272857666015625,
				-1.1556239128112793,
				-2.1694729328155518
			],
			"min":[
				1.272857666015625,
				-1.9321165084838867,
				-2.711402177810669
			],
			"type":"VEC3"
		},
		{
			"bufferView":47,
			"componentType":5126,
			"count":4,
			"type":"VEC3"
		},
		{
			"bufferView":48,
			"componentType":5126,
			"count":4,
			"type":"VEC2"
		},
		{
			"bufferView":49,
			"componentType":5123,
			"count":6,
			"type":"SCALAR"
		},
		{
			"bufferView":50,
			"componentType":5126,
			"count":230,
			"max":[
				1.8669519424438477,
				1.1794379949569702,
				-0.6806744933128357
			],
			"min":[
				0.6036645174026489,
				-0.09843321144580841,
				-1.9306291341781616
			],
			"type":"VEC3"
		},
		{
			"bufferView":51,
			"componentType":5126,
			"count":230,
			"type":"VEC3"
		},
		{
			"bufferView":52,
			"componentType":5126,
			"count":230,
			"type":"VEC2"
		},
		{
			"bufferView":53,
			"componentType":5123,
			"count":348,
			"type":"SCALAR"
		},
		{
			"bufferView":54,
			"componentType":5126,
			"count":80,
			"max":[
				1.4644997119903564,
				0.3297847509384155,
				-0.8385934829711914
			],
			"min":[
				1.1210907697677612,
				-0.3400138318538666,
				-1.820173740386963
			],
			"type":"VEC3"
		},
		{
			"bufferView":55,
			"componentType":5126,
			"count":80,
			"type":"VEC3"
		},
		{
			"bufferView":56,
			"componentType":5126,
			"count":80,
			"type":"VEC2"
		},
		{
			"bufferView":57,
			"componentType":5123,
			"count":120,
			"type":"SCALAR"
		},
		{
			"bufferView":58,
			"componentType":5126,
			"count":88,
			"max":[
				1.4642107486724854,
				-0.12373033165931702,
				-1.002713680267334
			],
			"min":[
				0.9030221104621887,
				-0.48867297172546387,
				-1.6952474117279053
			],
			"type":"VEC3"
		},
		{
			"bufferView":59,
			"componentType":5126,
			"count":88,
			"type":"VEC3"
		},
		{
			"bufferView":60,
			"componentType":5126,
			"count":88,
			"type":"VEC2"
		},
		{
			"bufferView":61,
			"componentType":5123,
			"count":132,
			"type":"SCALAR"
		},
		{
			"bufferView":62,
			"componentType":5126,
			"count":40,
			"max":[
				1.2201558351516724,
				-0.3231167495250702,
				-1.0230807065963745
			],
			"min":[
				0.855772852897644,
				-0.5521371960639954,
				-1.6980385780334473
			],
			"type":"VEC3"
		},
		{
			"bufferView":63,
			"componentType":5126,
			"count":40,
			"type":"VEC3"
		},
		{
			"bufferView":64,
			"componentType":5126,
			"count":40,
			"type":"VEC2"
		},
		{
			"bufferView":65,
			"componentType":5123,
			"count":60,
			"type":"SCALAR"
		}
	],
	"bufferViews":[
		{
			"buffer":0,
			"byteLength":984,
			"byteOffset":0,
			"target":34962
		},
		{
			"buffer":0,
			"byteLength":984,
			"byteOffset":984,
			"target":34962
		},
		{
			"buffer":0,
			"byteLength":656,
			"byteOffset":1968,
			"target":34962
		},
		{
			"buffer":0,
			"byteLength":360,
			"byteOffset":2624,
			"target":34963
		},
		{
			"buffer":0,
			"byteLength":864,
			"byteOffset":2984,
			"target":34962
		},
		{
			"buffer":0,
			"byteLength":864,
			"byteOffset":3848,
			"target":34962
		},
		{
			"buffer":0,
			"byteLength":576,
			"byteOffset":4712,
			"target":34962
		},
		{
			"buffer":0,
			"byteLength":252,
			"byteOffset":5288,
			"target":34963
		},
		{
			"buffer":0,
			"byteLength":360,
			"byteOffset":5540,
			"target":34962
		},
		{
			"buffer":0,
			"byteLength":360,
			"byteOffset":5900,
			"target":34962
		},
		{
			"buffer":0,
			"byteLength":240,
			"byteOffset":6260,
			"target":34962
		},
		{
			"buffer":0,
			"byteLength":108,
			"byteOffset":6500,
			"target":34963
		},
		{
			"buffer":0,
			"byteLength":864,
			"byteOffset":6608,
			"target":34962
		},
		{
			"buffer":0,
			"byteLength":864,
			"byteOffset":7472,
			"target":34962
		},
		{
			"buffer":0,
			"byteLength":576,
			"byteOffset":8336,
			"target":34962
		},
		{
			"buffer":0,
			"byteLength":360,
			"byteOffset":8912,
			"target":34962
		},
		{
			"buffer":0,
			"byteLength":360,
			"byteOffset":9272,
			"target":34962
		},
		{
			"buffer":0,
			"byteLength":240,
			"byteOffset":9632,
			"target":34962
		},
		{
			"buffer":0,
			"byteLength":864,
			"byteOffset":9872,
			"target":34962
		},
		{
			"buffer":0,
			"byteLength":864,
			"byteOffset":10736,
			"target":34962
		},
		{
			"buffer":0,
			"byteLength":576,
			"byteOffset":11600,
			"target":34962
		},
		{
			"buffer":0,
			"byteLength":360,
			"byteOffset":12176,
			"target":34962
		},
		{
			"buffer":0,
			"byteLength":360,
			"byteOffset":12536,
			"target":34962
		},
		{
			"buffer":0,
			"byteLength":240,
			"byteOffset":12896,
			"target":34962
		},
		{
			"buffer":0,
			"byteLength":864,
			"byteOffset":13136,
			"target":34962
		},
		{
			"buffer":0,
			"byteLength":864,
			"byteOffset":14000,
			"target":34962
		},
		{
			"buffer":0,
			"byteLength":576,
			"byteOffset":14864,
			"target":34962
		},
		{
			"buffer":0,
			"byteLength":360,
			"byteOffset":15440,
			"target":34962
		},
		{
			"buffer":0,
			"byteLength":360,
			"byteOffset":15800,
			"target":34962
		},
		{
			"buffer":0,
			"byteLength":240,
			"byteOffset":16160,
			"target":34962
		},
		{
			"buffer":0,
			"byteLength":2376,
			"byteOffset":16400,
			"target":34962
		},
		{
			"buffer":0,
			"byteLength":2376,
			"byteOffset":18776,
			"target":34962
		},
		{
			"buffer":0,
			"byteLength":1584,
			"byteOffset":21152,
			"target":34962
		},
		{
			"buffer":0,
			"byteLength":780,
			"byteOffset":22736,
			"target":34963
		},
		{
			"buffer":0,
			"byteLength":96,
			"byteOffset":23516,
			"target":34962
		},
		{
			"buffer":0,
			"byteLength":96,
			"byteOffset":23612,
			"target":34962
		},
		{
			"buffer":0,
			"byteLength":64,
			"byteOffset":23708,
			"target":34962
		},
		{
			"buffer":0,
			"byteLength":36,
			"byteOffset":23772,
			"target":34963
		},
		{
			"buffer":0,
			"byteLength":576,
			"byteOffset":23808,
			"target":34962
		},
		{
			"buffer":0,
			"byteLength":576,
			"byteOffset":24384,
			"target":34962
		},
		{
			"buffer":0,
			"byteLength":384,
			"byteOffset":24960,
			"target":34962
		},
		{
			"buffer":0,
			"byteLength":168,
			"byteOffset":25344,
			"target":34963
		},
		{
			"buffer":0,
			"byteLength":528,
			"byteOffset":25512,
			"target":34962
		},
		{
			"buffer":0,
			"byteLength":528,
			"byteOffset":26040,
			"target":34962
		},
		{
			"buffer":0,
			"byteLength":352,
			"byteOffset":26568,
			"target":34962
		},
		{
			"buffer":0,
			"byteLength":156,
			"byteOffset":26920,
			"target":34963
		},
		{
			"buffer":0,
			"byteLength":48,
			"byteOffset":27076,
			"target":34962
		},
		{
			"buffer":0,
			"byteLength":48,
			"byteOffset":27124,
			"target":34962
		},
		{
			"buffer":0,
			"byteLength":32,
			"byteOffset":27172,
			"target":34962
		},
		{
			"buffer":0,
			"byteLength":12,
			"byteOffset":27204,
			"target":34963
		},
		{
			"buffer":0,
			"byteLength":2760,
			"byteOffset":27216,
			"target":34962
		},
		{
			"buffer":0,
			"byteLength":2760,
			"byteOffset":29976,
			"target":34962
		},
		{
			"buffer":0,
			"byteLength":1840,
			"byteOffset":32736,
			"target":34962
		},
		{
			"buffer":0,
			"byteLength":696,
			"byteOffset":34576,
			"target":34963
		},
		{
			"buffer":0,
			"byteLength":960,
			"byteOffset":35272,
			"target":34962
		},
		{
			"buffer":0,
			"byteLength":960,
			"byteOffset":36232,
			"target":34962
		},
		{
			"buffer":0,
			"byteLength":640,
			"byteOffset":37192,
			"target":34962
		},
		{
			"buffer":0,
			"byteLength":240,
			"byteOffset":37832,
			"target":34963
		},
		{
			"buffer":0,
			"byteLength":1056,
			"byteOffset":38072,
			"target":34962
		},
		{
			"buffer":0,
			"byteLength":1056,
			"byteOffset":39128,
			"target":34962
		},
		{
			"buffer":0,
			"byteLength":704,
			"byteOffset":40184,
			"target":34962
		},
		{
			"buffer":0,
			"byteLength":264,
			"byteOffset":40888,
			"target":34963
		},
		{
			"buffer":0,
			"byteLength":480,
			"byteOffset":41152,
			"target":34962
		},
		{
			"buffer":0,
			"byteLength":480,
			"byteOffset":41632,
			"target":34962
		},
		{
			"buffer":0,
			"byteLength":320,
			"byteOffset":42112,
			"target":34962
		},
		{
			"buffer":0,
			"byteLength":120,
			"byteOffset":42432,
			"target":34963
		}
	],
	"buffers":[
		{
			"byteLength":42552,
			"uri":"data:application/octet-stream;base64,"
		}
	]
}
