{
	"asset":{
		"generator":"Khronos glTF Blender I/O v3.6.27",
		"version":"2.0"
	},
	"scene":0,
	"scenes":[
		{
			"name":"Scene",
			"nodes":[
				0,
				1
			]
		}
	],
	"nodes":[
		{
			"mesh":0,
			"name":"Map",
			"rotation":[
				0,
				0,
				-0.4847029149532318,
				0.8746788501739502
			],
			"scale":[
				0.015258828178048134,
				0.375,
				0.5
			],
			"translation":[
				0.7243554592132568,
				0.6667909026145935,
				0
			]
		},
		{
			"mesh":1,
			"name":"Character",
			"translation":[
				0,
				0.6212384700775146,
				0
			]
		}
	],
	"materials":[
		{
			"doubleSided":true,
			"name":"Material",
			"pbrMetallicRoughness":{
				"metallicFactor":0,
				"roughnessFactor":0.5
			}
		},
		{
			"doubleSided":true,
			"name":"Skin",
			"pbrMetallicRoughness":{
				"baseColorFactor":[
					0.03735997900366783,
					0.012655874714255333,
					0.0033210432156920433,
					1
				],
				"metallicFactor":0
			}
		},
		{
			"doubleSided":true,
			"name":"T-Shirt",
			"pbrMetallicRoughness":{
				"baseColorFactor":[
					0.26971814036369324,
					0.3757489323616028,
					0.18356674909591675,
					1
				],
				"metallicFactor":0
			}
		},
		{
			"doubleSided":true,
			"name":"Trousers",
			"pbrMetallicRoughness":{
				"baseColorFactor":[
					0.02719881944358349,
					0.015861202031373978,
					0.01362088043242693,
					1
				],
				"metallicFactor":0
			}
		},
		{
			"doubleSided":true,
			"name":"Shoes",
			"pbrMetallicRoughness":{
				"baseColorFactor":[
					0.005604563746601343,
					0.0025028015952557325,
					0.0009853243827819824,
					1
				],
				"metallicFactor":0,
				"roughnessFactor":0.5
			}
		}
	],
	"meshes":[
		{
			"name":"Cube",
			"primitives":[
				{
					"attributes":{
						"POSITION":0,
						"NORMAL":1,
						"TEXCOORD_0":2
					},
					"indices":3,
					"material":0
				}
			]
		},
		{
			"name":"Cube.001",
			"primitives":[
				{
					"attributes":{
						"POSITION":4,
						"NORMAL":5,
						"TEXCOORD_0":6
					},
					"indices":7,
					"material":1
				},
				{
					"attributes":{
						"POSITION":8,
						"NORMAL":9,
						"TEXCOORD_0":10
					},
					"indices":11,
					"material":2
				},
				{
					"attributes":{
						"POSITION":12,
						"NORMAL":13,
						"TEXCOORD_0":14
					},
					"indices":15,
					"material":3
				},
				{
					"attributes":{
						"POSITION":16,
						"NORMAL":17,
						"TEXCOORD_0":18
					},
					"indices":19,
					"material":4
				}
			]
		}
	],
	"accessors":[
		{
			"bufferView":0,
			"componentType":5126,
			"count":24,
			"max":[
				1,
				1,
				1
			],
			"min":[
				-1,
				-1,
				-1
			],
			"type":"VEC3"
		},
		{
			"bufferView":1,
			"componentType":5126,
			"count":24,
			"type":"VEC3"
		},
		{
			"bufferView":2,
			"componentType":5126,
			"count":24,
			"type":"VEC2"
		},
		{
			"bufferView":3,
			"componentType":5123,
			"count":36,
			"type":"SCALAR"
		},
		{
			"bufferView":4,
			"componentType":5126,
			"count":222,
			"max":[
				0.7768914699554443,
				1.2235798835754395,
				0.5995490550994873
			],
			"min":[
				-0.37629255652427673,
				-0.23195137083530426,
				-0.5576689839363098
			],
			"type":"VEC3"
		},
		{
			"bufferView":5,
			"componentType":5126,
			"count":222,
			"type":"VEC3"
		},
		{
			"bufferView":6,
			"componentType":5126,
			"count":222,
			"type":"VEC2"
		},
		{
			"bufferView":7,
			"componentType":5123,
			"count":336,
			"type":"SCALAR"
		},
		{
			"bufferView":8,
			"componentType":5126,
			"count":88,
			"max":[
				0.2209843397140503,
				0.2571812868118286,
				0.5323224067687988
			],
			"min":[
				-0.18600989878177643,
				-0.2041732221841812,
				-0.5267587304115295
			],
			"type":"VEC3"
		},
		{
			"bufferView":9,
			"componentType":5126,
			"count":88,
			"type":"VEC3"
		},
		{
			"bufferView":10,
			"componentType":5126,
			"count":88,
			"type":"VEC2"
		},
		{
			"bufferView":11,
			"componentType":5123,
			"count":132,
			"type":"SCALAR"
		},
		{
			"bufferView":12,
			"componentType":5126,
			"count":86,
			"max":[
				0.21012161672115326,
				-0.19326496124267578,
				0.3397012948989868
			],
			"min":[
				-0.20742590725421906,
				-0.5340287685394287,
				-0.3394887149333954
			],
			"type":"VEC3"
		},
		{
			"bufferView":13,
			"componentType":5126,
			"count":86,
			"type":"VEC3"
		},
		{
			"bufferView":14,
			"componentType":5126,
			"count":86,
			"type":"VEC2"
		},
		{
			"bufferView":15,
			"componentType":5123,
			"count":132,
			"type":"SCALAR"
		},
		{
			"bufferView":16,
			"componentType":5126,
			"count":40,
			"max":[
				0.19676464796066284,
				-0.5340287685394287,
				0.3163090646266937
			],
			"min":[
				-0.19681693613529205,
				-0.6210787296295166,
				-0.3158986568450928
			],
			"type":"VEC3"
		},
		{
			"bufferView":17,
			"componentType":5126,
			"count":40,
			"type":"VEC3"
		},
		{
			"bufferView":18,
			"componentType":5126,
			"count":40,
			"type":"VEC2"
		},
		{
			"bufferView":19,
			"componentType":5123,
			"count":60,
			"type":"SCALAR"
		}
	],
	"bufferViews":[
		{
			"buffer":0,
			"byteLength":288,
			"byteOffset":0,
			"target":34962
		},
		{
			"buffer":0,
			"byteLength":288,
			"byteOffset":288,
			"target":34962
		},
		{
			"buffer":0,
			"byteLength":192,
			"byteOffset":576,
			"target":34962
		},
		{
			"buffer":0,
			"byteLength":72,
			"byteOffset":768,
			"target":34963
		},
		{
			"buffer":0,
			"byteLength":2664,
			"byteOffset":840,
			"target":34962
		},
		{
			"buffer":0,
			"byteLength":2664,
			"byteOffset":3504,
			"target":34962
		},
		{
			"buffer":0,
			"byteLength":1776,
			"byteOffset":6168,
			"target":34962
		},
		{
			"buffer":0,
			"byteLength":672,
			"byteOffset":7944,
			"target":34963
		},
		{
			"buffer":0,
			"byteLength":1056,
			"byteOffset":8616,
			"target":34962
		},
		{
			"buffer":0,
			"byteLength":1056,
			"byteOffset":9672,
			"target":34962
		},
		{
			"buffer":0,
			"byteLength":704,
			"byteOffset":10728,
			"target":34962
		},
		{
			"buffer":0,
			"byteLength":264,
			"byteOffset":11432,
			"target":34963
		},
		{
			"buffer":0,
			"byteLength":1032,
			"byteOffset":11696,
			"target":34962
		},
		{
			"buffer":0,
			"byteLength":1032,
			"byteOffset":12728,
			"target":34962
		},
		{
			"buffer":0,
			"byteLength":688,
			"byteOffset":13760,
			"target":34962
		},
		{
			"buffer":0,
			"byteLength":264,
			"byteOffset":14448,
			"target":34963
		},
		{
			"buffer":0,
			"byteLength":480,
			"byteOffset":14712,
			"target":34962
		},
		{
			"buffer":0,
			"byteLength":480,
			"byteOffset":15192,
			"target":34962
		},
		{
			"buffer":0,
			"byteLength":320,
			"byteOffset":15672,
			"target":34962
		},
		{
			"buffer":0,
			"byteLength":120,
			"byteOffset":15992,
			"target":34963
		}
	],
	"buffers":[
		{
			"byteLength":16112,
			"uri":"data:application/octet-stream;base64,"
		}
	]
}
