{
	"asset":{
		"generator":"Khronos glTF Blender I/O v3.6.27",
		"version":"2.0"
	},
	"scene":0,
	"scenes":[
		{
			"name":"Scene",
			"nodes":[
				0,
				1,
				2,
				3
			]
		}
	],
	"nodes":[
		{
			"mesh":0,
			"name":"Table"
		},
		{
			"mesh":1,
			"name":"Stand",
			"scale":[
				0.3930439054965973,
				0.3930439054965973,
				0.3930439054965973
			]
		},
		{
			"mesh":2,
			"name":"Frame",
			"rotation":[
				0,
				0,
				0.1723150610923767,
				0.9850419163703918
			],
			"scale":[
				0.6291107535362244,
				0.6291107535362244,
				0.06968674808740616
			]
		},
		{
			"mesh":3,
			"name":"Globe",
			"rotation":[
				0,
				0,
				0.1723150610923767,
				0.9850419163703918
			],
			"scale":[
				0.5245076417922974,
				0.5245076417922974,
				0.5245075821876526
			]
		}
	],
	"materials":[
		{
			"doubleSided":true,
			"name":"Material",
			"pbrMetallicRoughness":{
				"baseColorFactor":[
					0.054968833923339844,
					0.020038893446326256,
					0.008106973953545094,
					1
				],
				"metallicFactor":0
			}
		},
		{
			"doubleSided":true,
			"name":"Material.002",
			"pbrMetallicRoughness":{
				"baseColorFactor":[
					0,
					0,
					0,
					1
				],
				"metallicFactor":0
			}
		},
		{
			"doubleSided":true,
			"name":"Material.001",
			"pbrMetallicRoughness":{
				"baseColorFactor":[
					0.00489560654386878,
					0.00489560654386878,
					0.00489560654386878,
					1
				],
				"metallicFactor":0
			}
		},
		{
			"doubleSided":true,
			"name":"Material.003",
			"pbrMetallicRoughness":{
				"baseColorFactor":[
					0.054508838802576065,
					0.04545041546225548,
					0.8000000715255737,
					1
				],
				"metallicFactor":0
			}
		},
		{
			"doubleSided":true,
			"name":"Material.004",
			"pbrMetallicRoughness":{
				"baseColorFactor":[
					0.04748396575450897,
					0.20190070569515228,
					0.06009970232844353,
					1
				],
				"metallicFactor":0
			}
		}
	],
	"meshes":[
		{
			"name":"Cube",
			"primitives":[
				{
					"attributes":{
						"POSITION":0,
						"NORMAL":1,
						"TEXCOORD_0":2
					},
					"indices":3,
					"material":0
				}
			]
		},
		{
			"name":"Cube.003",
			"primitives":[
				{
					"attributes":{
						"POSITION":4,
						"NORMAL":5,
						"TEXCOORD_0":6
					},
					"indices":7,
					"material":1
				}
			]
		},
		{
			"name":"Cube.004",
			"primitives":[
				{
					"attributes":{
						"POSITION":8,
						"NORMAL":9,
						"TEXCOORD_0":10
					},
					"indices":11,
					"material":2
				}
			]
		},
		{
			"name":"Cube.005",
			"primitives":[
				{
					"attributes":{
						"POSITION":12,
						"NORMAL":13,
						"TEXCOORD_0":14
					},
					"indices":15,
					"material":3
				},
				{
					"attributes":{
						"POSITION":16,
						"NORMAL":17,
						"TEXCOORD_0":18
					},
					"indices":19,
					"material":4
				}
			]
		}
	],
	"accessors":[
		{
			"bufferView":0,
			"componentType":5126,
			"count":493,
			"max":[
				1,
				1.9952032566070557,
				1
			],
			"min":[
				-1,
				-0.0018816590309143066,
				-1
			],
			"type":"VEC3"
		},
		{
			"bufferView":1,
			"componentType":5126,
			"count":493,
			"type":"VEC3"
		},
		{
			"bufferView":2,
			"componentType":5126,
			"count":493,
			"type":"VEC2"
		},
		{
			"bufferView":3,
			"componentType":5123,
			"count":2034,
			"type":"SCALAR"
		},
		{
			"bufferView":4,
			"componentType":5126,
			"count":76,
			"max":[
				0.9932990074157715,
				6.369639873504639,
				1
			],
			"min":[
				-1.0067009925842285,
				5.011490821838379,
				-1
			],
			"type":"VEC3"
		},
		{
			"bufferView":5,
			"componentType":5126,
			"count":76,
			"type":"VEC3"
		},
		{
			"bufferView":6,
			"componentType":5126,
			"count":76,
			"type":"VEC2"
		},
		{
			"bufferView":7,
			"componentType":5123,
			"count":132,
			"type":"SCALAR"
		},
		{
			"bufferView":8,
			"componentType":5126,
			"count":176,
			"max":[
				1.9427106380462646,
				5.6527099609375,
				1.4888240098953247
			],
			"min":[
				0.770020604133606,
				3.6527099609375,
				-1.4888240098953247
			],
			"type":"VEC3"
		},
		{
			"bufferView":9,
			"componentType":5126,
			"count":176,
			"type":"VEC3"
		},
		{
			"bufferView":10,
			"componentType":5126,
			"count":176,
			"type":"VEC2"
		},
		{
			"bufferView":11,
			"componentType":5123,
			"count":372,
			"type":"SCALAR"
		},
		{
			"bufferView":12,
			"componentType":5126,
			"count":434,
			"max":[
				3.1230175495147705,
				6.587721347808838,
				1
			],
			"min":[
				1.1230175495147705,
				4.587721347808838,
				-1
			],
			"type":"VEC3"
		},
		{
			"bufferView":13,
			"componentType":5126,
			"count":434,
			"type":"VEC3"
		},
		{
			"bufferView":14,
			"componentType":5126,
			"count":434,
			"type":"VEC2"
		},
		{
			"bufferView":15,
			"componentType":5123,
			"count":1884,
			"type":"SCALAR"
		},
		{
			"bufferView":16,
			"componentType":5126,
			"count":143,
			"max":[
				3.1230175495147705,
				6.587721347808838,
				1
			],
			"min":[
				1.1230175495147705,
				4.587721347808838,
				-1
			],
			"type":"VEC3"
		},
		{
			"bufferView":17,
			"componentType":5126,
			"count":143,
			"type":"VEC3"
		},
		{
			"bufferView":18,
			"componentType":5126,
			"count":143,
			"type":"VEC2"
		},
		{
			"bufferView":19,
			"componentType":5123,
			"count":420,
			"type":"SCALAR"
		}
	],
	"bufferViews":[
		{
			"buffer":0,
			"byteLength":5916,
			"byteOffset":0,
			"target":34962
		},
		{
			"buffer":0,
			"byteLength":5916,
			"byteOffset":5916,
			"target":34962
		},
		{
			"buffer":0,
			"byteLength":3944,
			"byteOffset":11832,
			"target":34962
		},
		{
			"buffer":0,
			"byteLength":4068,
			"byteOffset":15776,
			"target":34963
		},
		{
			"buffer":0,
			"byteLength":912,
			"byteOffset":19844,
			"target":34962
		},
		{
			"buffer":0,
			"byteLength":912,
			"byteOffset":20756,
			"target":34962
		},
		{
			"buffer":0,
			"byteLength":608,
			"byteOffset":21668,
			"target":34962
		},
		{
			"buffer":0,
			"byteLength":264,
			"byteOffset":22276,
			"target":34963
		},
		{
			"buffer":0,
			"byteLength":2112,
			"byteOffset":22540,
			"target":34962
		},
		{
			"buffer":0,
			"byteLength":2112,
			"byteOffset":24652,
			"target":34962
		},
		{
			"buffer":0,
			"byteLength":1408,
			"byteOffset":26764,
			"target":34962
		},
		{
			"buffer":0,
			"byteLength":744,
			"byteOffset":28172,
			"target":34963
		},
		{
			"buffer":0,
			"byteLength":5208,
			"byteOffset":28916,
			"target":34962
		},
		{
			"buffer":0,
			"byteLength":5208,
			"byteOffset":34124,
			"target":34962
		},
		{
			"buffer":0,
			"byteLength":3472,
			"byteOffset":39332,
			"target":34962
		},
		{
			"buffer":0,
			"byteLength":3768,
			"byteOffset":42804,
			"target":34963
		},
		{
			"buffer":0,
			"byteLength":1716,
			"byteOffset":46572,
			"target":34962
		},
		{
			"buffer":0,
			"byteLength":1716,
			"byteOffset":48288,
			"target":34962
		},
		{
			"buffer":0,
			"byteLength":1144,
			"byteOffset":50004,
			"target":34962
		},
		{
			"buffer":0,
			"byteLength":840,
			"byteOffset":51148,
			"target":34963
		}
	],
	"buffers":[
		{
			"byteLength":51988,
			"uri":"data:application/octet-stream;base64,"
		}
	]
}
